<svg width="128" height="128" xmlns="http://www.w3.org/2000/svg">

 <g>
  <title>background</title>
  <rect fill="none" id="canvas_background" height="402" width="582" y="-1" x="-1"/>
 </g>
 <g>
  <title>Layer 1</title>
  <path id="svg_3" d="m84.815,43.399c-0.781,-0.782 -2.047,-0.782 -2.828,0l-17.955,17.957l-17.955,-17.957c-0.781,-0.782 -2.047,-0.782 -2.828,0c-0.781,0.781 -0.781,2.047 0,2.828l17.955,17.957l-17.955,17.957c-0.781,0.78 -0.781,2.047 0,2.828c0.391,0.39 0.902,0.585 1.414,0.585s1.023,-0.195 1.414,-0.585l17.955,-17.956l17.955,17.956c0.391,0.39 0.902,0.585 1.414,0.585s1.023,-0.195 1.414,-0.585c0.781,-0.781 0.781,-2.048 0,-2.828l-17.955,-17.957l17.955,-17.957c0.782,-0.78 0.782,-2.047 0,-2.828zm-20.783,-29.345c-27.642,0 -50.129,22.487 -50.129,50.127c0.002,27.643 22.491,50.131 50.133,50.131c27.639,0 50.125,-22.489 50.125,-50.131c0,-27.64 -22.487,-50.127 -50.129,-50.127zm0.004,96.259l-0.002,0c-25.435,0 -46.129,-20.695 -46.131,-46.131c0,-25.435 20.693,-46.127 46.129,-46.127s46.129,20.693 46.129,46.127c0,25.435 -20.691,46.131 -46.125,46.131z"/>
 </g>
</svg>