<?xml version="1.0" encoding="utf-8"?>
<!-- Generator: Adobe Illustrator 20.1.0, SVG Export Plug-In . SVG Version: 6.00 Build 0)  -->
<svg version="1.1" id="Layer_1" xmlns="http://www.w3.org/2000/svg" xmlns:xlink="http://www.w3.org/1999/xlink" x="0px" y="0px"
	 viewBox="0 0 85.6 90" style="enable-background:new 0 0 85.6 90;" xml:space="preserve">
<style type="text/css">
	.st0{fill:#FFFFFF;}
</style>
<path class="st0" d="M8.8,22.5c-3.1,0-5.6,2.5-5.6,5.6v33.8c0,3.1,2.5,5.6,5.6,5.6h9.4l20.9,20.9c1.1,1.1,2.5,1.6,4,1.6h7
	c3.1,0,5.6-2.5,5.6-5.6V60.8L83,88l2.7-2.7L55.7,55.5V5.6c0-3.1-2.5-5.6-5.6-5.6h-7c-1.5,0-2.9,0.6-4,1.6L20.5,20.2L2.7,2.4L0,5.1
	l17.4,17.4H8.8z M44.5,5.6h5.6v44.2l-5.6-5.6V5.6z M44.5,49.5l5.6,5.6v29.2h-5.6V49.5z M40.7,8v32.5L24.4,24.2L40.7,8z M22,27
	l18.8,18.8V82L22.2,63.5c-0.1-0.1-0.2-0.1-0.2-0.2V27z M18.2,61.9H8.8V28.1h9.4V61.9z"/>
<path class="st0" d="M62.7,55.6c5.8-5.8,5.8-15.4,0-21.2L60,37c4.4,4.4,4.4,11.5,0,15.9L62.7,55.6z"/>
<path class="st0" d="M68,29.1l-2.7,2.7c7.3,7.3,7.3,19.2,0,26.5l2.7,2.7C76.7,52.1,76.7,37.9,68,29.1z"/>
<path class="st0" d="M73.3,23.8l-2.7,2.7c10.2,10.2,10.2,26.9,0,37.1l2.7,2.7C85,54.5,85,35.5,73.3,23.8z"/>
</svg>
