<?xml version="1.0" encoding="utf-8"?>
<!-- Generator: Adobe Illustrator 22.0.1, SVG Export Plug-In . SVG Version: 6.00 Build 0)  -->
<svg version="1.1" id="Layer_1" xmlns="http://www.w3.org/2000/svg" xmlns:xlink="http://www.w3.org/1999/xlink" x="0px" y="0px"
	 viewBox="0 0 701.2 128.9" style="enable-background:new 0 0 701.2 128.9;" xml:space="preserve">
<style type="text/css">
	.st0{fill:#FFFFFF;}
</style>
<g>
	<path class="st0" d="M25.1,30.3c12.9,0.6,17.8,6,17.8,11.1c0,8.4-7.2,12.2-18.8,12.2c-2,0-5.9-0.2-11.4-0.2
		c-4.2,0-8.5,0.1-10.9,0.2v-1.3c3.8-0.2,4.5-0.8,4.5-5.4V15.8c0-4.6-0.7-5.2-4.5-5.4V9.2c2.4,0.1,6.8,0.2,10.8,0.2
		c4.2,0,8.5-0.1,10.1-0.1c11.4,0,17,4.1,17,9.9c0,4.4-4.6,9.8-14.5,11.1V30.3z M18.9,15.8V30h1.7c4.9,0,6.1-4.8,6.1-10.2
		c0-6.2-1.2-9.3-4.4-9.3C19.5,10.4,18.9,11.5,18.9,15.8z M29.7,41.1c0-6.4-2.8-10.1-9.9-10.1h-0.9v15.9c0,4.4,0.7,5.2,4.1,5.2
		C27.7,52.1,29.7,48.2,29.7,41.1z"/>
	<path class="st0" d="M78.5,46.7c0,3.8,0.9,5.5,3.5,5.5v1.3c-1.3-0.1-2.6-0.2-3.9-0.2c-4.2,0-7.8,0.2-10.9,0.9v-4.5
		c-2,3.3-5.5,4.7-10,4.7c-3.8,0-5.9-1.1-7.1-2.5c-1.3-1.5-1.8-3.8-1.8-8.1v-16c0-3.8-0.9-5.5-3.5-5.5V21c1.3,0.1,2.6,0.2,3.9,0.2
		c4.2,0,7.7-0.2,10.9-0.9v26.9c0,2.6,0.9,4,3.1,4c2.3,0,4.5-1.9,4.5-4.5V27.8c0-3.8-0.9-5.5-3.5-5.5V21c1.3,0.1,2.6,0.2,3.9,0.2
		c4.2,0,7.8-0.2,10.9-0.9V46.7z"/>
	<path class="st0" d="M115.7,21v1.3c-1.6,0.6-3.1,2-4.4,6.1l-7.8,23.3l-2.6,7.6c-0.8,2.1-1.6,3.6-2.8,4.5c-1.1,0.9-2.8,1.5-5.8,1.5
		c-3.4,0-8.5-1.5-8.5-5.9c0-3,2.4-4.8,6.1-4.8c3.5,0,5.7,1.6,5.7,4.6c0,1.8-1.3,3.9-4.1,4.8c0.6,0.1,1.6,0.1,2.1,0.1
		c2.7,0,4.8-1.6,6-5l0.3-1L85.2,25.9c-1.4-3.2-2.8-3.5-3.6-3.5V21c3.3,0.2,7.1,0.4,10.2,0.4c3.9,0,6.6-0.2,9.1-0.4v1.3
		c-1.9,0-3.8,0-3.8,1.4c0,0.3,0.1,0.6,0.2,1l7.7,18.4l2.6-8c0.9-2.5,1.2-4.7,1.2-6.4c0-4.1-2-6.1-4.6-6.3V21
		c1.8,0.2,5.1,0.2,6.6,0.2C112.4,21.3,114.8,21.2,115.7,21z"/>
	<path class="st0" d="M186.9,10.4c-3.8,0.2-4.4,0.8-4.4,5.4v31.1c0,4.6,0.7,5.2,4.4,5.4v1.3c-2.6-0.1-7-0.2-11.1-0.2
		c-4.5,0-8.8,0.1-11.1,0.2v-1.3c4.3-0.2,5.1-0.8,5.1-5.4V14.8l-15.1,38.7h-1l-17.7-40.3v28.1c0,8.4,0.4,10.2,6.3,11v1.3
		c-1.7-0.1-4.7-0.2-7-0.2c-1.9,0-4,0.1-5.2,0.2v-1.3c3.8-0.8,4.5-2.7,4.5-9.8V15.8c0-4.6-0.7-5.2-4.5-5.4V9.2
		c1.3,0.1,3.3,0.2,5.2,0.2c4.8,0,9.4-0.1,13-0.2L160,35.8l10.3-26.5h5.5c4.2,0,8.5-0.1,11.1-0.2V10.4z"/>
	<path class="st0" d="M212,10.4c-3.8,0.2-4.5,0.8-4.5,5.4v31.1c0,4.6,0.7,5.2,4.5,5.4v1.3c-2.4-0.1-6.6-0.2-10.5-0.2
		c-4.5,0-8.8,0.1-11.2,0.2v-1.3c3.8-0.2,4.5-0.8,4.5-5.4V15.8c0-4.6-0.7-5.2-4.5-5.4V9.2c2.4,0.1,6.6,0.2,11.2,0.2
		c3.9,0,8-0.1,10.5-0.2V10.4z"/>
	<path class="st0" d="M250.2,19.7c0,1.7,0.1,3.5,0.2,4.5h-1.4c-2.2-10.4-7-13.6-11.5-13.6h-0.8c-3.2,0-3.8,0.5-3.8,4v16h0.6
		c4.7,0,7.8-4.6,8.5-8.3h1.4c-0.2,2.8-0.2,4.6-0.2,6.1c0,1.1,0,1.9,0,2.8c0,2.1,0.1,4.1,0.4,8.9h-1.4c-0.8-4.7-4-8.3-8.7-8.3h-0.6
		v14.4c0,5.1,1.2,5.8,7,5.8v1.4c-2.8-0.1-7.7-0.2-12.9-0.2c-3.8,0-7.8,0.1-11.2,0.2v-1.3c3.8-0.2,4.5-0.8,4.5-5.4V15.8
		c0-4.6-0.7-5.2-4.5-5.4V9.2c7.3,0.2,17.5,0.2,22,0.2c3.8,0,9.2,0,13.1-0.2C250.3,13.4,250.2,17.6,250.2,19.7z"/>
	<path class="st0" d="M270.9,47.8c0,3.5,0.9,4.5,3.5,4.5v1.3c-1.7-0.1-5.3-0.2-8.6-0.2c-4.7,0-9.2,0.2-11.5,0.2v-1.3
		c3.4,0,5.4-1.1,5.4-5.1V31.7c0-6-1.3-6.8-5.4-6.8v-1.4c7.9-0.1,12.7-0.9,16.7-3.2V47.8z"/>
	<path class="st0" d="M310.8,38c0,16.6-16.2,23.9-26.9,25.2l-0.3-1.3c6.4-1.8,12.9-4.8,14.8-16.5c-1.7,2.3-4.5,3.3-7.5,3.3
		c-7.2,0-13-5.2-13-13.5c0-9.7,7.8-15.1,16.9-15.1C304.8,20.1,310.8,26.7,310.8,38z M298.8,42.9c0.2-1.7,0.3-3.5,0.3-5.5
		c0-12-2.6-16-5-16c-2.2,0-4.4,3.7-4.4,13.3c0,8.9,2,12.3,4.4,12.3C295.4,46.9,297.6,45.8,298.8,42.9z"/>
	<path class="st0" d="M385.8,10.4c-3.8,0.2-4.4,0.8-4.4,5.4v31.1c0,4.6,0.7,5.2,4.4,5.4v1.3c-2.6-0.1-7-0.2-11.1-0.2
		c-4.5,0-8.8,0.1-11.1,0.2v-1.3c4.3-0.2,5.1-0.8,5.1-5.4V14.8l-15.1,38.7h-1l-17.7-40.3v28.1c0,8.4,0.4,10.2,6.3,11v1.3
		c-1.7-0.1-4.7-0.2-7-0.2c-1.9,0-4,0.1-5.2,0.2v-1.3c3.8-0.8,4.5-2.7,4.5-9.8V15.8c0-4.6-0.7-5.2-4.5-5.4V9.2
		c1.3,0.1,3.3,0.2,5.2,0.2c4.8,0,9.4-0.1,13-0.2l11.9,26.6l10.3-26.5h5.5c4.2,0,8.5-0.1,11.1-0.2V10.4z"/>
	<path class="st0" d="M414.8,43.4l1.1,0.4c-1.6,5.1-5.7,10.7-13.1,10.7c-8.1,0-14.5-4.5-14.5-17.1c0-12.1,7-17.2,16.1-17.2
		c7.3,0,11.9,4,11.9,14.1H400c-0.1,0.7-0.1,1.5-0.1,2.3c0,8.9,3.8,11.1,7.2,11.1C408.9,47.6,412,47.2,414.8,43.4z M399.8,33h7.3
		c0.1-6.1-0.8-11.4-3.2-11.4C401.7,21.6,400.2,24.7,399.8,33z"/>
	<path class="st0" d="M470.5,47.8c0,3.5,0.9,4.5,3.5,4.5v1.3c-1.7-0.1-5.5-0.2-8.8-0.2c-3.3,0-6.7,0.2-8.3,0.2v-1.3
		c1.7,0,2.3-1,2.3-4.5V27.4c0-2.6-0.9-4-3.1-4c-2.2,0-4.3,2.2-4.6,4.6c0.1,0.8,0.1,1.7,0.1,2.7v17c0,3.5,0.7,4.5,2.9,4.5v1.3
		c-1.6-0.1-5.1-0.2-8.2-0.2c-3.2,0-6.7,0.2-8.3,0.2v-1.3c1.6,0,2.3-1,2.3-4.5V27.4c0-2.6-0.7-4-2.5-4c-2.3,0-4.5,1.9-4.5,4.5v19.8
		c0,3.5,0.6,4.5,2.3,4.5v1.3c-1.4-0.1-4.6-0.2-7.7-0.2c-3.5,0-7.6,0.2-9.4,0.2v-1.3c2.6,0,3.5-1,3.5-4.5V27.8c0-3.8-0.9-5.5-3.5-5.5
		V21c1.3,0.1,2.6,0.2,3.9,0.2c4.2,0,7.8-0.2,10.9-0.9v4.5c1.9-3.3,5.1-4.7,9.3-4.7c3.8,0,5.9,1.1,7.1,2.5c0.6,0.7,1.1,1.7,1.3,2.9
		c2.3-4.2,6-5.5,10.4-5.5c3.8,0,5.9,1.1,7.1,2.5c1.3,1.5,1.8,3.8,1.8,8.1V47.8z"/>
	<path class="st0" d="M510.4,35.9c0,14.2-6.8,18.6-14.6,18.6c-2.4,0-4.3-0.1-6.2-0.9c-1.5-0.6-3-0.8-4.5-0.8c-2.6,0-4.9,0.7-6,1.8
		l-0.9-0.6c0.4-1.1,0.4-2.2,0.4-3.4V12c0-3.8-0.9-5.5-3.5-5.5V5.2c1.3,0.1,2.6,0.2,3.9,0.2c4.2,0,7.8-0.2,10.9-0.9v20.3
		c1.9-3.2,5.3-4.7,9.5-4.7C505.7,20.1,510.4,25.2,510.4,35.9z M498.6,37.3c0-11.1-1.9-13.9-4.2-13.9c-2.3,0-4.5,1.9-4.5,4.5v24.6
		c0.9,0.5,2,0.7,2.9,0.7C496.8,53.2,498.6,47.9,498.6,37.3z"/>
	<path class="st0" d="M540.9,43.4l1.1,0.4c-1.6,5.1-5.7,10.7-13.1,10.7c-8.1,0-14.5-4.5-14.5-17.1c0-12.1,7-17.2,16.1-17.2
		c7.3,0,11.9,4,11.9,14.1h-16.2c-0.1,0.7-0.1,1.5-0.1,2.3c0,8.9,3.8,11.1,7.2,11.1C535,47.6,538.1,47.2,540.9,43.4z M525.9,33h7.3
		c0.1-6.1-0.8-11.4-3.2-11.4C527.8,21.6,526.3,24.7,525.9,33z"/>
	<path class="st0" d="M573.3,26.5c0,3.8-2.3,6.2-5.8,6.2c-3.7,0-5.6-1.8-5.6-4.5c0-2.8,1.3-4.6,3.2-5.8c-0.7,0-1.4,0.1-2,0.4
		c-2.1,0.9-3.7,3.1-3.7,5.6v18.8c0,4,1.6,5.1,5.4,5.1v1.3c-1.9-0.1-6.1-0.2-10.1-0.2c-3.8,0-8.1,0.2-10,0.2v-1.3
		c2.6,0,3.5-1,3.5-4.5V27.8c0-3.8-0.9-5.5-3.5-5.5V21c1.3,0.1,2.6,0.2,3.9,0.2c4.2,0,7.8-0.2,10.9-0.9v4.5c1.7-3.2,4.5-4.7,8.1-4.7
		C572.1,20.1,573.3,23.6,573.3,26.5z"/>
	<path class="st0" d="M595.9,21.8c0.4,0.2,0.8,0.4,1.1,0.4c0.8,0,1.3-0.6,1.6-2h1.3c-0.2,2.5-0.2,5.6-0.2,11.3h-1.3
		c-0.6-4.6-2.6-9.8-7.7-9.8c-2.1,0-3.7,1.3-3.7,3.5c0,3.8,4,6.1,7.5,9c3.8,3.2,6.8,5.8,6.8,10.6c0,5.7-5.7,9.7-12.6,9.7
		c-3,0-5.1-0.8-6.5-1.6c-1.3-0.7-2.2-1-3.2-1c-0.9,0-1.4,1-1.7,2.2H576c0.2-2.7,0.2-6.2,0.2-12.5h1.3c0.8,6.6,3.7,11.4,8.3,11.4
		c2,0,3.6-1,3.6-3.4c0-3.7-2.5-5.8-5.8-8.8c-3.8-3.5-7.3-6.5-7.3-11.5c0-5.6,5.6-9,11.8-9C591.6,20.1,594.6,21.1,595.9,21.8z"/>
	<path class="st0" d="M619.1,24.8c2-3.3,5.5-4.7,10-4.7c3.8,0,5.9,1.1,7.1,2.5c1.3,1.5,1.8,3.8,1.8,8.1v17c0,3.5,0.9,4.5,3.5,4.5
		v1.3c-1.7-0.1-5.5-0.2-8.8-0.2c-3.5,0-7.2,0.2-8.9,0.2v-1.3c2.1,0,2.9-1,2.9-4.5V27.4c0-2.6-0.9-4-3.1-4c-2.3,0-4.5,1.9-4.5,4.5
		v19.8c0,3.5,0.8,4.5,2.9,4.5v1.3c-1.6-0.1-5-0.2-8.3-0.2c-3.5,0-7.6,0.2-9.4,0.2v-1.3c2.6,0,3.5-1,3.5-4.5V12
		c0-3.8-0.9-5.5-3.5-5.5V5.2c1.3,0.1,2.6,0.2,3.9,0.2c4.2,0,7.8-0.2,10.9-0.9V24.8z"/>
	<path class="st0" d="M658.3,47.8c0,3.5,0.9,4.5,3.5,4.5v1.3c-1.7-0.1-5.4-0.2-8.9-0.2c-3.5,0-7.6,0.2-9.4,0.2v-1.3
		c2.6,0,3.5-1,3.5-4.5V27.8c0-3.8-0.9-5.5-3.5-5.5V21c1.3,0.1,2.6,0.2,3.9,0.2c4.2,0,7.8-0.2,10.9-0.9V47.8z M659.1,9.9
		c0,3.6-2.5,5.4-6.8,5.4c-4.4,0-6.8-1.8-6.8-5.4c0-3.6,2.4-5.4,6.8-5.4C656.6,4.5,659.1,6.3,659.1,9.9z"/>
	<path class="st0" d="M699.2,35.9c0,14.2-6.8,18.6-14.6,18.6c-2.1,0-4.3-0.3-5.8-1.2v5.2c0,4.1,2,5.1,5.4,5.1v1.3
		c-2.3-0.1-6.9-0.3-11.5-0.3c-3.4,0-7,0.2-8.6,0.3v-1.3c2.6,0,3.5-1,3.5-4.5V27.9c0-3.8-0.9-5.5-3.5-5.5v-1.3
		c1.3,0.1,2.6,0.2,3.9,0.2c4.2,0,7.8-0.2,10.9-0.9v4.4c2-3.2,5.3-4.7,9.5-4.7C694.5,20.1,699.2,25.2,699.2,35.9z M687.5,37.3
		c0-11.1-1.9-13.9-4.2-13.9c-2.3,0-4.5,1.9-4.5,4.5V52c0.6,0.4,1.5,0.5,2.2,0.5C685.6,52.6,687.5,47.5,687.5,37.3z"/>
	<path class="st0" d="M172.9,66.8c1.2,0.9,2.3,2.8,2.3,5.2c0,2.6-2.1,5.1-5.2,5.1c-3.5,0-5.7-1.9-5.7-5.2c0-2.4,1.4-4.6,4.3-5.6
		c-0.2-0.3-0.8-0.6-1.7-0.6c-1.4,0-2.3,0.5-2.9,1.2c-0.7,0.9-1.2,2.4-1.2,5.7v8.4h6.7v1.3h-6.7v24.8c0,4.1,2,5.1,5.4,5.1v1.3
		c-2.3-0.1-6.9-0.2-11.5-0.2c-3.4,0-7,0.2-8.7,0.2v-1.3c2.6,0,3.5-1,3.5-4.5V82.3h-3.8v-1.3h3.8c0-7.4,1.2-10.6,4.4-13.4
		c2-1.7,5.5-3.2,9.3-3.2C168.8,64.5,171.1,65.4,172.9,66.8z"/>
	<path class="st0" d="M202.7,97.3c0,12.6-6.4,17.1-16.1,17.1c-9.7,0-16.1-4.5-16.1-17.1c0-12.7,6.4-17.2,16.1-17.2
		C196.3,80.1,202.7,84.7,202.7,97.3z M182.2,97.3c0,11.2,1.9,15.9,4.4,15.9s4.4-4.7,4.4-15.9c0-11.2-1.9-16-4.4-16
		S182.2,86.1,182.2,97.3z"/>
	<path class="st0" d="M234.7,86.5c0,3.8-2.3,6.2-5.8,6.2c-3.7,0-5.6-1.8-5.6-4.5c0-2.8,1.3-4.6,3.2-5.8c-0.7,0-1.4,0.1-2,0.4
		c-2.1,0.9-3.7,3.1-3.7,5.6v18.8c0,4,1.6,5.1,5.4,5.1v1.3c-1.9-0.1-6.1-0.2-10.1-0.2c-3.8,0-8.1,0.2-10,0.2v-1.3
		c2.6,0,3.5-1,3.5-4.5V87.8c0-3.8-0.9-5.5-3.5-5.5V81c1.3,0.1,2.6,0.2,3.9,0.2c4.2,0,7.8-0.2,10.9-0.9v4.5c1.7-3.2,4.5-4.7,8.1-4.7
		C233.4,80.1,234.7,83.6,234.7,86.5z"/>
	<path class="st0" d="M285.1,72.4c0.5,0.4,0.9,0.6,1.2,0.6c0.9,0,1.4-1.2,1.6-3.7h1.4c-0.2,3.3-0.2,7.8-0.2,15.7h-1.4
		c-0.6-6-1.6-10-5.8-12.7c-1.7-1.1-3.8-1.9-5.8-1.9c-9.6,0-11.8,11.9-11.8,21.3s2.2,21.3,11.8,21.3c2.1,0,4.1-0.7,5.8-1.9
		c4.2-2.6,5.2-6.8,5.8-13.6h1.4c0,8.2,0.1,12.8,0.2,16.3h-1.4c-0.2-2.6-0.6-3.7-1.5-3.7c-0.3,0-0.8,0.2-1.3,0.5
		c-3.1,2.2-6.2,4.1-11.6,4.1c-14.2,0-23.6-8.4-23.6-22.7c0-14,9.8-23.5,23.7-23.5C279,68.3,282.3,70.2,285.1,72.4z"/>
	<path class="st0" d="M308.5,84.8c2-3.3,5.5-4.7,10-4.7c3.8,0,5.9,1.1,7.1,2.5c1.3,1.5,1.8,3.8,1.8,8.1v17c0,3.5,0.9,4.5,3.5,4.5
		v1.3c-1.7-0.1-5.5-0.2-8.8-0.2c-3.5,0-7.2,0.2-8.9,0.2v-1.3c2.1,0,2.9-1,2.9-4.5V87.4c0-2.6-0.9-4-3.1-4c-2.3,0-4.5,1.9-4.5,4.5
		v19.8c0,3.5,0.8,4.5,2.9,4.5v1.3c-1.6-0.1-5-0.2-8.3-0.2c-3.5,0-7.6,0.2-9.4,0.2v-1.3c2.6,0,3.5-1,3.5-4.5V72
		c0-3.8-0.9-5.5-3.5-5.5v-1.3c1.3,0.1,2.6,0.2,3.9,0.2c4.2,0,7.8-0.2,10.9-0.9V84.8z"/>
	<path class="st0" d="M361.5,86.5c0,3.8-2.3,6.2-5.8,6.2c-3.7,0-5.6-1.8-5.6-4.5c0-2.8,1.3-4.6,3.2-5.8c-0.7,0-1.4,0.1-2,0.4
		c-2.1,0.9-3.7,3.1-3.7,5.6v18.8c0,4,1.6,5.1,5.4,5.1v1.3c-1.9-0.1-6.1-0.2-10.1-0.2c-3.8,0-8.1,0.2-10,0.2v-1.3
		c2.6,0,3.5-1,3.5-4.5V87.8c0-3.8-0.9-5.5-3.5-5.5V81c1.3,0.1,2.6,0.2,3.9,0.2c4.2,0,7.8-0.2,10.9-0.9v4.5c1.7-3.2,4.5-4.7,8.1-4.7
		C360.3,80.1,361.5,83.6,361.5,86.5z"/>
	<path class="st0" d="M377.8,107.8c0,3.5,0.9,4.5,3.5,4.5v1.3c-1.7-0.1-5.4-0.2-8.9-0.2c-3.5,0-7.6,0.2-9.4,0.2v-1.3
		c2.6,0,3.5-1,3.5-4.5V87.8c0-3.8-0.9-5.5-3.5-5.5V81c1.3,0.1,2.6,0.2,3.9,0.2c4.2,0,7.8-0.2,10.9-0.9V107.8z M378.7,69.9
		c0,3.6-2.5,5.4-6.8,5.4c-4.4,0-6.8-1.8-6.8-5.4c0-3.6,2.4-5.4,6.8-5.4C376.1,64.5,378.7,66.3,378.7,69.9z"/>
	<path class="st0" d="M404.8,81.8c0.4,0.2,0.8,0.4,1.1,0.4c0.8,0,1.3-0.6,1.6-2h1.3c-0.2,2.5-0.2,5.6-0.2,11.3h-1.3
		c-0.6-4.6-2.6-9.8-7.7-9.8c-2.1,0-3.7,1.3-3.7,3.5c0,3.8,4,6.1,7.5,9c3.8,3.2,6.8,5.8,6.8,10.6c0,5.7-5.7,9.7-12.6,9.7
		c-3,0-5.1-0.8-6.5-1.6c-1.3-0.7-2.2-1-3.2-1c-0.9,0-1.4,1-1.7,2.2h-1.3c0.2-2.7,0.2-6.2,0.2-12.5h1.3c0.8,6.6,3.7,11.4,8.3,11.4
		c2,0,3.6-1,3.6-3.4c0-3.7-2.5-5.8-5.8-8.8c-3.8-3.5-7.3-6.5-7.3-11.5c0-5.6,5.6-9,11.8-9C400.6,80.1,403.6,81.1,404.8,81.8z"/>
	<path class="st0" d="M434,81.1v1.3h-6.2v26c0,1.6,0.5,2.3,1.9,2.3c0.9,0,2.2-0.5,3.4-1.8l0.9,0.8c-1.7,3-4.6,5-8.9,5
		c-2.8,0-5-0.7-6.5-2.1c-1.8-1.8-2.1-4.4-2.1-8.7V82.3h-4.7v-1.3h4.7v-7.5c4.5,0,8-0.8,11.3-2.8v10.2H434z"/>
	<path class="st0" d="M487.3,107.8c0,3.5,0.9,4.5,3.5,4.5v1.3c-1.7-0.1-5.5-0.2-8.8-0.2c-3.3,0-6.7,0.2-8.3,0.2v-1.3
		c1.7,0,2.3-1,2.3-4.5V87.4c0-2.6-0.9-4-3.1-4c-2.2,0-4.3,2.2-4.6,4.6c0.1,0.8,0.1,1.7,0.1,2.7v17c0,3.5,0.7,4.5,2.9,4.5v1.3
		c-1.6-0.1-5.1-0.2-8.2-0.2c-3.2,0-6.7,0.2-8.3,0.2v-1.3c1.6,0,2.3-1,2.3-4.5V87.4c0-2.6-0.7-4-2.5-4c-2.3,0-4.5,1.9-4.5,4.5v19.8
		c0,3.5,0.6,4.5,2.3,4.5v1.3c-1.4-0.1-4.6-0.2-7.7-0.2c-3.5,0-7.6,0.2-9.4,0.2v-1.3c2.6,0,3.5-1,3.5-4.5V87.8c0-3.8-0.9-5.5-3.5-5.5
		V81c1.3,0.1,2.6,0.2,3.9,0.2c4.2,0,7.8-0.2,10.9-0.9v4.5c1.9-3.3,5.1-4.7,9.3-4.7c3.8,0,5.9,1.1,7.1,2.5c0.6,0.7,1.1,1.7,1.3,2.9
		c2.3-4.2,6-5.5,10.4-5.5c3.8,0,5.9,1.1,7.1,2.5c1.3,1.5,1.8,3.8,1.8,8.1V107.8z"/>
	<path class="st0" d="M518.8,83.3c1.7,1.8,2.1,4.4,2.1,8.8v16.8c0,2,0.3,2.7,0.9,2.7c0.8,0,1.4-0.5,2-0.9l0.6,1.1
		c-2,1.7-4.6,2.3-8.1,2.3c-4.7,0-6.4-2.2-6.5-4.7c-1.7,2.9-5.1,4.7-9,4.7c-5,0-7.9-2.9-7.9-7.2c0-4.3,2.5-7,8-8.9
		c4.9-1.7,8.7-3,8.7-5.8v-5.6c0-1.9-0.6-5.1-4.7-5.1c-1.1,0-2.4,0.5-3.3,1.1c2.7,1,4.2,2.8,4.2,5.7c0,2.9-2.4,5.3-6,5.3
		c-3.1,0-5.1-2.4-5.1-5.5c0-2.6,1.7-4.6,3.9-5.8c2.6-1.3,5.7-2,10-2C512.9,80.1,516.4,80.8,518.8,83.3z M509.5,94.7
		c-0.5,0.9-1.6,1.9-2.5,2.8c-1.9,1.8-3.1,4-3.1,7.1c0,3.3,1.4,4.4,3.2,4.4c0.9,0,1.6-0.2,2.3-1V94.7z"/>
	<path class="st0" d="M547.1,81.8c0.4,0.2,0.8,0.4,1.1,0.4c0.8,0,1.3-0.6,1.6-2h1.3c-0.2,2.5-0.2,5.6-0.2,11.3h-1.3
		c-0.6-4.6-2.6-9.8-7.7-9.8c-2.1,0-3.7,1.3-3.7,3.5c0,3.8,4,6.1,7.5,9c3.8,3.2,6.8,5.8,6.8,10.6c0,5.7-5.7,9.7-12.6,9.7
		c-3,0-5.1-0.8-6.5-1.6c-1.3-0.7-2.2-1-3.2-1c-0.9,0-1.4,1-1.7,2.2h-1.3c0.2-2.7,0.2-6.2,0.2-12.5h1.3c0.8,6.6,3.7,11.4,8.3,11.4
		c2,0,3.6-1,3.6-3.4c0-3.7-2.5-5.8-5.8-8.8c-3.8-3.5-7.3-6.5-7.3-11.5c0-5.6,5.6-9,11.8-9C542.9,80.1,545.9,81.1,547.1,81.8z"/>
</g>
</svg>
