<?xml version="1.0" encoding="utf-8"?>
<!-- Generator: Adobe Illustrator 16.0.0, SVG Export Plug-In . SVG Version: 6.00 Build 0)  -->
<!DOCTYPE svg PUBLIC "-//W3C//DTD SVG 1.1//EN" "http://www.w3.org/Graphics/SVG/1.1/DTD/svg11.dtd">
<svg version="1.1" id="Layer_1" xmlns="http://www.w3.org/2000/svg" xmlns:xlink="http://www.w3.org/1999/xlink" x="0px" y="0px"
	 width="137.658px" height="14.753px" viewBox="0 0 137.658 14.753" enable-background="new 0 0 137.658 14.753"
	 xml:space="preserve">
<g>
	<path fill="#1D1D1B" d="M99.068,4.573h0.966l1.611,4.123h-0.902l-0.387-0.966h-1.675l-0.387,0.966h-0.837L99.068,4.573
		L99.068,4.573z M99.52,5.411L99.52,5.411L98.875,7.15h1.224L99.52,5.411z"/>
	<path fill="#1D1D1B" d="M102.031,4.573h0.902c0.902,0,1.933,0,1.933,1.096c0,0.516-0.322,0.901-0.838,0.966l0,0
		c0.193,0,0.387,0.258,0.451,0.451l0.645,1.61h-0.902l-0.515-1.288c-0.129-0.322-0.193-0.451-0.58-0.451h-0.258v1.739h-0.838V4.573
		L102.031,4.573z M102.869,6.377h0.258c0.387,0,0.901-0.064,0.901-0.579c0-0.516-0.45-0.516-0.901-0.516h-0.258V6.377z"/>
	<polygon fill="#1D1D1B" points="106.477,5.218 105.317,5.218 105.317,4.573 108.538,4.573 108.538,5.218 107.314,5.218 
		107.314,8.761 106.477,8.761 	"/>
	<path fill="#1D1D1B" d="M111.244,5.347c-0.258-0.129-0.58-0.193-0.837-0.193c-0.258,0-0.645,0.129-0.645,0.58
		c0,0.708,1.804,0.387,1.804,1.804c0,0.902-0.709,1.224-1.546,1.224c-0.451,0-0.645-0.064-1.031-0.129l0.064-0.772
		c0.258,0.129,0.645,0.258,0.967,0.258s0.708-0.129,0.708-0.516c0-0.773-1.804-0.451-1.804-1.804c0-0.902,0.709-1.289,1.418-1.289
		c0.386,0,0.708,0.064,0.966,0.129L111.244,5.347z"/>
	<path fill="#1D1D1B" d="M116.914,8.696c-0.322,0.064-0.645,0.129-0.967,0.129c-1.353,0-2.255-0.644-2.255-2.062
		c0-1.417,0.838-2.19,2.255-2.19c0.258,0,0.645,0.064,0.967,0.193l-0.064,0.709c-0.322-0.193-0.58-0.193-0.902-0.193
		c-0.838,0-1.417,0.645-1.417,1.481c0,0.838,0.515,1.482,1.417,1.482c0.322,0,0.709-0.064,0.902-0.193L116.914,8.696z"/>
	<path fill="#1D1D1B" d="M119.297,4.509c1.289,0,2.062,0.902,2.062,2.126c0,1.225-0.709,2.126-2.062,2.126
		c-1.353,0-2.062-0.901-2.062-2.126C117.3,5.411,118.009,4.509,119.297,4.509L119.297,4.509z M119.297,8.182
		c0.838,0,1.16-0.773,1.16-1.482c0-0.708-0.322-1.481-1.16-1.481c-0.837,0-1.159,0.773-1.159,1.481
		C118.138,7.408,118.46,8.182,119.297,8.182z"/>
	<path fill="#1D1D1B" d="M121.874,4.573h0.838v2.384c0,0.709,0.193,1.16,0.838,1.16c0.644,0,0.837-0.451,0.837-1.16V4.573h0.838
		v2.642c0,1.096-0.645,1.546-1.675,1.546c-1.096,0-1.676-0.45-1.676-1.546V4.573z"/>
	<polygon fill="#1D1D1B" points="125.933,4.573 126.964,4.573 128.51,7.666 128.51,7.666 128.51,4.573 129.348,4.573 129.348,8.761 
		128.316,8.761 126.706,5.669 126.706,5.669 126.706,8.761 125.933,8.761 	"/>
	<path fill="#1D1D1B" d="M133.084,8.696c-0.322,0.064-0.645,0.129-0.966,0.129c-1.354,0-2.255-0.644-2.255-2.062
		c0-1.417,0.837-2.19,2.255-2.19c0.258,0,0.644,0.064,0.966,0.193l-0.064,0.709c-0.322-0.193-0.58-0.193-0.901-0.193
		c-0.838,0-1.418,0.645-1.418,1.481c0,0.838,0.516,1.482,1.418,1.482c0.321,0,0.708-0.064,0.901-0.193L133.084,8.696z"/>
	<rect x="133.729" y="4.573" fill="#1D1D1B" width="0.837" height="4.123"/>
	<polygon fill="#1D1D1B" points="135.21,4.573 136.048,4.573 136.048,8.117 137.658,8.117 137.658,8.761 135.21,8.761 	"/>
	<polygon fill="#1D1D1B" points="97.458,10.565 99.905,10.565 99.905,11.209 98.295,11.209 98.295,12.24 99.776,12.24 
		99.776,12.884 98.295,12.884 98.295,14.044 99.905,14.044 99.905,14.688 97.458,14.688 	"/>
	<polygon fill="#1D1D1B" points="100.614,10.565 101.646,10.565 103.191,13.657 103.191,13.657 103.191,10.565 104.028,10.565 
		104.028,14.688 102.998,14.688 101.388,11.596 101.388,11.596 101.388,14.688 100.614,14.688 	"/>
	<path fill="#1D1D1B" d="M108.023,11.338c-0.322-0.129-0.709-0.193-1.096-0.193c-0.966,0-1.481,0.645-1.481,1.482
		c0,0.837,0.516,1.481,1.417,1.481c0.258,0,0.387,0,0.516-0.064v-1.096h-0.902v-0.644h1.676v2.255
		c-0.451,0.129-0.902,0.193-1.354,0.193c-1.353,0-2.255-0.645-2.255-2.062c0-1.418,0.838-2.19,2.255-2.19
		c0.451,0,0.838,0.064,1.225,0.192V11.338z"/>
	<polygon fill="#1D1D1B" points="108.86,10.565 109.698,10.565 109.698,14.044 111.309,14.044 111.309,14.688 108.86,14.688 	"/>
	<path fill="#1D1D1B" d="M113.306,10.565h0.967l1.61,4.123h-0.902l-0.386-0.967h-1.676l-0.386,0.967h-0.838L113.306,10.565
		L113.306,10.565z M113.757,11.338L113.757,11.338l-0.645,1.739h1.225L113.757,11.338z"/>
	<polygon fill="#1D1D1B" points="116.27,10.565 117.3,10.565 118.847,13.657 118.847,13.657 118.847,10.565 119.684,10.565 
		119.684,14.688 118.653,14.688 117.042,11.596 117.042,11.596 117.042,14.688 116.27,14.688 	"/>
	<path fill="#1D1D1B" d="M120.328,10.565h1.159c1.289,0,2.384,0.45,2.384,2.062c0,1.675-1.095,2.062-2.384,2.062h-1.159V10.565
		L120.328,10.565z M121.166,14.044h0.45c0.709,0,1.354-0.516,1.354-1.417c0-0.902-0.645-1.418-1.354-1.418h-0.45V14.044z"/>
	<path fill="#1D1D1B" d="M97.521,2.189c0.129,0.064,0.258,0.064,0.387,0.064c0.258,0,0.58-0.129,0.58-0.515
		c0-0.516-0.838-0.516-0.838-0.902c0-0.258,0.193-0.322,0.387-0.322c0.129,0,0.258,0,0.322,0.064V0.386
		c-0.129-0.064-0.258-0.064-0.387-0.064c-0.322,0-0.579,0.193-0.579,0.451c0,0.451,0.837,0.516,0.837,0.902
		c0,0.257-0.193,0.386-0.387,0.386s-0.322-0.064-0.386-0.129L97.521,2.189L97.521,2.189z M99.905,0.901h-0.193V1.61
		c0,0.193-0.064,0.515-0.386,0.515c-0.258,0-0.322-0.193-0.322-0.386V0.901h-0.193v0.838c0,0.321,0.129,0.515,0.451,0.515
		c0.258,0,0.386-0.129,0.45-0.258l0,0v0.258h0.129c0-0.129,0-0.193,0-0.322v-1.03H99.905z M100.356,2.77h0.193V1.996l0,0
		c0.064,0.193,0.193,0.258,0.387,0.258c0.387,0,0.58-0.322,0.58-0.708c0-0.387-0.129-0.709-0.58-0.709
		c-0.258,0-0.387,0.193-0.451,0.258l0,0V0.837h-0.193V2.77H100.356z M101.323,1.546c0,0.258-0.064,0.579-0.387,0.579
		s-0.387-0.321-0.387-0.579s0.129-0.58,0.387-0.58C101.194,1.03,101.323,1.288,101.323,1.546L101.323,1.546z M101.838,2.77h0.193
		V1.996l0,0c0.064,0.193,0.193,0.258,0.387,0.258c0.387,0,0.516-0.322,0.516-0.708c0-0.387-0.129-0.709-0.516-0.709
		c-0.258,0-0.387,0.193-0.451,0.258l0,0V0.837h-0.192V2.77H101.838z M102.805,1.546c0,0.258-0.064,0.579-0.387,0.579
		s-0.387-0.321-0.387-0.579s0.129-0.58,0.387-0.58C102.74,1.03,102.805,1.288,102.805,1.546L102.805,1.546z M103.256,1.546
		c0,0.386,0.193,0.708,0.645,0.708c0.45,0,0.644-0.322,0.644-0.708c0-0.387-0.193-0.709-0.644-0.709
		C103.449,0.837,103.256,1.224,103.256,1.546L103.256,1.546z M103.449,1.546c0-0.322,0.129-0.58,0.451-0.58
		c0.257,0,0.45,0.258,0.45,0.58s-0.129,0.579-0.45,0.579C103.578,2.125,103.449,1.868,103.449,1.546L103.449,1.546z M104.866,2.254
		h0.193V1.61c0-0.258,0.064-0.516,0.322-0.516c0.064,0,0.064,0,0.129,0V0.901c0,0-0.064,0-0.129,0c-0.193,0-0.258,0.129-0.322,0.258
		l0,0V0.901h-0.193c0,0.064,0,0.129,0,0.322V2.254L104.866,2.254z M106.412,0.901h-0.321V0.515l-0.193,0.064v0.322h-0.258V1.03
		h0.258v0.773c0,0.257,0,0.45,0.322,0.45c0.063,0,0.192,0,0.192-0.064V2.061c-0.064,0-0.064,0-0.129,0
		c-0.128,0-0.192-0.129-0.192-0.192V1.03h0.321V0.901L106.412,0.901z M107.637,1.996c-0.064,0.064-0.258,0.129-0.387,0.129
		c-0.258,0-0.451-0.257-0.451-0.515h0.902V1.546c0-0.387-0.129-0.645-0.516-0.645c-0.322,0-0.58,0.258-0.58,0.709
		c0,0.386,0.193,0.708,0.58,0.708c0.129,0,0.258,0,0.387-0.064V1.996H107.637z M106.799,1.481c0-0.193,0.129-0.451,0.387-0.451
		s0.322,0.258,0.322,0.451H106.799L106.799,1.481z M109.183,0.257h-0.193v0.838l0,0c0-0.064-0.129-0.258-0.387-0.258
		c-0.386,0-0.579,0.322-0.579,0.709c0,0.386,0.193,0.708,0.579,0.708c0.193,0,0.322-0.064,0.387-0.258l0,0v0.193h0.193V0.257
		L109.183,0.257z M108.217,1.546c0-0.258,0.064-0.58,0.386-0.58c0.322,0,0.387,0.322,0.387,0.58s-0.129,0.579-0.387,0.579
		C108.281,2.125,108.217,1.804,108.217,1.546L108.217,1.546z M111.115,0.901h-0.193V1.61c0,0.193-0.064,0.515-0.386,0.515
		c-0.258,0-0.322-0.193-0.322-0.386V0.901h-0.193v0.838c0,0.321,0.129,0.515,0.451,0.515c0.257,0,0.386-0.129,0.45-0.258l0,0v0.258
		h0.129c0-0.129,0-0.193,0-0.322v-1.03H111.115z M111.438,2.189c0.129,0.064,0.258,0.064,0.387,0.064
		c0.193,0,0.451-0.129,0.451-0.386c0-0.451-0.645-0.387-0.645-0.645c0-0.193,0.129-0.193,0.258-0.193c0.064,0,0.193,0,0.322,0.064
		V0.966c-0.129-0.064-0.258-0.064-0.322-0.064c-0.193,0-0.451,0.129-0.451,0.387c0,0.387,0.645,0.322,0.645,0.644
		c0,0.129-0.129,0.258-0.322,0.258c-0.129,0-0.258-0.064-0.322-0.064V2.189L111.438,2.189z M112.598,2.254h0.192V0.901h-0.192V2.254
		L112.598,2.254z M112.726,0.321h-0.192v0.193h0.192V0.321L112.726,0.321z M113.177,2.254h0.193V1.546
		c0-0.193,0.064-0.516,0.387-0.516c0.258,0,0.322,0.193,0.322,0.387v0.837h0.193V1.417c0-0.322-0.129-0.516-0.451-0.516
		c-0.258,0-0.387,0.129-0.451,0.258l0,0V0.901h-0.193c0,0.129,0,0.193,0,0.322V2.254L113.177,2.254z M114.788,1.546
		c0-0.258,0.064-0.58,0.386-0.58c0.322,0,0.387,0.258,0.387,0.58c0,0.258-0.129,0.515-0.387,0.515
		C114.917,2.061,114.788,1.804,114.788,1.546L114.788,1.546z M115.754,0.901h-0.193V1.03l0,0c-0.129-0.129-0.258-0.193-0.387-0.193
		c-0.386,0-0.579,0.322-0.579,0.709c0,0.322,0.129,0.644,0.579,0.644c0.193,0,0.322-0.064,0.387-0.258l0,0
		c0,0.387-0.064,0.709-0.451,0.709c-0.129,0-0.321-0.064-0.386-0.064V2.77c0.064,0,0.257,0.064,0.386,0.064
		c0.451,0,0.645-0.322,0.645-0.645V0.901L115.754,0.901z M116.656,2.77h0.193V1.996l0,0c0.064,0.193,0.192,0.258,0.386,0.258
		c0.387,0,0.516-0.322,0.516-0.708c0-0.387-0.129-0.709-0.516-0.709c-0.257,0-0.386,0.193-0.45,0.258l0,0V0.837h-0.193V2.77H116.656
		z M117.558,1.546c0,0.258-0.064,0.579-0.387,0.579c-0.321,0-0.386-0.321-0.386-0.579s0.129-0.58,0.386-0.58
		C117.493,1.03,117.558,1.288,117.558,1.546L117.558,1.546z M119.169,0.901h-0.193V1.61c0,0.193-0.064,0.515-0.387,0.515
		c-0.258,0-0.322-0.193-0.322-0.386V0.901h-0.193v0.838c0,0.321,0.129,0.515,0.451,0.515c0.258,0,0.387-0.129,0.451-0.258l0,0v0.258
		h0.129c0-0.129,0-0.193,0-0.322v-1.03H119.169z M119.619,2.254h0.193V2.061l0,0c0.064,0.193,0.193,0.258,0.387,0.258
		c0.387,0,0.58-0.322,0.58-0.708c0-0.387-0.129-0.709-0.58-0.709c-0.258,0-0.387,0.193-0.387,0.258l0,0V0.321h-0.193V2.254
		L119.619,2.254z M120.586,1.546c0,0.258-0.064,0.579-0.387,0.579s-0.387-0.321-0.387-0.579s0.064-0.58,0.387-0.58
		C120.457,1.03,120.586,1.288,120.586,1.546L120.586,1.546z M121.102,2.254h0.193V0.321h-0.193V2.254L121.102,2.254z M121.745,2.254
		h0.193V0.901h-0.193V2.254L121.745,2.254z M121.874,0.321h-0.193v0.193h0.193V0.321L121.874,0.321z M123.228,0.901
		c-0.064,0-0.193-0.064-0.322-0.064c-0.387,0-0.645,0.258-0.645,0.709c0,0.386,0.193,0.708,0.645,0.708c0.129,0,0.258,0,0.322-0.064
		V2.061c-0.129,0.064-0.193,0.064-0.322,0.064c-0.322,0-0.451-0.257-0.451-0.579s0.193-0.58,0.516-0.58c0.064,0,0.193,0,0.258,0.064
		V0.901L123.228,0.901z M124.129,2.254h0.193V1.095h0.322V0.966h-0.322V0.837c0-0.129,0-0.387,0.193-0.387c0.064,0,0.129,0,0.129,0
		V0.321c-0.064,0-0.129,0-0.129,0c-0.322,0-0.322,0.258-0.322,0.58v0.064h-0.258v0.129h0.258v1.159H124.129z M125.933,0.901h-0.192
		V1.61c0,0.193-0.129,0.515-0.387,0.515s-0.322-0.193-0.322-0.386V0.901h-0.193v0.838c0,0.321,0.129,0.515,0.451,0.515
		c0.258,0,0.387-0.129,0.451-0.258l0,0v0.258h0.128c0-0.129,0-0.193,0-0.322v-1.03H125.933z M126.384,2.254h0.193V1.546
		c0-0.193,0.129-0.516,0.387-0.516s0.322,0.193,0.322,0.387v0.837h0.193V1.417c0-0.322-0.129-0.516-0.451-0.516
		c-0.258,0-0.387,0.129-0.451,0.258l0,0V0.901h-0.129c0,0.129,0,0.193,0,0.322v1.03H126.384z M128.961,0.257h-0.193v0.838l0,0
		c0-0.064-0.129-0.258-0.387-0.258c-0.386,0-0.579,0.322-0.579,0.709c0,0.386,0.193,0.708,0.579,0.708
		c0.193,0,0.322-0.064,0.387-0.258l0,0v0.193h0.193V0.257L128.961,0.257z M127.995,1.546c0-0.258,0.063-0.58,0.386-0.58
		s0.387,0.322,0.387,0.58s-0.129,0.579-0.387,0.579C128.059,2.125,127.995,1.804,127.995,1.546L127.995,1.546z M129.348,2.254h0.193
		V0.901h-0.193V2.254L129.348,2.254z M129.541,0.321h-0.193v0.193h0.193V0.321L129.541,0.321z M129.992,2.254h0.192V1.546
		c0-0.193,0.064-0.516,0.387-0.516c0.258,0,0.322,0.193,0.322,0.387v0.837h0.193V1.417c0-0.322-0.129-0.516-0.451-0.516
		c-0.258,0-0.387,0.129-0.451,0.258l0,0V0.901h-0.257c0,0.129,0,0.193,0,0.322v1.03H129.992z M131.538,1.546
		c0-0.258,0.064-0.58,0.387-0.58s0.386,0.258,0.386,0.58c0,0.258-0.128,0.515-0.386,0.515S131.538,1.804,131.538,1.546
		L131.538,1.546z M132.504,0.901h-0.192V1.03l0,0c-0.129-0.129-0.258-0.193-0.387-0.193c-0.387,0-0.58,0.322-0.58,0.709
		c0,0.322,0.129,0.644,0.58,0.644c0.193,0,0.322-0.064,0.387-0.258l0,0c0,0.387-0.064,0.709-0.451,0.709
		c-0.129,0-0.322-0.064-0.387-0.064V2.77c0.064,0,0.258,0.064,0.387,0.064c0.451,0,0.644-0.322,0.644-0.645V0.901L132.504,0.901z
		 M133.406,2.254h0.193V2.061l0,0c0.064,0.193,0.193,0.258,0.387,0.258c0.387,0,0.579-0.322,0.579-0.708
		c0-0.387-0.128-0.709-0.579-0.709c-0.258,0-0.387,0.193-0.387,0.258l0,0V0.321h-0.193V2.254L133.406,2.254z M134.373,1.546
		c0,0.258-0.064,0.579-0.387,0.579S133.6,1.804,133.6,1.546s0.064-0.58,0.387-0.58C134.244,1.03,134.373,1.288,134.373,1.546
		L134.373,1.546z M134.888,0.901h-0.193l0.451,1.353l-0.064,0.129c-0.064,0.193-0.129,0.258-0.258,0.258c-0.064,0-0.064,0-0.129,0
		V2.77c0.064,0,0.129,0,0.193,0c0.193,0,0.258-0.193,0.322-0.387l0.516-1.546h-0.193l-0.387,1.095l0,0L134.888,0.901z"/>
	<path fill="#1D1D1B" d="M75.94,7.473v0.451L75.167,7.73l0,0L75.94,7.473L75.94,7.473z M76.648,7.279V6.828L74.78,7.473v0.451
		l1.868,0.58V8.053l-0.451-0.129v-0.58L76.648,7.279z"/>
	<path fill="#1D1D1B" d="M75.36,5.411l0.064-0.129c0.064-0.193,0.258-0.193,0.322-0.193c0.129,0.064,0.193,0.129,0.129,0.322
		L75.812,5.54L75.36,5.411L75.36,5.411z M76.713,6.312l0.129-0.386l-0.708-0.258c0.063-0.129,0.063-0.193,0.321-0.193h0.516
		L77.1,5.024h-0.645c-0.258,0-0.321,0-0.386,0.129l0,0c0.064-0.387-0.258-0.451-0.322-0.516c-0.322-0.129-0.516,0.129-0.645,0.387
		l-0.193,0.645L76.713,6.312z"/>
	<polygon fill="#1D1D1B" points="77.486,4.509 77.744,4.123 76.455,3.221 76.713,2.898 76.455,2.705 75.747,3.736 76.005,3.93 
		76.262,3.607 	"/>
	<path fill="#1D1D1B" d="M77.873,1.481c-0.129,0.064-0.258,0.129-0.387,0.258c-0.451,0.386-0.193,0.772-0.129,0.837
		c0.451,0.516,0.902-0.064,1.095,0.193c0.129,0.129,0.064,0.258-0.064,0.322c-0.128,0.129-0.257,0.129-0.386,0.193l0.193,0.322
		c0.064-0.064,0.257-0.129,0.45-0.258c0.258-0.258,0.387-0.58,0.129-0.838c-0.45-0.516-0.901,0.064-1.095-0.193
		c-0.064-0.129-0.064-0.193,0.064-0.322c0.064-0.064,0.258-0.128,0.322-0.192L77.873,1.481z"/>
	<path fill="#1D1D1B" d="M81.223,0.129c-0.064,0-0.193-0.064-0.516,0c-0.386,0.064-0.772,0.45-0.579,1.095
		c0.129,0.58,0.579,0.837,1.03,0.772c0.258-0.064,0.387-0.128,0.451-0.192L81.48,1.417c-0.064,0-0.129,0.129-0.322,0.193
		c-0.258,0.064-0.516-0.129-0.644-0.451c-0.064-0.387,0.063-0.645,0.321-0.709c0.193-0.064,0.322,0,0.387,0V0.129z"/>
	<path fill="#1D1D1B" d="M82.641,0.966c0.064-0.322,0.192-0.645,0.386-0.58c0.258,0,0.322,0.322,0.258,0.709
		s-0.193,0.645-0.451,0.58C82.641,1.61,82.576,1.288,82.641,0.966L82.641,0.966z M82.189,0.901c-0.064,0.516,0.129,0.967,0.644,1.03
		c0.516,0.064,0.838-0.321,0.902-0.837s-0.129-0.966-0.645-1.03C82.576,0,82.254,0.386,82.189,0.901z"/>
	<path fill="#1D1D1B" d="M84.38,1.546c-0.193,0.386-0.064,0.772,0.258,0.966c0.386,0.193,0.708,0.064,0.901-0.322l0.516-1.03
		l-0.387-0.193l-0.58,1.095c-0.064,0.193-0.193,0.258-0.321,0.129c-0.129-0.064-0.193-0.193-0.064-0.386l0.579-1.096l-0.387-0.193
		L84.38,1.546z"/>
	<polygon fill="#1D1D1B" points="85.732,3.092 85.99,3.35 86.956,2.447 86.956,2.447 86.377,3.736 86.763,4.123 88.052,2.834 
		87.794,2.512 86.892,3.414 86.892,3.414 87.407,2.125 87.085,1.804 	"/>
	<path fill="#1D1D1B" d="M89.146,4.896c0-0.064,0-0.258-0.129-0.451c-0.193-0.321-0.579-0.644-1.224-0.321
		c-0.516,0.257-0.709,0.772-0.516,1.224c0.129,0.193,0.193,0.322,0.258,0.387l0.322-0.193c-0.064,0-0.129-0.129-0.258-0.322
		c-0.129-0.258,0-0.516,0.322-0.709s0.645-0.129,0.773,0.193c0.064,0.193,0.064,0.322,0.064,0.387L89.146,4.896z"/>
	<polygon fill="#1D1D1B" points="87.665,6.312 87.729,6.699 89.598,6.377 89.533,5.991 	"/>
	<polygon fill="#1D1D1B" points="87.794,7.408 87.729,8.439 88.052,8.439 88.116,7.859 89.598,7.988 89.662,7.537 	"/>
	<polygon fill="#1D1D1B" points="76.455,11.725 76.971,12.369 77.1,12.24 76.648,11.789 77.229,11.273 77.615,11.725 77.744,11.66 
		77.357,11.209 77.873,10.758 78.26,11.273 78.388,11.145 77.873,10.565 	"/>
	<polygon fill="#1D1D1B" points="77.744,13.142 77.873,13.206 78.839,11.854 78.839,11.854 78.517,13.657 78.71,13.786 
		79.741,12.24 79.612,12.111 78.71,13.528 78.71,13.528 78.968,11.725 78.774,11.596 	"/>
	<path fill="#1D1D1B" d="M80.643,13.593l0.322,0.064l-0.193,0.645c-0.064,0-0.193,0-0.257,0c-0.451-0.129-0.516-0.645-0.387-0.967
		c0.193-0.579,0.579-0.644,0.837-0.579c0.129,0.064,0.258,0.129,0.322,0.192l0.064-0.192c-0.064-0.064-0.193-0.129-0.322-0.193
		c-0.515-0.129-0.901,0.193-1.03,0.644c-0.129,0.322-0.129,0.967,0.515,1.16c0.129,0.064,0.322,0.064,0.451,0l0.258-0.902
		l-0.451-0.129L80.643,13.593z"/>
	<polygon fill="#1D1D1B" points="81.996,14.624 82.769,14.624 82.769,14.495 82.125,14.495 82.125,12.756 81.996,12.756 	"/>
	<path fill="#1D1D1B" d="M83.735,12.756L83.735,12.756l0.58,0.901l-0.645,0.193L83.735,12.756L83.735,12.756z M83.542,14.56
		l0.129-0.064v-0.516l0.709-0.193l0.322,0.451l0.192-0.064l-1.095-1.61l-0.193,0.064L83.542,14.56z"/>
	<polygon fill="#1D1D1B" points="85.668,13.786 85.797,13.657 84.895,12.305 84.895,12.305 86.441,13.271 86.634,13.142 
		85.604,11.596 85.475,11.66 86.377,13.077 86.377,13.077 84.831,12.111 84.638,12.176 	"/>
	<path fill="#1D1D1B" d="M86.312,11.08l0.064-0.129c0.386-0.515,0.772-0.258,1.03-0.064c0.387,0.258,0.451,0.645,0.193,0.967
		l-0.129,0.129L86.312,11.08L86.312,11.08z M87.536,12.24l0.193-0.193c0.387-0.451,0.193-0.967-0.193-1.289
		c-0.451-0.386-0.902-0.321-1.288,0.193l-0.129,0.193L87.536,12.24z"/>
	<rect x="93.463" fill="#1D1D1B" width="0.193" height="14.688"/>
</g>
<g>
	<path fill="#1D1D1B" d="M5.847,8.89L5.847,8.89c0-0.064,0.129-0.193,0.451-0.064l0,0C6.233,8.761,6.233,8.632,6.233,8.567
		c0.064,0,0.064,0,0,0S6.04,8.632,5.911,8.632c0,0-0.064,0,0,0C5.847,8.696,5.847,8.825,5.847,8.89z"/>
	<path fill="#1D1D1B" d="M6.426,9.341c0.064-0.129,0.387-0.129,0.58-0.064l0,0C6.812,8.954,6.941,8.825,6.941,8.825
		c0.064,0,0.064,0,0,0c0,0-0.258,0-0.451,0.064H6.426c0,0,0,0,0.064,0C6.362,8.954,6.298,9.212,6.426,9.341L6.426,9.341z"/>
	<path fill="#1D1D1B" d="M6.49,8.825L6.49,8.825c0.064-0.064,0.193-0.129,0.451-0.064l0,0C6.877,8.696,6.812,8.504,6.877,8.439l0,0
		l0,0c-0.129,0-0.258,0.064-0.387,0.064c0,0-0.064,0,0,0C6.426,8.567,6.426,8.761,6.49,8.825z"/>
	<path fill="#1D1D1B" d="M7.135,8.825C6.941,9.019,7.07,9.212,7.07,9.212s0.064-0.129,0.322-0.064
		C7.328,9.276,7.199,9.341,7.199,9.341c-0.129,0.129,0,0.387,0,0.387s0.516-0.064,0.58-0.064s0.064,0-0.064,0
		C7.65,9.599,7.521,9.212,7.586,9.019L7.65,8.954l0,0c0,0.064-0.064,0.064-0.129,0.129c-0.064-0.129,0-0.258,0-0.322
		c0.064,0,0,0,0,0C7.328,8.761,7.135,8.825,7.135,8.825S7.07,8.825,7.135,8.825z"/>
	<path fill="#1D1D1B" d="M5.202,9.534c0.064-0.064,0.193,0,0.322,0.064l0,0c0.064-0.193,0.064-0.322,0.193-0.451
		c0,0.064,0,0.129,0,0.129l0,0c0-0.064,0.129-0.193,0.516-0.064c-0.193,0-0.322,0.064-0.516,0.064c-0.064,0-0.064,0,0,0
		c-0.193,0.129-0.129,0.258,0,0.387c0.064-0.064,0.258-0.129,0.58,0.064l0,0c-0.064-0.193-0.129-0.451,0-0.516c0.064,0,0.064,0,0,0
		l0,0c-0.064-0.193-0.129-0.258,0-0.387h0.064l0,0c-0.129,0-0.322,0.064-0.451,0.064c-0.064,0-0.064,0,0,0
		C5.847,8.954,5.847,9.019,5.782,9.083C5.46,9.341,5.202,9.47,5.202,9.534C5.138,9.534,5.138,9.534,5.202,9.534z"/>
	<path fill="#1D1D1B" d="M7.006,8.632c0.064-0.064,0.129,0.064,0.193,0v0.129l0,0c0,0,0-0.193,0-0.321c0-0.064,0,0,0,0
		c-0.064,0.064-0.193-0.064-0.258,0C7.07,8.567,7.006,8.567,7.006,8.632z"/>
	<path fill="#1D1D1B" d="M5.202,9.341L5.202,9.341C5.202,9.276,5.202,9.276,5.202,9.341z"/>
	<path fill="#1D1D1B" d="M5.782,4.702c0.064-0.193,0.451,0,0.58,0.064C6.298,4.96,6.49,5.024,6.49,5.024l0,0l0,0l0,0l0,0
		c0,0,0.258,0,0.129-0.258c0.129-0.129,0.516-0.258,0.58-0.064S6.941,5.024,6.684,4.96C6.877,5.024,7.006,5.024,7.07,5.024
		c0.064,0.129-0.129,0.322-0.451,0c0,0,0,0.064,0,0.129c0,0-0.129,0.064-0.192,0.064l0,0c-0.064,0-0.193,0-0.193-0.064
		s0-0.064,0-0.129c-0.322,0.322-0.516,0.129-0.451,0C5.911,5.089,6.04,5.089,6.169,4.96C6.04,4.96,5.718,4.831,5.782,4.702
		L5.782,4.702z M6.49,5.411c0,0,0.258,0,0.193-0.193c-0.064,0-0.129,0.064-0.193,0.064c0,0,0,0-0.064,0
		c-0.063,0-0.128,0-0.192-0.064C6.233,5.476,6.49,5.411,6.49,5.411L6.49,5.411z M6.233,5.024c-0.129,0.258,0,0.516,0.257,0.516
		c0.258,0,0.322-0.258,0.258-0.516c0.258,0.322,0.58,0.064,0.451-0.129c0.193-0.064,0.258-0.322,0-0.387S6.748,4.573,6.684,4.638
		c0,0,0,0,0-0.064c0.064,0,0-0.129,0-0.129S6.748,4.38,6.748,4.315V4.187c0,0-0.064,0.129,0,0.129c0,0.064-0.064,0.064-0.064,0.129
		H6.619c0-0.064-0.064-0.064-0.064-0.064l0,0l0,0l0,0L6.49,4.444H6.426c0,0,0-0.064-0.063-0.129V4.187v0.129
		c0,0.064,0.063,0.129,0.063,0.129c-0.063,0-0.063,0.129,0,0.129c0,0,0,0,0,0.064C6.362,4.573,6.104,4.444,5.911,4.509
		s-0.193,0.322,0,0.387C5.718,5.153,5.976,5.411,6.233,5.024z"/>
	<path fill="#1D1D1B" d="M5.073,14.237c0,0-0.064,0-0.129,0H4.88l0,0v-0.064l0,0c0.064,0,0.064-0.064,0.064-0.064
		c0.064-0.064,0.064-0.129,0.064-0.129s0.064,0.064,0.064,0.129S5.073,14.237,5.073,14.237L5.073,14.237z M4.944,14.431
		c0.064-0.064,0.129-0.064,0.129-0.129c0,0-0.064-0.064-0.129-0.064s-0.064,0-0.064-0.064c0,0,0,0,0,0.064H4.815
		c0,0.064,0.064,0.064,0,0.129c0,0.064,0,0.129,0,0.129C4.815,14.56,4.88,14.495,4.944,14.431L4.944,14.431z M4.751,14.108
		L4.751,14.108c0.064,0,0.064-0.064,0.064-0.064c0.064-0.064,0.064-0.064,0.064-0.129c0,0-0.064-0.064-0.129-0.064
		s-0.129,0-0.129,0.064c0,0,0,0.064,0.064,0.129C4.687,14.044,4.687,14.044,4.751,14.108C4.687,14.108,4.687,14.108,4.751,14.108
		L4.751,14.108z M4.687,14.366c0,0.064,0,0.129,0,0.129s-0.064,0-0.129-0.064s-0.129-0.064-0.129-0.129c0,0,0-0.064,0.129-0.064
		c0,0,0.064,0,0.064-0.064c0,0,0,0,0,0.064h0.064C4.687,14.302,4.687,14.366,4.687,14.366L4.687,14.366z M4.429,14.108
		c0-0.064,0.064-0.129,0.064-0.129s0.064,0,0.064,0.129l0.064,0.064l-0.064,0.064l0,0c-0.064,0-0.064,0-0.129,0
		c-0.064,0.064-0.129,0.064-0.129,0C4.364,14.237,4.364,14.173,4.429,14.108L4.429,14.108z M5.202,14.237L5.202,14.237
		c0.064-0.064,0-0.129,0-0.258c-0.064-0.129-0.064-0.193-0.129-0.193c0-0.064,0-0.129,0-0.129s-0.064,0-0.129,0.064
		c-0.064-0.064-0.129-0.064-0.258-0.064s-0.193,0-0.258,0.064C4.364,13.657,4.3,13.657,4.3,13.657s0,0.064,0,0.129
		c-0.064,0-0.129,0.129-0.129,0.193c-0.063,0.129-0.063,0.193,0,0.258c-0.063,0-0.063,0.064-0.063,0.064s0.063,0,0.128,0
		c0,0.064,0.064,0.129,0.129,0.193c0.129,0.064,0.193,0.129,0.258,0.064l0,0l0,0c0,0.064,0.064,0.129,0.064,0.129
		s0.064-0.064,0.064-0.129c0.064,0,0.129,0,0.258-0.064c0.064,0,0.193-0.129,0.129-0.193c0.064,0,0.129,0,0.129,0
		S5.267,14.302,5.202,14.237z"/>
	<path fill="#1D1D1B" d="M8.553,14.237c0,0-0.064,0-0.129,0c0,0-0.064,0-0.129,0l0,0c0,0,0-0.064-0.064-0.064
		c0.064,0,0.064-0.064,0.064-0.064c0.064-0.064,0.064-0.129,0.064-0.129s0.064,0.064,0.064,0.129
		C8.616,14.173,8.616,14.237,8.553,14.237L8.553,14.237z M8.424,14.431c0.064-0.064,0.129-0.064,0.129-0.129
		c0,0,0-0.064-0.129-0.064c0,0-0.064,0-0.064-0.064c0,0,0,0,0,0.064H8.295c0,0.064,0.064,0.064,0.064,0.129s0,0.129,0,0.129
		C8.295,14.56,8.359,14.495,8.424,14.431L8.424,14.431z M8.166,14.108C8.23,14.108,8.23,14.108,8.166,14.108
		c0.064,0,0.064,0,0.129,0c0-0.064,0-0.064,0-0.064c0.064-0.064,0.064-0.064,0.064-0.129c0,0-0.064-0.064-0.129-0.064
		s-0.129,0-0.129,0.064c0,0,0,0.064,0.064,0.129C8.166,14.044,8.166,14.044,8.166,14.108L8.166,14.108z M8.23,14.366
		c0,0.064,0,0.129,0,0.129s-0.064,0-0.129-0.064s-0.129-0.064-0.129-0.129c0,0,0.064-0.064,0.129-0.064c0,0,0.064,0,0.064-0.064
		c0,0,0,0,0,0.064H8.23C8.23,14.302,8.23,14.366,8.23,14.366L8.23,14.366z M7.908,14.108c0-0.064,0.064-0.129,0.064-0.129
		s0.064,0,0.064,0.129l0.064,0.064l0,0v0.064l0,0H8.037c-0.064,0.064-0.129,0.064-0.129,0C7.908,14.237,7.908,14.173,7.908,14.108
		L7.908,14.108z M8.681,14.302c0-0.064,0-0.129,0-0.258c0-0.064-0.064-0.193-0.129-0.193c0.064-0.064,0-0.129,0-0.129
		s-0.063,0-0.128,0.064c-0.064-0.064-0.129-0.064-0.258-0.064c-0.064,0-0.193,0-0.258,0.064c-0.064-0.064-0.129-0.064-0.129-0.064
		s0,0.064,0,0.129c-0.064,0-0.129,0.064-0.129,0.193c0,0.064-0.064,0.193,0,0.258l0,0c-0.064,0-0.064,0.064-0.064,0.064
		s0.064,0,0.129,0c0,0.064,0.129,0.193,0.129,0.193c0.064,0.064,0.129,0.129,0.193,0.064c0,0.064,0.064,0.129,0.064,0.129
		s0.064-0.064,0.064-0.129l0,0l0,0c0.064,0,0.129,0,0.258-0.064c0.064-0.064,0.128-0.129,0.128-0.193c0.064,0,0.129,0,0.129,0
		S8.745,14.302,8.681,14.302z"/>
	<path fill="#1D1D1B" d="M8.81,13.335c0.064,0.064,0.129,0,0.129-0.064c0.064-0.064,0-0.129-0.064-0.129
		c-0.064-0.064-0.129,0-0.129,0.064C8.745,13.206,8.745,13.271,8.81,13.335L8.81,13.335z M8.874,3.93
		C8.938,3.93,8.938,3.93,8.874,3.93C8.81,3.994,8.681,4.123,8.745,4.251c0,0.064,0.322,0.193,0.516,0.193
		c0.064-0.258,0.258-0.386,0.58-0.321C9.519,4.38,9.97,4.767,9.97,5.153c0.064,0.387-0.193,0.773-0.709,0.773
		c-0.322,0-0.709-0.258-0.966-0.387c0.064,0.129,0.064,0.322,0.064,0.322s0.129-0.064,0.321,0c-0.129,0.064-0.129,0.45-0.579,0.644
		C8.23,6.635,8.424,6.957,8.166,7.279l0,0c0,0-0.129,0.258,0.064,0.58c-0.193,0-0.322-0.193-0.322-0.193s-0.129,0.064-0.58,0
		C7.586,7.537,7.65,7.344,7.65,7.344S7.521,7.215,7.586,7.021C7.844,7.15,8.102,6.957,8.102,6.957
		C7.973,6.635,7.586,6.635,7.393,6.635c0,0.064,0,0.129,0,0.193l0,0C7.328,7.15,7.199,7.408,7.199,7.537S7.264,7.73,7.328,7.73
		c0.193,0,0.258,0.258,0.322,0.387h0.064c0.064,0,0.193-0.064,0.258-0.064C8.23,8.182,8.359,8.117,8.681,8.311
		c0.129,0,0.129,0,0.129,0s0.064-0.322,0.129-0.387c-0.129,0.064-0.193,0-0.193-0.064c0.258-0.193,0.322-0.58,0.516-0.709
		c-0.064,0-0.193,0-0.258,0c0.064-0.193,0.258-0.322,0.258-0.322S9.196,6.764,9.196,6.635C9.39,6.699,9.519,6.699,9.519,6.699
		s-0.064-0.193,0-0.258s0.258,0.193,0.258,0.193S9.712,6.12,9.712,6.056c0.064,0,0.129,0,0.193,0v0.129c0.064,0,0.193,0,0.193,0
		V6.056c0.064,0,0.129,0,0.193,0.064v0.128c0.129,0,0.193,0.064,0.193,0.064l0.064-0.128c0.064,0,0.129,0.064,0.192,0.064
		l-0.063,0.128l0.128,0.064l0.064-0.129C10.936,6.377,11,6.377,11.064,6.441c-0.129,0.193-0.322,0.387-0.322,0.516
		c0.129-0.064,0.322,0,0.322,0c0,0.129-0.129,0.258-0.129,0.258s0,0.064,0.193,0.064C11.193,7.408,11,7.473,11,7.473
		s0.129,0.129,0.258,0.129C11.193,7.666,11.129,7.666,11,7.666c0.193,0.258,0,0.645,0.129,0.773c-0.129,0-0.193-0.064-0.193-0.064
		c-0.064,0.257,0,0.515,0.193,0.644c-0.193,0-0.258,0-0.387-0.064c-0.192,0.258-0.257,0.773,0.064,1.096
		c0.387,0.387,0.322,0.644,0.451,0.901c0.064,0.193,0.258,0.387,0.451,0.322s0.193-0.387,0.064-0.451s-0.258,0.064-0.193,0.193
		c-0.258-0.064-0.258-0.45,0-0.515c-0.322-0.064-0.387-0.322-0.322-0.387c-0.129-0.064-0.258-0.322,0-0.451
		c0,0.258,0.258,0.322,0.387,0.322c-0.064-0.064-0.773-0.902-0.064-1.418c0.064-0.579,0.709-0.192,0.902-0.579
		c0.064,0.064,0.064,0.129,0,0.258c0.064,0.064,0.322,0,0.451-0.193c0.063,0.322-0.129,0.579-0.451,0.515
		c0.258,0.129,0.129,0.58-0.193,0.58c0.129-0.387-0.258-0.516-0.516-0.451c-0.58,0.193-0.193,0.902,0.129,1.225
		c0.773,0.837,0.258,1.353,0.064,1.417c0.193,0.258,0,0.516-0.129,0.58c0.129-0.387-0.58-0.451-0.709-0.773
		c0,0.193-0.129,0.516-0.129,0.773s0.064,0.322,0.193,0.451c0.064,0.064,0.129,0.129,0.258,0.258c-0.129,0.129-0.258,0-0.258,0
		s0,0.064,0.193,0.193c-0.258,0.128-0.322,0-0.387,0c-0.129,0.128-0.258,0.257-0.386,0.45c-0.193,0.064-0.258-0.064-0.258-0.064
		s-0.064,0.064-0.064,0.129c0-0.064-0.064-0.129,0-0.129c-0.064,0-0.064,0-0.129-0.064c-0.064,0-0.064,0.064-0.064,0.129
		c0-0.129,0-0.193,0-0.193l-0.064-0.064c0,0-0.064,0-0.129,0.064c0-0.064,0.064-0.129,0.064-0.129
		c-0.064-0.064,0.129-0.386,0.387-0.192c0.193,0,0.321-0.129,0.321-0.129c0.064-0.064,0.064-0.193,0.064-0.258
		c0-0.129-0.257-0.451-0.321-0.58c-0.129-0.129-0.129-0.516-0.064-0.773c-0.645,0.129-0.773,0.645-0.258,1.096
		c-0.129,0-0.258,0-0.258,0s0,0.193,0.129,0.193c-0.193,0.064-0.387,0-0.387,0s-0.193,0-0.451,0.258
		c-0.193,0.064-0.258-0.064-0.322-0.064s-0.064,0.064-0.064,0.064c0-0.064,0-0.129,0-0.129c-0.064,0-0.064,0-0.064-0.064
		c-0.064,0-0.064,0-0.129,0.064c0-0.064,0-0.064,0-0.129c-0.064,0-0.064-0.064-0.064-0.064s-0.063,0-0.128,0.064
		c0-0.064,0-0.129,0.064-0.129c-0.064-0.064,0-0.258,0.128-0.193c0,0,0.064,0,0.129,0.064c0.064,0,0.129,0,0.129,0
		s0.258,0,0.516-0.193c0.129-0.064,0.129-0.258,0.064-0.387c-0.064-0.193-0.322-0.387-0.258-0.645
		c0.064-0.257,0.129-0.45,0.322-0.515c0,0,0.064,0,0.064-0.064c0.129-0.064,0.322-0.064,0.58,0l0,0l0,0c0.064,0,0.064,0,0.129,0
		c-0.129-0.129-0.645-0.322-0.773-0.516C9.261,9.792,9.003,9.856,9.003,9.985c-0.064,0.064-0.064,0.193-0.129,0.258
		c0,0.064,0,0.064-0.064,0.129l0.064,0.064c-0.064,0.064-0.129,0-0.129,0l0,0c0,0,0,0-0.064,0c0,0,0,0.064-0.064,0.064v0.386
		c0,0.516-0.321,0.967-0.772,1.418c-0.064,0-0.193,0-0.322,0c0.064-0.064,0.064-0.064,0.129-0.129
		c-0.387-0.516-1.031-1.354-1.481-1.933c-0.193,0-0.387,0-0.58,0c0.451,0.515,1.353,1.61,1.739,2.126
		c-0.129,0.064-0.129,0.193-0.129,0.258l0,0l0,0c0.064-0.064,0.129-0.129,0.193-0.193c1.159-0.58,2.835,1.288,3.543,1.159
		c0.129-0.064,0.129-0.258,0.129-0.322c0-0.129,0.322-0.258,0.902,0c0,0-0.322,0.451-0.387,0.902v0.064c0,0-0.193-0.129-0.516-0.193
		c0-0.129,0.064-0.387,0.064-0.387c-0.193,0.258-0.258,0.645-0.322,0.709c0,0.064-0.129,0.129-0.45,0.064
		c-0.516-0.129-1.676-1.096-2.448-1.225c-0.193,0-0.387,0-0.451,0.193c0.064-0.064,0.322-0.129,0.387-0.064s0.129,0.129,0.064,0.258
		c-0.064,0.193-0.193,0.516-0.193,0.645c0,0.258-0.58,0.322-0.967,0.322s-0.966-0.064-0.966-0.322c0-0.064-0.129-0.451-0.193-0.645
		c-0.064-0.129,0.064-0.193,0.064-0.258c0.129-0.064,0.322,0,0.387,0.064c-0.064-0.193-0.258-0.193-0.451-0.193
		c-0.773,0.129-1.933,1.096-2.448,1.225c-0.322,0.064-0.451,0.064-0.516-0.064c0-0.064-0.129-0.451-0.322-0.709
		c0,0,0.064,0.193,0.064,0.387c-0.258,0.064-0.515,0.193-0.515,0.193v-0.064c-0.064-0.451-0.387-0.902-0.387-0.902
		c0.579-0.258,0.901-0.193,0.901,0c0,0.129,0,0.258,0.129,0.322c0.645,0.129,2.319-1.739,3.479-1.159
		c0.064,0.064,0.129,0.129,0.193,0.193l0,0c0.192,0.129,0.321,0.257,0.45,0.321c0.064-0.064,0.193-0.128,0.258-0.192
		c-0.387-0.58-1.546-1.998-1.997-2.513v0.579c0,0.516,0.387,1.031,0.838,1.418c-0.129,0-0.193,0-0.322,0
		c-0.387-0.387-0.709-0.902-0.773-1.354c0,0,0,0,0-0.064c-0.064,0.064-0.129,0.129-0.129,0.129s-0.064-0.193-0.064-0.387
		c0-0.063,0.064-0.063,0.064-0.128c0.064-0.064,0-0.129,0-0.129c0-0.064,0.064-0.129,0.064-0.193V10.05V9.728
		c0-0.064,0-0.064,0-0.064C4.429,9.599,4.235,9.47,4.235,9.47S3.979,9.792,3.85,9.921s-0.387,0.387-0.387,0.387
		s0.193-0.064,0.451-0.064c0.45,0,0.321,0.386,0.386,0.515c0.129,0.258-0.064,0.516-0.129,0.645c0,0.064,0,0.129,0,0.129
		c0.064,0.064,0.58,0.193,0.709,0.387c0.258,0.129,0.258,0.258,0.258,0.258s-0.258,0.064-0.451,0c0,0,0-0.064-0.064-0.129
		c-0.064,0-0.064,0.064-0.064,0.064c-0.064,0-0.129-0.129-0.129-0.129S4.364,12.047,4.3,12.047c0.064-0.129,0.064-0.193,0-0.258
		c-0.129-0.064-0.321-0.129-0.708-0.129c0.064,0,0.129-0.064,0.193-0.193c-0.129,0-0.193,0.064-0.193,0
		c0.387-0.193,0.387-0.773-0.193-0.709c0.064,0.193-0.064,0.451-0.129,0.516c-0.193,0.322-0.516,0.322-0.645,0.516
		c-0.322,0.451,0.129,0.838,0.129,1.03c0.064,0.064,0.129,0.322,0.129,0.322s-0.129,0-0.258-0.064
		c-0.258-0.064-0.193-0.258-0.193-0.258s0-0.063-0.064-0.063s-0.064,0.063-0.129,0.128c-0.064-0.064-0.064-0.192,0-0.257
		c-0.064,0-0.129,0-0.193,0c0.064-0.064,0.193-0.193,0.193-0.258c0-0.258,0-0.516-0.064-0.645c0.129,0,0.193-0.064,0.193-0.064
		s-0.193,0-0.258-0.193c0.064,0.064,0.387,0.064,0.516-0.193c0.064-0.064-0.193-0.193-0.193-0.516
		c-0.387,0.451-1.288,0.322-0.837,1.031c-0.258,0-0.516-0.193-0.516-0.387c-0.193,0.129-0.064,0.387,0,0.387
		c-0.322-0.064-0.645-0.709,0.064-0.902c-0.645-0.644,0.064-1.417,0.193-1.61C1.595,8.89,1.595,8.632,1.466,8.438
		C1.401,8.311,1.208,8.182,1.015,8.311C0.886,8.438,0.886,8.696,1.079,8.696c0.129,0,0.193-0.064,0.193-0.193
		c0.258,0.258,0,0.58-0.451,0.322C0.95,9.019,1.079,9.47,0.499,9.792c0-0.064,0.064-0.129,0.064-0.258
		C0.241,9.728-0.274,9.341,0.177,8.825C-0.017,9.212,0.241,9.341,0.37,9.276c0.193-0.064,0.129-0.322,0.064-0.451
		C0.37,8.632,0.177,8.182,0.563,7.988c0,0-0.064,0-0.129,0c0.645-0.322,1.16-0.064,1.354,0.322C1.853,8.438,1.916,8.89,1.595,9.405
		C1.659,9.534,2.045,9.47,1.98,9.083c0.193,0.064,0.258,0.258,0.129,0.451c0.064,0.258-0.192,0.451-0.644,0.387
		c0.322,0.064,0.387,0.451,0,0.516c0.258-0.193-0.064-0.387-0.258-0.193c-0.129,0.193,0,0.45,0.193,0.515
		c0.451,0.129,0.708-0.064,0.837-0.193c0.129-0.128,0.129-0.321,0.258-0.579s0.322-0.451,0.387-0.838c0-0.193-0.064-0.387,0-0.645
		c-0.064,0-0.193,0-0.064-0.128C2.754,8.311,2.689,8.246,2.689,8.246S2.496,8.311,2.625,8.117c0,0,0,0-0.064-0.064
		c-0.193,0-0.258,0.193-0.193,0.322c-0.322-0.129-0.258-0.58,0-0.709c-0.193-0.064-0.451,0-0.387,0.258
		C1.659,7.859,1.659,7.602,1.916,7.473c-0.386,0.129-0.837,0-0.708-0.451c0.064,0.258,0.387,0.193,0.451-0.064
		c0.129-0.258,0.386-0.258,0.644-0.258c0-0.064,0-0.064,0.064-0.129c-0.129,0-0.258,0-0.322-0.064c0.129,0,0.258-0.129,0.387-0.129
		c-0.064-0.064-0.193,0-0.322,0c-0.257,0-0.45-0.193-0.257-0.193c0.257,0.064,0.386,0,0.45,0C2.174,6.056,1.724,6.12,1.595,6.056
		c-0.064-0.064-0.193-0.129,0-0.129c0.258,0,0.45-0.064,0.45-0.064c-0.129-0.129-0.515,0-0.708-0.129c0,0-0.129-0.064,0-0.064
		s0.258,0,0.258-0.064C1.337,5.476,1.208,5.218,1.208,5.153c0-0.129,0.064,0,0.129,0.064C1.595,5.476,1.788,5.476,1.98,5.604
		c0.064,0,0.129,0,0.193,0C2.045,5.54,1.724,5.347,1.659,5.089c0,0,0-0.129,0.064,0c0.064,0.064,0.192,0.193,0.321,0.193
		c0.193,0.064,0.258,0.064,0.516,0.322c0.129,0.193,0.258,0.451,0.387,0.579c0.129,0,0.193-0.063,0.258-0.063
		c0.129-0.064,0.193,0,0.193,0.063c0.193-0.063,0.322,0,0.387-0.063V6.056C3.85,5.991,3.85,6.12,4.043,6.12
		c0.063,0,0.192,0.128,0.192,0.257c-0.064-0.064-0.192,0-0.257,0.129c-0.064,0-0.129,0-0.129,0s0-0.129-0.064-0.064
		c-0.064,0-0.129,0.064-0.129,0.129H3.527c0,0,0-0.064-0.064-0.064C3.205,6.57,3.141,6.828,3.205,6.828s0.129-0.064,0.258-0.129
		C3.527,6.635,3.721,6.57,3.914,6.57c0.192,0.064,0.386,0,0.45-0.193C4.429,6.506,4.3,6.635,4.171,6.699
		c-0.192,0.064-0.321,0-0.386-0.064c-0.129,0-0.258,0.064-0.322,0.193c0.064,0,0.064,0,0.129-0.064c0.064,0,0.064,0,0.064,0
		c0,0.064,0.064,0.129,0.129-0.064c0.064,0,0.064,0,0.129,0c0,0.064-0.064,0.064,0,0.129c0.064,0,0.064,0,0.064,0.064
		S3.85,6.957,3.85,7.15C3.721,6.828,3.463,7.086,3.463,7.086s0.064,0.129,0.258,0.193C3.85,7.215,3.914,7.344,3.914,7.344
		s0.129,0.064,0.129,0.129c0.063-0.064,0.192,0,0.128,0.064c0.064,0.064,0.193,0.129,0.387,0.258C4.88,7.666,5.138,7.73,5.331,7.666
		c0.064,0,0.193,0.064,0.193,0.064h0.064c0.129,0,0.258,0,0.387,0c0-0.064,0-0.129,0-0.129c0-0.129,0.129-0.129,0.129-0.064
		c0.129,0,0.129-0.064,0.129-0.064s0-0.516-0.645-0.967c0-0.064,0.129-0.129,0.258-0.129l0,0c-0.129,0-0.58,0-0.709,0.322
		c0,0,0.193,0.193,0.516,0.064c0.064,0.258-0.064,0.322-0.064,0.322s0.064,0.193,0.322,0.322c-0.387,0.064-0.516,0-0.516,0
		S5.267,7.602,5.073,7.602c0.193-0.258,0.064-0.58,0.064-0.58l0,0C4.88,6.699,5.073,6.377,5.202,6.248
		c-0.451-0.192-0.451-0.579-0.58-0.644c0.193-0.064,0.322,0,0.322,0s0-0.129,0.064-0.322C4.687,5.476,4.364,5.669,4.043,5.669
		c-0.516,0-0.773-0.387-0.709-0.773s0.451-0.773,0.129-1.03c0.322,0,0.516,0.064,0.58,0.321C4.3,4.122,4.558,3.994,4.558,3.994
		c0.064-0.129-0.064-0.258-0.193-0.322h0.064h0.064c0.129,0,0.193,0.064,0.322,0.193c0.322,0.45-0.387,1.03-0.387,1.03l0,0
		c0.258,0,0.516-0.322,0.709-0.387s0.258,0,0.258,0.064C5.46,4.831,5.524,4.896,5.653,5.218c0.129,0.258-0.129,0.387-0.193,0.58
		C5.396,5.927,5.396,6.056,5.653,6.056c0.129,0,0.451-0.129,0.645-0.193l0,0c-0.193,0-0.322-0.129-0.193-0.258
		C5.911,5.411,5.782,5.153,5.782,4.831c0-0.58,0.387-1.03,0.966-1.095H7.07c0.516,0.064,0.967,0.515,0.967,1.095
		c0,0.322-0.129,0.58-0.322,0.773C7.779,5.669,7.779,5.798,7.65,5.862c0.064,0.064,0.064,0.129,0.193,0.129
		C7.973,6.056,8.102,6.056,8.23,6.056c0.193,0,0.193-0.129,0.129-0.258c-0.064-0.193-0.322-0.387-0.193-0.58
		C8.295,4.96,8.359,4.831,8.424,4.573c0-0.064,0.128-0.129,0.321-0.064s0.451,0.387,0.709,0.387l0,0c0,0-0.709-0.58-0.387-1.03
		C9.132,3.736,9.261,3.672,9.39,3.672H8.874V3.93z M9.325,13.399v-0.064H9.261l-0.064,0.064l0,0
		C9.325,13.464,9.325,13.464,9.325,13.399L9.325,13.399z M8.553,12.948c0,0,0-0.064-0.064-0.064l0,0l-0.064,0.064l0,0
		C8.488,12.948,8.553,12.948,8.553,12.948L8.553,12.948z M8.102,12.691L8.037,12.82h0.064V12.691L8.102,12.691z M5.46,12.562
		c-0.064,0-0.129,0.064-0.129,0.129S5.396,12.82,5.46,12.82s0.129-0.064,0.129-0.129C5.524,12.627,5.524,12.562,5.46,12.562
		L5.46,12.562z M8.488,13.077c0,0,0-0.064-0.064-0.064l0,0l-0.064,0.064h0.064C8.488,13.142,8.488,13.142,8.488,13.077L8.488,13.077
		z M3.27,13.528c-0.064,0.064-0.064,0.064-0.064,0.129s0.064,0.064,0.129,0.064c0.064-0.064,0.064-0.064,0.064-0.129
		S3.334,13.528,3.27,13.528L3.27,13.528z M11.773,8.375c0.193-0.193,0.387-0.064,0.516-0.322
		C12.031,8.182,11.773,8.053,11.773,8.375L11.773,8.375z M11.967,10.243c-0.064-0.258-0.516-0.258-0.645-0.516
		c0,0.258,0.322,0.322,0.322,0.322c-0.064,0-0.193,0-0.258-0.064c0.129,0.258,0.322,0.129,0.451,0.387
		c-0.193-0.064-0.322,0.129-0.322,0.193c0.064-0.193,0.322-0.193,0.451,0.064c0.064-0.129,0-0.322-0.193-0.387
		C11.902,10.179,11.902,10.179,11.967,10.243L11.967,10.243z M10.743,12.562c0.063-0.064,0-0.129,0-0.129
		c-0.064,0.129-0.193,0.193-0.258,0.193s0,0.129,0.129,0.064C10.679,12.691,10.743,12.627,10.743,12.562L10.743,12.562z
		 M10.356,12.884c0.064-0.063,0.193-0.063,0.193-0.063s0-0.129-0.129-0.064c0-0.064-0.129-0.129-0.129-0.064
		c-0.129-0.193-0.322,0.064-0.193,0.064c0.064,0,0.129-0.064,0.129-0.064c-0.064,0-0.064,0.129,0,0.129
		c0.064-0.064,0.129-0.064,0.129,0C10.292,12.82,10.292,12.884,10.356,12.884L10.356,12.884z M10.356,11.08
		c0.064-0.322,0.258-0.579,0.258-0.708s-0.064-0.322-0.258-0.322c0.064-0.064,0.129-0.064,0.193-0.064
		c-0.064-0.193-0.58,0-0.838-0.193c0.193,0.258,0.451,0.258,0.58,0.387C10.485,10.372,10.292,10.758,10.356,11.08
		C10.356,11.145,10.356,11.145,10.356,11.08L10.356,11.08z M9.39,9.599c0,0,0.387-0.064,0.516,0.064c0.064-0.129,0-0.193,0-0.193
		s0.322,0.129,0.451,0c-0.129,0-0.258-0.064-0.258-0.064s0.193-0.064,0.258-0.193c-0.258,0-0.387,0.064-0.516,0.258
		C9.647,9.534,9.519,9.534,9.39,9.599L9.39,9.599z M8.874,9.47C9.003,9.341,9.196,9.212,9.39,9.019
		c0.064-0.129,0.322-0.579,0.838-0.644C9.841,8.439,9.519,8.504,9.261,8.89c0-0.064-0.193-0.322,0-0.644
		C9.067,8.311,9.067,8.439,9.003,8.439c0.064-0.193-0.064-0.451,0.129-0.645C8.81,7.924,8.874,8.504,8.81,8.632
		c0.064,0,0.064,0,0.193-0.064c0,0.129,0.064,0.322,0.064,0.451C8.81,9.147,8.616,9.341,8.424,9.47
		C8.359,9.534,8.295,9.599,8.23,9.663c-0.064,0-0.129,0-0.129,0.064c-0.064,0.064-0.064,0.064,0,0.129c0.064,0,0.064,0,0.129-0.064
		c0,0.064-0.129,0.129-0.129,0.129c-0.064,0-0.129,0.129-0.064,0.193h0.064C8.166,10.05,8.23,9.985,8.23,9.985
		c-0.064,0.064-0.129,0.129-0.064,0.193H8.23c0,0,0-0.129,0.129-0.193s0.321-0.258,0.321-0.258C8.745,9.663,8.938,9.599,9.132,9.47
		l0,0C8.874,9.534,8.874,9.47,8.874,9.47L8.874,9.47z M8.424,10.179c0.064-0.064,0.064-0.129,0-0.129
		c-0.129,0.064-0.129,0.193-0.064,0.193h0.064C8.359,10.243,8.424,10.179,8.424,10.179L8.424,10.179z M8.23,10.693v-0.386l0,0H8.166
		v0.064c-0.064-0.064-0.064-0.064-0.064-0.064l-0.064-0.064c-0.064,0-0.129,0-0.193,0C7.973,10.437,8.102,10.565,8.23,10.693
		L8.23,10.693z M7.779,11.725c0.129-0.129,0.193-0.258,0.258-0.387c-0.258-0.387-0.645-0.837-0.902-1.159c-0.193,0-0.387,0-0.58,0
		C7.006,10.693,7.457,11.273,7.779,11.725L7.779,11.725z M6.555,10.05L6.555,10.05L6.555,10.05c0.193,0,0.387,0,0.58,0
		c-0.129-0.064-0.516-0.064-0.58-0.064c-0.129,0-0.321,0.064-0.45,0c-0.129,0-0.258,0-0.322,0.064c0.193,0,0.387,0,0.516,0l0,0
		C6.426,10.05,6.49,10.05,6.555,10.05L6.555,10.05z M5.073,9.534C5.009,9.534,5.073,9.534,5.073,9.534
		c0.129,0,0.451,0.129,0.645,0.193C6.04,9.856,6.49,9.856,6.941,9.856l0.064-0.064l0,0c-0.258-0.129-0.579-0.129-0.644,0
		c-0.064-0.193-0.064-0.322,0-0.451c-0.064,0,0,0,0-0.064c0,0,0.321-0.064,0.579-0.064c0.064,0,0.064,0,0,0
		c-0.064,0.129,0,0.387,0.064,0.516c0.129,0,0.387,0,0.516,0c0,0.064-0.064,0.064-0.064,0.129c0,0-0.064,0-0.064,0.064v0.064
		c0.193,0,0.322,0,0.516,0c0-0.064,0-0.193,0.129-0.193c-0.064-0.129,0-0.258,0.129-0.258l0,0c0-0.387,0-0.838,0-1.353
		c-0.58-0.064-1.16-0.064-1.482-0.064C6.49,8.246,6.298,8.375,6.04,8.375c-0.322,0-0.387-0.129-0.451-0.258
		c-0.258,0-0.58,0.064-0.902,0.064v1.159l0.064,0.064C4.815,9.47,4.815,9.728,4.815,9.728s0,0.129-0.064,0.193v0.064
		c0.258,0,0.58,0,0.902,0C5.589,9.856,5.524,9.792,5.524,9.728C5.46,9.728,5.073,9.599,5.073,9.534L5.073,9.534z M4.687,9.728
		c0.064,0.129,0.129,0.129,0.129,0.064s0-0.193,0-0.258l0,0C4.687,9.405,4.493,9.019,4.236,8.761c0.192,0,0.063-0.45-0.193-0.515
		C3.979,8.182,3.785,7.988,3.656,7.988C3.527,8.053,3.27,8.246,3.205,8.246c0,0.064,0.064,0.129,0.193,0.258
		c0.064-0.064,0-0.129,0.064-0.193c0.322,0,0.451,0.515,0.451,0.515s0.064-0.064,0.193-0.064C4.043,8.825,4.043,8.89,4.043,8.954
		C4.172,9.019,4.429,9.405,4.558,9.47S4.687,9.599,4.687,9.728L4.687,9.728z M4.493,10.758c0.064-0.064,0.129-0.192,0.129-0.257
		c-0.064-0.064-0.129,0.128-0.129,0.128V10.758L4.493,10.758z M3.721,9.212c0.064,0.129,0.193,0.129,0.387,0.193
		C3.85,9.276,3.785,9.147,3.785,9.147S3.527,9.083,3.141,8.696C3.398,9.019,3.527,9.147,3.721,9.212L3.721,9.212z M3.205,10.308
		C3.27,10.05,3.592,9.985,3.721,9.534C3.27,10.05,2.754,10.05,2.818,10.437c0.064-0.064,0.064-0.064,0.129-0.064
		c-0.064,0.193,0.129,0.515,0,0.772C3.205,11.016,3.205,10.501,3.205,10.308L3.205,10.308z M2.818,8.375
		C2.818,8.439,2.818,8.439,2.818,8.375c0.451-0.322,0.645-0.451,0.902-0.58c0.064,0,0.064-0.064,0.064-0.064s0-0.064-0.064,0
		S3.141,8.117,2.818,8.375L2.818,8.375z M2.754,8.375l0.064-0.064c0,0-0.129-0.129-0.193-0.064C2.754,8.311,2.754,8.375,2.754,8.375
		L2.754,8.375z M2.625,8.053C2.625,8.117,2.625,8.117,2.625,8.053C3.012,7.795,3.27,7.602,3.463,7.537c0.064-0.064,0-0.064-0.064,0
		C3.27,7.602,3.012,7.73,2.625,8.053L2.625,8.053z M2.303,6.828C2.109,7.344,2.625,8.053,2.625,8.053s0.064-0.064,0.129-0.129
		C2.561,7.73,2.174,7.279,2.303,6.828L2.303,6.828L2.303,6.828z M1.595,5.604C1.917,5.798,2.174,6.12,2.367,6.377
		c0,0,0.064,0,0.129,0C2.303,6.185,1.981,5.798,1.595,5.604L1.595,5.604z M2.303,5.927c0-0.064-0.064-0.064-0.193-0.064
		c0,0,0.064,0.064,0.129,0.129C2.238,5.991,2.303,5.991,2.303,5.927L2.303,5.927z M2.689,6.312c0,0-0.258-0.579-0.451-0.644
		c0.193,0.258,0.387,0.644,0.387,0.644H2.689L2.689,6.312z M2.883,6.699C2.818,6.764,2.689,6.893,2.689,6.893
		C2.625,6.828,2.625,6.699,2.625,6.635C2.496,6.828,2.561,7.021,2.754,7.086c0.064,0.064,0.129,0,0.064-0.064
		C2.818,6.957,2.883,6.828,2.883,6.699C2.947,6.699,2.947,6.699,2.883,6.699L2.883,6.699z M3.076,6.441
		C2.947,6.377,2.947,6.506,2.754,6.57C2.947,6.57,3.012,6.57,3.076,6.441L3.076,6.441z M3.012,7.344
		C2.883,7.473,2.625,7.408,2.496,7.15c0.064,0.193,0.258,0.322,0.387,0.322c0.064,0.129,0.129,0.193,0.129,0.193
		s0.129-0.064,0.193-0.129C3.205,7.537,3.141,7.408,3.012,7.344L3.012,7.344z M3.656,7.73C3.592,7.666,3.592,7.666,3.527,7.602
		C3.463,7.666,3.27,7.73,2.947,7.988c0.193-0.129,0.258-0.129,0.258-0.129S3.076,7.988,3.012,8.053
		C3.141,7.988,3.141,7.924,3.27,7.924C3.141,7.988,3.076,8.117,3.076,8.117C3.27,7.924,3.527,7.795,3.656,7.73L3.656,7.73z
		 M4.493,8.504c0.064,0.257,0,0.321,0,0.321s0.064,0.129,0.129,0.258V8.439C4.558,8.504,4.493,8.504,4.493,8.504L4.493,8.504z
		 M4.622,8.053c-0.193,0-0.193,0-0.258,0.064c0,0,0,0.064,0.064,0.129c0.064,0,0.064-0.064,0.193-0.064V8.053L4.622,8.053
		L4.622,8.053z M5.847,8.117C5.782,8.053,5.782,8.053,5.847,8.117c0,0.193,0.193,0.258,0.322,0.193
		c0.257-0.064,0.515-0.193,0.708-0.387l0.064-0.064c-0.064,0-0.193,0-0.258-0.064C6.49,7.859,6.298,7.924,6.169,7.859
		c0.193,0,0.321-0.064,0.515-0.129c0-0.064-0.064-0.58-0.064-0.838c-0.192,0-0.386-0.064-0.515-0.193
		c0.258,0,0.515-0.064,0.708-0.129s0.129-0.322,0.129-0.322h0.064c-0.064,0-0.064-0.063-0.129-0.063s-0.129,0-0.129,0
		c0.064,0.063,0.129,0.257,0,0.321C6.49,6.57,5.976,6.635,5.653,6.635c0,0-0.064,0,0,0c0.258,0.193,0.58,0.645,0.516,1.16
		c0,0-0.064,0.129-0.129,0.129c0,0.064,0.129,0.129,0.515,0.064C6.04,8.311,5.847,8.182,5.847,8.117L5.847,8.117z M5.653,6.57
		c0,0.064,0,0.129,0.322,0.064C6.04,6.506,6.104,6.248,6.233,6.056c0-0.064-0.129-0.064-0.193,0C5.911,6.12,5.718,6.377,5.653,6.57
		L5.653,6.57z M5.782,5.862c0,0.064,0.193,0.064,0.322,0.064c-0.064,0-0.129-0.129-0.193-0.129C5.847,5.733,5.782,5.798,5.782,5.862
		L5.782,5.862z M6.619,5.927C6.555,5.862,6.555,5.669,6.233,5.798C6.362,5.862,6.362,5.991,6.619,5.927L6.619,5.927z M7.07,6.506
		c0-0.064,0-0.064-0.064-0.064s-0.064,0-0.064,0.064s0,0.064,0.064,0.064S7.07,6.57,7.07,6.506L7.07,6.506z M6.748,5.798
		C6.812,5.862,6.812,5.991,7.07,5.927C7.07,5.927,7.006,5.733,6.748,5.798L6.748,5.798z M5.524,4.96c0,0.322,0.129,0.58,0.387,0.773
		c0.064,0,0.129,0,0.258,0s0.193,0,0.321,0c0.064-0.064,0.258,0,0.258,0c0.064,0,0.193,0,0.258,0C7.264,5.54,7.393,5.282,7.393,4.96
		c0-0.516-0.451-0.966-0.967-0.966C5.976,3.994,5.524,4.444,5.524,4.96L5.524,4.96z M7.457,7.859
		C7.393,7.795,7.328,7.795,7.199,7.795c0.129,0,0.193,0.129,0.258,0.193c0.064,0,0.064,0,0.129,0
		C7.521,7.924,7.521,7.859,7.457,7.859L7.457,7.859z M8.424,8.761V9.47l0,0c0.192-0.129,0.321-0.258,0.579-0.387
		c-0.064-0.129-0.258,0-0.322,0C8.553,8.89,8.488,8.825,8.424,8.761L8.424,8.761z M8.424,8.246v0.129
		c0.129,0.064,0.321,0.192,0.321,0.192s0.064-0.128,0-0.192S8.488,8.246,8.424,8.246L8.424,8.246z M9.261,6.957
		c0.064-0.064,0.193,0,0.193,0C9.261,7.086,9.261,7.344,9.519,7.602c-0.064-0.322,0-0.516,0.064-0.58c0,0.064,0,0.258,0.129,0.387
		c0-0.129,0.064-0.193,0.064-0.193S9.712,7.15,9.712,7.021c0,0.064,0.129,0.193,0.129,0.193S9.776,7.408,9.776,7.473
		s0.064,0.064,0.064,0.129s0,0.129,0,0.129l0.064-0.064c0.064,0,0.064,0,0.129,0l0.064-0.129c0,0-0.129-0.064-0.064-0.193
		c0.064,0,0.064,0,0.129,0.064c0.064,0,0.129,0,0.129,0s0.064-0.129,0.064-0.258c0-0.064-0.193-0.129-0.258,0
		c0,0.064-0.193,0.064-0.193-0.129c0.064-0.064,0.129,0.064,0.193,0.064l0,0l0,0l0,0c0,0,0.064,0,0.064-0.064
		c0,0,0-0.129-0.064-0.193c0,0.064,0,0.129,0,0.129C10.034,6.893,9.97,6.764,9.647,6.893c-0.064,0-0.129,0.064-0.193,0
		c0,0.064,0.064,0.129,0.064,0.129S9.39,6.828,9.261,6.957L9.261,6.957z M10.743,6.377c-0.193-0.064-0.58-0.192-0.773-0.192
		c0,0.128,0,0.257,0,0.321c0.387,0.064,0.645,0.129,0.645,0.129s0-0.064,0.064-0.129c-0.129-0.064-0.258-0.129-0.451-0.129
		c0.193,0,0.322,0.064,0.451,0.064C10.679,6.377,10.743,6.377,10.743,6.377L10.743,6.377z M10.55,6.828
		c-0.129,0-0.193,0.129-0.129,0.193s0.129-0.064,0.258,0c0-0.064-0.064-0.258-0.258-0.129C10.485,6.893,10.485,6.828,10.55,6.828
		L10.55,6.828z M10.034,7.795c0,0.064,0,0.193-0.193,0.258C9.97,7.924,9.97,7.795,10.034,7.795C9.905,7.73,9.905,7.666,9.905,7.73
		c0,0.129-0.064,0.193-0.129,0.258S9.647,8.246,9.905,8.182c0.064,0,0.258-0.129,0.193-0.258
		C10.099,7.795,10.099,7.795,10.034,7.795L10.034,7.795z M10.228,7.602V7.73C10.228,7.73,10.292,7.666,10.228,7.602
		c0.193,0.064,0.193-0.129,0.193-0.193s0-0.129-0.129-0.129c0,0.064-0.129,0.064-0.129,0.064s0,0.064,0,0.129
		S10.163,7.602,10.228,7.602L10.228,7.602z M10.743,7.215c0,0,0-0.129-0.064-0.129S10.55,7.215,10.421,7.15
		c0.064,0.064,0.064,0.064,0.064,0.129C10.614,7.279,10.743,7.215,10.743,7.215c-0.064,0.064-0.064,0.064-0.193,0.193
		c0,0.064,0,0.129-0.064,0.258C10.614,7.602,10.743,7.279,10.743,7.215L10.743,7.215z M10.871,7.408
		c0,0.322-0.321,0.387-0.257,0.709c0.064-0.193,0.192-0.258,0.257-0.322c0,0,0,0.064,0.064,0.064C11,7.924,11,7.666,10.871,7.408
		L10.871,7.408z M9.067,10.629c0.258-0.321,0.645-0.257,0.709-0.386c0,0-0.193-0.064-0.451,0
		C9.132,10.372,9.132,10.565,9.067,10.629L9.067,10.629z M9.261,11.789c0-0.064-0.064,0-0.193,0.064s-0.193,0.064-0.258,0.129
		c-0.064,0-0.064,0.064,0.064,0.064C8.938,12.047,9.196,11.918,9.261,11.789L9.261,11.789z M8.81,12.176
		c0,0,0.064-0.064-0.064-0.064c0-0.064-0.064-0.064-0.129-0.064c-0.128-0.129-0.321,0.064-0.192,0.064
		c0.064-0.064,0.129-0.064,0.129-0.064c-0.064,0-0.064,0.064,0,0.129c0.063-0.064,0.128-0.064,0.128-0.064
		c-0.064,0-0.064,0.129,0,0.129C8.681,12.111,8.81,12.176,8.81,12.176L8.81,12.176z M7.07,13.206c0-0.129-0.064-0.258-0.129-0.386
		c-0.258,0.192-0.387,0.321-0.451,0.321s-0.192-0.129-0.45-0.321c-0.064,0.128-0.129,0.257-0.129,0.386c0,0.064,0,0.064,0,0.129
		s-0.064,0.064-0.064,0.129c-0.129,0-0.258-0.064-0.322-0.129c0,0.129,0.387,0.193,0.387,0.193c0.129,0,0.387,0.064,0.579,0.064
		c0.193,0,0.451,0,0.58-0.064c0,0,0.387-0.064,0.387-0.193c-0.064,0.064-0.258,0.129-0.387,0.129c0,0-0.064-0.064-0.064-0.129
		C7.07,13.335,7.07,13.271,7.07,13.206L7.07,13.206z M6.748,14.108v-0.322h0.129v-0.064H6.555v0.064h0.129v0.322H6.748L6.748,14.108
		z M6.426,13.851v-0.064H6.169v0.387h0.257v-0.064H6.298v-0.064h0.128v-0.064H6.298v-0.064L6.426,13.851L6.426,13.851z
		 M7.521,12.498l-0.064,0.387l0.258,0.063v-0.063H7.586l0.064-0.258L7.521,12.498L7.521,12.498z M8.037,12.627l-0.258,0.321h0.064
		l0.064-0.064l0.129,0.064v0.129h0.064v-0.386L8.037,12.627L8.037,12.627z M8.424,12.756l-0.129,0.321l0.129,0.064
		c0.064,0.064,0.129,0,0.192-0.064c0-0.064,0-0.064,0-0.129l0,0c0,0,0.064,0,0.064-0.064c0-0.063,0-0.128-0.064-0.128H8.424
		L8.424,12.756z M8.681,13.142c0.064-0.129,0.129-0.129,0.258-0.064s0.129,0.129,0.064,0.258s-0.129,0.129-0.258,0.064
		C8.681,13.335,8.681,13.206,8.681,13.142L8.681,13.142z M9.39,13.271l-0.129-0.064l-0.193,0.322l0.064,0.064l0.064-0.129l0,0l0,0
		v0.064c0,0.064,0,0.129,0.064,0.129l0.064-0.064l-0.064-0.064v-0.064c0.064,0,0.064,0,0.129-0.064
		C9.454,13.399,9.454,13.335,9.39,13.271L9.39,13.271z M9.647,13.464l-0.193,0.322l0.193,0.129l0.064-0.064l-0.129-0.064
		l0.064-0.064l0.129,0.064v-0.064l-0.129-0.064l0.064-0.064l0.129,0.064v-0.064L9.647,13.464L9.647,13.464z M5.46,12.884
		c0.129,0,0.193-0.063,0.193-0.192s-0.064-0.193-0.193-0.193s-0.193,0.064-0.193,0.193S5.331,12.884,5.46,12.884L5.46,12.884z
		 M5.073,12.948h0.064l-0.064-0.321H5.009L5.073,12.948L5.073,12.948z M4.751,13.077l0.258-0.064v-0.064L4.88,13.013l-0.129-0.257
		H4.687L4.751,13.077L4.751,13.077z M4.493,13.206l0.064-0.064L4.364,12.82L4.3,12.884L4.493,13.206L4.493,13.206z M4.3,13.335
		c0.064,0,0.064-0.064,0.064-0.064L4.3,13.206l-0.064,0.064c-0.063,0.064-0.128,0-0.192-0.064s0-0.129,0.064-0.129s0.064,0,0.064,0
		v-0.064c0,0-0.064,0-0.129,0.064c-0.129,0.064-0.129,0.129-0.064,0.258C4.043,13.335,4.172,13.399,4.3,13.335L4.3,13.335z
		 M3.914,13.528l0.064-0.064l-0.193-0.322l-0.064,0.064l0.129,0.193v0.064l-0.258-0.129l-0.064,0.064l0.193,0.322l0.064-0.064
		l-0.129-0.258v-0.064L3.914,13.528L3.914,13.528z M3.398,13.786c0.129-0.064,0.129-0.129,0.064-0.258
		c-0.064-0.064-0.129-0.129-0.258-0.064s-0.129,0.129-0.064,0.258S3.334,13.851,3.398,13.786L3.398,13.786z M3.012,13.979
		c0.064,0,0.064,0,0.129-0.064l-0.064-0.064c0,0-0.064,0-0.064,0.064c-0.064,0-0.129,0-0.129-0.064s0-0.129,0.064-0.129
		s0.064,0,0.064,0v-0.064c0,0-0.064,0-0.129,0c-0.129,0.064-0.193,0.129-0.129,0.258C2.818,13.979,2.883,14.044,3.012,13.979
		L3.012,13.979z M3.656,10.243c-0.064,0-0.064,0.064-0.064,0.064c0.258,0.064,0.387,0.193,0.322,0.386
		c0.064,0.064,0.064,0.129,0.064,0.258s0.193-0.193,0.129-0.321C4.107,10.308,3.85,10.243,3.656,10.243L3.656,10.243z M4.364,11.66
		C4.3,11.66,4.235,11.66,4.364,11.66c0.064,0.129,0.129,0.193,0.193,0.258s0.129-0.064,0.129-0.064
		C4.622,11.789,4.493,11.725,4.364,11.66L4.364,11.66z M2.432,12.691c0-0.064-0.064-0.129-0.129-0.258c0,0-0.064-0.064-0.064,0
		c0,0.129,0,0.322,0.064,0.387s0.193,0,0.193,0S2.496,12.82,2.432,12.691L2.432,12.691z M1.595,11.016
		c0.129-0.064,0.129-0.129,0.064-0.064c-0.193,0.064-0.773-0.064-0.773,0.322c0,0,0.193-0.193,0.322-0.129
		c-0.064,0.064-0.064,0.193-0.064,0.193C1.208,11.145,1.337,11.08,1.595,11.016L1.595,11.016z M1.466,9.728
		C1.401,9.728,1.401,9.728,1.466,9.728C1.53,9.792,1.788,9.856,1.917,9.599C1.724,9.728,1.466,9.728,1.466,9.728L1.466,9.728z
		 M1.401,8.246C1.466,8.246,1.466,8.246,1.401,8.246c-0.064-0.258-0.387-0.322-0.58-0.322c0.129,0,0.193,0.064,0.193,0.064
		c-0.322,0-0.516,0.258-0.516,0.322C0.757,8.117,1.208,8.053,1.401,8.246L1.401,8.246z M0.241,9.47
		c0.064,0.064,0.58-0.129,0.322-0.645C0.692,9.212,0.37,9.47,0.241,9.47L0.241,9.47z M1.981,7.021c0.128,0,0.192-0.064,0-0.064
		c-0.193,0-0.387,0.129-0.516,0.387C1.595,7.086,1.788,6.957,1.981,7.021L1.981,7.021z M4.88,6.185c0-0.064,0.064-0.193,0.193-0.387
		c0.193-0.193,0.193-0.387,0-0.451c-0.064,0-0.193,0-0.322,0.064C4.622,5.669,4.622,5.927,4.622,5.927S4.493,5.862,4.429,5.862
		c0.064,0.193,0.258,0.322,0.387,0.45C4.751,6.12,4.687,5.669,5.073,5.411C4.815,5.733,4.815,5.991,4.88,6.185L4.88,6.185z
		 M5.202,7.021C5.009,7.086,4.815,6.957,4.815,6.957C4.751,7.15,4.944,7.408,4.88,7.602c0.064,0,0.129-0.064,0.129-0.193
		c0.064,0.064,0.193,0.064,0.322,0.064C5.138,7.344,5.138,7.215,5.138,7.215S5.202,7.15,5.202,7.021L5.202,7.021z M4.043,5.54
		C4.107,5.218,3.85,5.089,3.85,5.089s0.772-0.516,0.579-0.966C4.3,4.509,3.85,4.509,3.527,4.638c0.064-0.129,0-0.451-0.258-0.451
		c0.129,0.064,0,0.322-0.064,0.516C3.141,4.831,2.947,5.218,3.141,5.54c-0.064-0.129,0-0.451,0.516-0.709
		c-0.516,0.387-0.58,0.838-0.193,0.902c-0.064-0.129,0-0.258,0.064-0.322C3.656,5.347,3.979,5.411,4.043,5.54L4.043,5.54z
		 M7.908,5.798c0.129,0.129,0.193,0.258,0.193,0.387c0.064-0.193,0.064-0.451-0.193-0.709C8.23,5.733,8.23,6.12,8.166,6.377
		c0.193-0.064,0.322-0.257,0.387-0.45c-0.129,0-0.193,0.064-0.193,0.064s0-0.258-0.129-0.516C8.102,5.411,7.973,5.347,7.908,5.411
		C7.715,5.411,7.715,5.604,7.908,5.798L7.908,5.798z M8.102,7.602C7.973,7.408,8.23,7.15,8.166,6.957c0,0-0.193,0.129-0.387,0.064
		c0,0.129,0.129,0.193,0.129,0.193s0,0.129-0.193,0.258c0.129,0,0.258,0,0.322-0.064C7.973,7.537,8.037,7.602,8.102,7.602
		L8.102,7.602z M9.132,5.089c0,0-0.258,0.129-0.193,0.451c0.064-0.129,0.387-0.258,0.516-0.193S9.583,5.54,9.519,5.669
		c0.387-0.064,0.322-0.516-0.193-0.902c0.516,0.258,0.516,0.516,0.516,0.709c0.193-0.258-0.064-0.709-0.064-0.838
		C9.712,4.444,9.583,4.187,9.712,4.123c-0.258,0-0.322,0.321-0.258,0.45C9.196,4.444,8.745,4.444,8.553,4.059
		C8.359,4.573,9.132,5.089,9.132,5.089z"/>
	<polygon fill="#1D1D1B" points="15.06,4.509 15.832,4.509 17.314,8.825 18.989,4.509 19.697,4.509 19.697,9.147 19.183,9.147 
		19.183,5.862 19.183,5.153 17.636,9.147 16.928,9.147 15.51,5.089 15.574,5.862 15.574,9.147 15.06,9.147 	"/>
	<path fill="#1D1D1B" d="M23.112,7.021l-0.709-2.126l-0.772,2.126H23.112L23.112,7.021z M22.081,4.509h0.709l1.61,4.639h-0.579
		l-0.58-1.739h-1.804l-0.645,1.739h-0.516L22.081,4.509z"/>
	<polygon fill="#1D1D1B" points="25.045,4.509 25.754,4.509 28.073,8.696 28.073,8.117 28.073,4.509 28.588,4.509 28.588,9.147 
		27.751,9.147 25.561,5.024 25.561,5.54 25.561,9.147 25.045,9.147 	"/>
	<path fill="#1D1D1B" d="M29.426,6.893c0-1.481,0.838-2.448,2.384-2.448c0.773,0,1.224,0.258,1.353,0.387l-0.129,0.451
		C32.84,5.153,32.454,4.96,31.874,4.96c-0.967,0-1.804,0.516-1.804,1.868c0,1.418,0.901,1.997,1.933,1.997
		c0.451,0,0.837-0.129,1.03-0.258l0.193,0.387c-0.129,0.129-0.58,0.322-1.353,0.322C30.264,9.276,29.426,8.246,29.426,6.893z"/>
	<polygon fill="#1D1D1B" points="33.807,4.509 34.387,4.509 34.387,6.635 36.835,6.635 36.835,4.509 37.35,4.509 37.35,9.147 
		36.835,9.147 36.835,7.086 34.387,7.086 34.387,9.147 33.807,9.147 	"/>
	<polygon fill="#1D1D1B" points="38.316,4.509 40.894,4.509 40.894,4.96 38.896,4.96 38.896,6.635 40.7,6.635 40.7,7.086 
		38.896,7.086 38.896,8.761 41.022,8.761 41.022,9.147 38.316,9.147 	"/>
	<path fill="#1D1D1B" d="M41.73,8.89l0.193-0.45c0.193,0.128,0.645,0.321,1.031,0.321c0.515,0,1.095-0.193,1.095-0.772
		c0-1.16-2.255-0.902-2.255-2.448c0-0.773,0.645-1.096,1.354-1.096c0.515,0,0.901,0.193,1.095,0.322L44.05,5.153
		c-0.193-0.129-0.579-0.258-0.901-0.258c-0.516,0-0.838,0.193-0.838,0.645c0,1.03,2.255,0.901,2.255,2.384
		c0,0.901-0.709,1.288-1.61,1.288C42.311,9.276,41.924,9.019,41.73,8.89z"/>
	<polygon fill="#1D1D1B" points="46.562,4.96 45.081,4.96 45.081,4.509 48.624,4.509 48.624,4.96 47.143,4.96 47.143,9.147 
		46.562,9.147 	"/>
	<polygon fill="#1D1D1B" points="49.333,4.509 51.975,4.509 51.975,4.96 49.913,4.96 49.913,6.635 51.846,6.635 51.846,7.086 
		49.913,7.086 49.913,8.696 52.104,8.696 52.104,9.147 49.333,9.147 	"/>
	<path fill="#1D1D1B" d="M54.036,6.893c0.708,0,1.224-0.193,1.224-0.966c0-0.709-0.387-0.967-1.03-0.967h-0.838v1.933H54.036
		L54.036,6.893z M55.26,8.567l-0.838-1.224c-0.128,0-0.257,0.064-0.45,0.064h-0.645v1.868h-0.516V4.638h1.482
		c0.837,0,1.481,0.451,1.481,1.354c0,0.515-0.258,1.03-0.838,1.288l0.709,1.031c0.322,0.45,0.645,0.579,0.901,0.644L56.42,9.405
		C56.162,9.212,55.646,9.083,55.26,8.567z"/>
	<path fill="#1D1D1B" d="M14.544,12.562c0-1.031,0.579-1.676,1.61-1.676c0.516,0,0.773,0.129,0.902,0.258l-0.129,0.387
		c-0.193-0.064-0.387-0.193-0.773-0.193c-0.645,0-1.159,0.322-1.159,1.225c0,0.901,0.515,1.288,1.224,1.288
		c0.322,0,0.58-0.129,0.709-0.193l0.129,0.387c-0.193,0.064-0.451,0.193-0.902,0.193C15.123,14.173,14.544,13.528,14.544,12.562z"/>
	<rect x="17.7" y="10.951" fill="#1D1D1B" width="0.516" height="3.222"/>
	<polygon fill="#1D1D1B" points="19.633,11.338 18.603,11.338 18.603,10.951 21.115,10.951 21.115,11.338 20.084,11.338 
		20.084,14.173 19.633,14.173 	"/>
	<polygon fill="#1D1D1B" points="22.468,13.013 21.373,10.951 21.952,10.951 22.661,12.562 23.499,10.951 24.014,10.951 
		22.919,12.948 22.919,14.173 22.468,14.173 	"/>
	<path fill="#1D1D1B" d="M25.238,12.562c0-1.031,0.58-1.676,1.61-1.676c0.516,0,0.773,0.129,0.902,0.258l-0.129,0.387
		c-0.193-0.064-0.387-0.193-0.773-0.193c-0.645,0-1.159,0.322-1.159,1.225c0,0.901,0.579,1.288,1.224,1.288
		c0.322,0,0.58-0.064,0.709-0.193l0.129,0.387c-0.193,0.064-0.451,0.193-0.902,0.193C25.818,14.173,25.238,13.528,25.238,12.562z"/>
	<path fill="#1D1D1B" d="M31.81,12.948v-1.997h0.516v1.997c0,0.645,0.386,0.838,0.837,0.838S34,13.528,34,12.82v-1.869h0.451v1.934
		c0,1.03-0.709,1.353-1.289,1.353C32.454,14.173,31.81,13.915,31.81,12.948z"/>
	<path fill="#1D1D1B" d="M30.778,12.562c0-0.709-0.387-1.289-1.095-1.289c-0.773,0-1.096,0.516-1.096,1.225
		c0,0.708,0.322,1.288,1.096,1.288C30.456,13.786,30.778,13.271,30.778,12.562L30.778,12.562z M28.073,12.562
		c0-1.031,0.644-1.676,1.61-1.676c1.03,0,1.546,0.709,1.546,1.676c0,0.966-0.58,1.675-1.61,1.675
		C28.652,14.237,28.073,13.528,28.073,12.562z"/>
	<polygon fill="#1D1D1B" points="35.095,10.951 35.675,10.951 37.156,13.657 37.156,13.271 37.156,10.951 37.607,10.951 
		37.607,14.173 36.963,14.173 35.546,11.531 35.546,11.854 35.546,14.173 35.095,14.173 	"/>
	<path fill="#1D1D1B" d="M38.252,12.562c0-1.031,0.58-1.676,1.61-1.676c0.516,0,0.773,0.129,0.902,0.258l-0.129,0.387
		c-0.193-0.064-0.387-0.193-0.773-0.193c-0.645,0-1.159,0.322-1.159,1.225c0,0.901,0.515,1.288,1.224,1.288
		c0.322,0,0.58-0.064,0.709-0.193l0.129,0.387c-0.193,0.064-0.451,0.193-0.902,0.193C38.832,14.173,38.252,13.528,38.252,12.562z"/>
	<rect x="41.408" y="10.951" fill="#1D1D1B" width="0.516" height="3.222"/>
	<polygon fill="#1D1D1B" points="42.697,10.951 43.148,10.951 43.148,13.722 44.501,13.722 44.501,14.173 42.697,14.173 	"/>
</g>
</svg>
