<?xml version="1.0" encoding="utf-8"?>
<!-- Generator: Adobe Illustrator 16.0.0, SVG Export Plug-In . SVG Version: 6.00 Build 0)  -->
<!DOCTYPE svg PUBLIC "-//W3C//DTD SVG 1.1//EN" "http://www.w3.org/Graphics/SVG/1.1/DTD/svg11.dtd">
<svg version="1.1" id="Layer_1" xmlns="http://www.w3.org/2000/svg" xmlns:xlink="http://www.w3.org/1999/xlink" x="0px" y="0px"
	 width="167.632px" height="22.996px" viewBox="0 0 167.632 22.996" enable-background="new 0 0 167.632 22.996"
	 xml:space="preserve">
<g>
	<ellipse fill="#C41A1B" cx="43.68" cy="12.365" rx="3.093" ry="2.062"/>
	<path fill="#15251B" d="M0.773,11.334c0.322-0.258,0.645-0.387,1.095-0.387c0.709,0,1.16,0.387,1.16,1.354
		c0,0.966-0.516,1.417-1.353,1.417c-0.451,0-0.58-0.064-0.902-0.193V11.334L0.773,11.334z M0.773,8.5L0,8.564v5.477
		c0.451,0.322,1.031,0.451,1.676,0.451c1.417,0,2.19-0.902,2.19-2.127c0-1.353-0.645-1.997-1.869-1.997
		c-0.386,0-0.837,0.129-1.159,0.451V8.5H0.773z M4.445,10.432v3.931h0.773v-2.448c0.322-0.58,0.709-0.773,1.417-0.773v-0.838
		c-0.387,0-1.095,0.129-1.417,0.838l0,0v-0.773L4.445,10.432L4.445,10.432L4.445,10.432z M10.759,14.363v-3.931l-0.772,0.064v2.835
		c-0.193,0.258-0.451,0.516-1.031,0.516c-0.516,0-0.837-0.322-0.837-0.902v-2.513l-0.773,0.064v2.448
		c0,1.031,0.58,1.547,1.417,1.547c0.516,0,1.096-0.129,1.289-0.58l0,0v0.516h0.708V14.363L10.759,14.363z M12.435,10.432
		l-0.773,0.064v3.931h0.773v-2.899c0.258-0.387,0.515-0.516,1.095-0.516c0.516,0,0.838,0.322,0.838,0.902v2.513h0.772V11.85
		c0-1.031-0.644-1.482-1.353-1.482c-0.516,0-1.031,0.193-1.353,0.516l0,0V10.432L12.435,10.432z M17.073,9.595H16.88l-1.289,1.288
		v0.193h0.645v2.19c0,0.709,0.451,1.16,1.224,1.16c0.322,0,0.709-0.129,0.967-0.258v-0.645c-0.258,0.193-0.516,0.258-0.838,0.258
		c-0.258,0-0.579-0.129-0.579-0.58v-2.126h1.224v-0.645h-1.224V9.595H17.073z M22.033,10.432H21.39l-0.967,2.771l-0.967-2.771
		h-0.837l1.546,4.06h0.516l1.03-2.964l1.031,2.964h0.451l1.61-4.06h-0.838l-1.03,2.771L22.033,10.432L22.033,10.432L22.033,10.432z
		 M25.834,12.365c0-0.772,0.516-1.353,1.289-1.353s1.353,0.58,1.353,1.353c0,0.838-0.515,1.418-1.353,1.418
		C26.35,13.783,25.834,13.203,25.834,12.365L25.834,12.365L25.834,12.365z M29.249,12.365c0-1.159-0.902-2.062-2.126-2.062
		c-1.16,0-2.062,0.902-2.062,2.062c0,1.225,0.901,2.062,2.062,2.062C28.347,14.427,29.249,13.589,29.249,12.365L29.249,12.365
		L29.249,12.365z M30.73,12.365c0-0.772,0.516-1.353,1.289-1.353c0.772,0,1.288,0.58,1.288,1.353c0,0.838-0.516,1.418-1.288,1.418
		C31.246,13.783,30.73,13.203,30.73,12.365L30.73,12.365L30.73,12.365z M34.146,12.365c0-1.159-0.902-2.062-2.126-2.062
		c-1.16,0-2.126,0.902-2.126,2.062c0,1.225,0.901,2.062,2.126,2.062C33.243,14.427,34.146,13.589,34.146,12.365L34.146,12.365
		L34.146,12.365z M36.786,11.012c0.516,0,0.645,0.064,0.902,0.193v2.384c-0.258,0.129-0.451,0.193-0.967,0.193
		c-0.837,0-1.288-0.451-1.288-1.417C35.434,11.334,36.078,11.012,36.786,11.012L36.786,11.012L36.786,11.012z M37.688,10.561
		c-0.322-0.193-0.58-0.258-1.03-0.258c-1.225,0-2.062,0.709-2.062,1.998c0,1.224,0.709,2.126,2.126,2.126
		c0.645,0,1.289-0.129,1.74-0.451V8.435L37.688,8.5V10.561z"/>
</g>
<g>
	<path fill="#FFD700" d="M154.94,16.231c0.451,0,0.838-0.387,0.838-0.838V7.534c0-0.451-0.387-0.838-0.838-0.838h-7.537
		c-0.451,0-0.838,0.387-0.838,0.838v7.859c0,0.451,0.387,0.838,0.838,0.838H154.94"/>
	<path fill="#1D1D1B" d="M147.403,6.502c-0.58,0-1.031,0.451-1.031,1.031v7.859c0,0.58,0.451,1.031,1.031,1.031h7.537
		c0.58,0,1.031-0.451,1.031-1.031V7.534c0-0.58-0.451-1.031-1.031-1.031H147.403 M146.759,15.393V7.534
		c0-0.322,0.258-0.645,0.645-0.645h7.537c0.322,0,0.645,0.258,0.645,0.645v7.859c0,0.322-0.258,0.645-0.645,0.645h-7.537
		C147.017,16.038,146.759,15.78,146.759,15.393"/>
	<path fill="#FFD700" d="M143.216,16.231c0.45,0,0.837-0.387,0.837-0.838V7.534c0-0.451-0.387-0.838-0.837-0.838h-7.538
		c-0.451,0-0.838,0.387-0.838,0.838v7.859c0,0.451,0.387,0.838,0.838,0.838H143.216"/>
	<path fill="#1D1D1B" d="M135.678,6.502c-0.58,0-1.03,0.451-1.03,1.031v7.859c0,0.58,0.45,1.031,1.03,1.031h7.538
		c0.579,0,1.03-0.451,1.03-1.031V7.534c0-0.58-0.451-1.031-1.03-1.031H135.678 M135.033,15.393V7.534
		c0-0.322,0.258-0.645,0.645-0.645h7.538c0.321,0,0.644,0.258,0.644,0.645v7.859c0,0.322-0.258,0.645-0.644,0.645h-7.538
		C135.355,16.038,135.033,15.78,135.033,15.393"/>
	<polyline fill="#1D1D1B" points="137.868,7.727 140.961,11.592 140.961,7.727 143.022,7.727 143.022,15.2 141.154,15.2 
		137.933,11.206 137.933,15.2 135.871,15.2 135.871,7.727 137.868,7.727 	"/>
	<path fill="#FFD700" d="M166.602,16.231c0.451,0,0.838-0.387,0.838-0.838V7.534c0-0.451-0.387-0.838-1.031-0.838h-7.538
		c-0.257,0-0.644,0.387-0.644,0.838v7.859c0,0.451,0.387,0.838,0.837,0.838H166.602"/>
	<path fill="#1D1D1B" d="M158.87,6.502c-0.386,0-0.837,0.451-0.837,1.031v7.859c0,0.58,0.451,1.031,1.03,1.031h7.538
		c0.58,0,1.03-0.451,1.03-1.031V7.534c0-0.58-0.515-1.031-1.224-1.031H158.87 M158.42,15.393V7.534c0-0.387,0.322-0.645,0.45-0.645
		h7.538c0.451,0,0.773,0.258,0.773,0.645v7.859c0,0.322-0.258,0.645-0.645,0.645h-7.538C158.742,16.038,158.42,15.78,158.42,15.393"
		/>
	<g>
		<path fill="#1D1D1B" d="M159.708,7.727h3.286c0.966,0,1.61,0.064,2.126,0.45c0.579,0.387,0.837,0.967,0.837,1.805
			c0,1.417-0.837,2.19-2.319,2.19h-1.804V15.2h-2.062V7.727H159.708z M162.93,10.69c0.708,0,1.03-0.129,1.03-0.708
			c0-0.58-0.322-0.709-1.03-0.709h-1.16v1.417H162.93z"/>
	</g>
	<path fill="#1D1D1B" d="M151.204,7.534c-2.19,0-3.543,1.481-3.543,3.93s1.353,3.93,3.607,3.93c1.933,0,3.157-1.095,3.285-2.964
		h-2.062c-0.129,0.773-0.515,1.225-1.224,1.225c-0.902,0-1.417-0.773-1.417-2.19c0-1.481,0.45-2.19,1.353-2.19
		c0.645,0,1.096,0.322,1.224,1.03h2.062C154.297,8.5,153.137,7.534,151.204,7.534z"/>
</g>
<g>
	<g>
		<path fill="#002E5F" d="M80.53,5.666c0.773,0,1.16,0.45,1.16,1.288V9.66h-1.096V7.147c0-0.387-0.193-0.645-0.515-0.645
			c-0.387,0-0.645,0.322-0.645,0.838V9.66H78.34V7.147c0-0.451-0.193-0.645-0.515-0.645c-0.387,0-0.645,0.322-0.645,0.773V9.66
			h-1.096V5.73h1.031v0.579c0.258-0.45,0.645-0.708,1.095-0.708c0.516,0,0.902,0.193,1.096,0.708
			C79.629,5.922,80.016,5.666,80.53,5.666"/>
		<path fill="#002E5F" d="M84.847,9.08c-0.257,0.451-0.708,0.709-1.288,0.709c-0.838,0-1.353-0.451-1.353-1.225
			c0-0.901,0.901-1.417,2.641-1.417V6.954c0-0.387-0.192-0.58-0.644-0.58s-0.773,0.193-0.838,0.58l-1.095-0.129
			c0.193-0.773,0.837-1.159,1.933-1.159c1.224,0,1.739,0.45,1.739,1.546v1.739c0,0.322,0,0.58,0.129,0.773h-1.16
			C84.911,9.531,84.847,9.337,84.847,9.08 M83.365,8.564c0,0.322,0.193,0.516,0.58,0.516c0.451,0,0.837-0.387,0.837-0.902V7.856
			C83.881,7.792,83.365,8.048,83.365,8.564L83.365,8.564z"/>
		<path fill="#002E5F" d="M86.587,5.794h1.03v0.644c0.258-0.451,0.645-0.708,1.16-0.708c0.837,0,1.288,0.45,1.288,1.481v2.513
			h-1.159V7.276c0-0.451-0.193-0.709-0.516-0.709c-0.387,0-0.709,0.322-0.709,0.902v2.319h-1.159"/>
		<path fill="#002E5F" d="M92.514,6.502c-0.451,0-0.709,0.451-0.709,1.289c0,0.837,0.258,1.288,0.709,1.288
			c0.387,0,0.645-0.258,0.709-0.773l0.966,0.129c-0.129,0.902-0.773,1.482-1.739,1.482c-1.096,0-1.868-0.838-1.868-2.062
			c0-1.225,0.772-2.062,1.997-2.062c0.901,0,1.546,0.579,1.675,1.481l-1.03,0.129C93.094,6.76,92.836,6.502,92.514,6.502"/>
		<path fill="#002E5F" d="M94.64,4.441h1.159v1.868c0.258-0.387,0.645-0.579,1.096-0.579c0.838,0,1.288,0.45,1.288,1.481v2.513
			h-1.159V7.276c0-0.451-0.193-0.709-0.516-0.709c-0.387,0-0.709,0.322-0.709,0.902v2.319H94.64"/>
		<path fill="#002E5F" d="M100.631,9.789c-1.224,0-1.997-0.838-1.997-2.062c0-1.225,0.838-2.062,2.062-2.062
			c1.16,0,1.868,0.772,1.868,2.126c0,0.064,0,0.129,0,0.129h-2.77c0,0.708,0.321,1.03,0.837,1.03c0.387,0,0.645-0.193,0.773-0.58
			l1.095,0.064C102.306,9.337,101.598,9.789,100.631,9.789 M101.404,7.276c0-0.58-0.258-0.902-0.773-0.902
			c-0.451,0-0.772,0.322-0.772,0.902H101.404L101.404,7.276z"/>
		<path fill="#002E5F" d="M103.724,8.5c0.129,0.387,0.451,0.58,0.966,0.58c0.451,0,0.709-0.193,0.709-0.451
			c0-0.322-0.322-0.322-0.967-0.451c-0.966-0.193-1.481-0.515-1.481-1.224s0.645-1.288,1.675-1.288c0.838,0,1.418,0.386,1.676,1.03
			l-0.902,0.193c-0.129-0.322-0.387-0.451-0.773-0.451c-0.386,0-0.579,0.129-0.579,0.387c0,0.322,0.386,0.322,1.159,0.451
			c0.902,0.193,1.353,0.516,1.353,1.159c0,0.773-0.708,1.354-1.868,1.354c-0.966,0-1.61-0.451-1.804-1.16"/>
		<path fill="#002E5F" d="M107.073,6.567h-0.644V5.794h0.644l0.064-1.096l1.031-0.064v1.16h0.837v0.772h-0.837v1.739
			c0,0.451,0.064,0.645,0.451,0.645c0.128,0,0.257,0,0.45-0.064v0.838c-0.258,0.064-0.515,0.064-0.772,0.064
			c-0.902,0-1.289-0.451-1.289-1.354"/>
		<path fill="#002E5F" d="M111.325,9.789c-1.224,0-1.997-0.838-1.997-2.062c0-1.225,0.838-2.062,2.062-2.062
			c1.16,0,1.868,0.772,1.868,2.126c0,0.064,0,0.129,0,0.129h-2.705c0,0.708,0.321,1.03,0.837,1.03c0.387,0,0.645-0.193,0.773-0.58
			l1.095,0.064C113.001,9.337,112.292,9.789,111.325,9.789 M112.099,7.276c0-0.58-0.258-0.902-0.773-0.902
			c-0.451,0-0.772,0.322-0.772,0.902H112.099L112.099,7.276z"/>
		<path fill="#002E5F" d="M113.773,5.794h1.031v0.837c0.193-0.645,0.515-0.901,1.095-0.901c0.064,0,0.129,0,0.193,0v1.03
			c-0.064,0-0.129,0-0.258,0c-0.58,0-0.901,0.387-0.901,1.031v1.933h-1.16"/>
	</g>
	<g>
		<path fill="#002E5F" d="M78.598,14.684c-0.258,0.516-0.708,0.773-1.288,0.773c-0.773,0-1.225-0.451-1.225-1.095
			c0-0.838,0.709-1.225,2.19-1.225c0.129,0,0.193,0,0.322,0V12.88c0-0.579-0.322-0.837-0.901-0.837c-0.58,0-0.902,0.193-0.967,0.644
			l-0.516-0.064c0.129-0.644,0.709-0.966,1.611-0.966c0.966,0,1.353,0.451,1.353,1.417v1.546c0,0.258,0,0.516,0.129,0.773h-0.58
			C78.598,15.135,78.598,14.942,78.598,14.684 M78.146,13.46c-0.966,0-1.481,0.322-1.481,0.838c0,0.386,0.258,0.644,0.773,0.644
			c0.645,0,1.159-0.579,1.159-1.288V13.46C78.469,13.46,78.275,13.46,78.146,13.46L78.146,13.46z"/>
		<path fill="#002E5F" d="M79.758,10.432h0.516v0.516h-0.516 M79.758,11.721h0.516v3.672h-0.516V11.721L79.758,11.721z"/>
		<path fill="#002E5F" d="M81.046,11.721h0.516v0.837c0.193-0.644,0.58-0.901,1.095-0.901c0.064,0,0.129,0,0.193,0v0.58
			c-0.064,0-0.064,0-0.064,0c-0.708,0-1.159,0.515-1.159,1.353v1.868h-0.58"/>
		<path fill="#002E5F" d="M83.236,11.721h0.516v0.708c0.258-0.515,0.645-0.837,1.095-0.837c0.773,0,1.418,0.709,1.418,1.933
			s-0.645,1.933-1.418,1.933c-0.45,0-0.837-0.258-1.03-0.645v1.869h-0.516 M84.718,14.942c0.58,0,0.967-0.515,0.967-1.417
			s-0.387-1.417-0.967-1.417c-0.515,0-0.966,0.45-0.966,1.095v0.645C83.752,14.556,84.139,14.942,84.718,14.942L84.718,14.942z"/>
		<path fill="#002E5F" d="M86.522,13.525c0-1.16,0.644-1.933,1.61-1.933c0.966,0,1.675,0.772,1.675,1.933
			c0,1.159-0.709,1.933-1.675,1.933C87.23,15.458,86.522,14.684,86.522,13.525 M89.228,13.525c0-0.902-0.45-1.481-1.03-1.481
			c-0.645,0-1.031,0.515-1.031,1.481s0.451,1.481,1.031,1.481C88.842,15.006,89.228,14.427,89.228,13.525L89.228,13.525z"/>
		<path fill="#002E5F" d="M90.259,11.721h0.516v0.837c0.193-0.644,0.579-0.901,1.095-0.901c0.064,0,0.129,0,0.193,0v0.58
			c-0.064,0-0.064,0-0.064,0c-0.709,0-1.159,0.515-1.159,1.353v1.868h-0.58"/>
		<path fill="#002E5F" d="M92.9,12.108h-0.645v-0.387H92.9v-0.902l0.579-0.064v0.902h0.838v0.387h-0.838v1.933
			c0,0.708,0.064,0.966,0.645,0.966c0.129,0,0.258,0,0.387-0.064v0.451c-0.129,0.064-0.322,0.064-0.451,0.064
			c-0.451,0-0.708-0.129-0.966-0.451c-0.129-0.193-0.129-0.579-0.129-1.03"/>
	</g>
	<g>
		<path fill="#002E5F" d="M98.376,22.931v-0.838h0.193c0.193,0,0.387-0.064,0.451-0.129c0.129-0.064,0.129-0.193,0.129-0.387
			c0-0.064,0-0.193-0.064-0.258s-0.064-0.129-0.129-0.193c-0.064-0.063-0.129-0.063-0.193-0.063s-0.193,0-0.322,0h-0.322v1.868
			H98.376L98.376,22.931z M98.376,21.191h0.129c0.129,0,0.258,0,0.322,0s0.129,0.064,0.129,0.064
			c0.064,0.064,0.064,0.064,0.064,0.129s0,0.129,0,0.129c0,0.129-0.064,0.258-0.129,0.258c-0.064,0.064-0.193,0.064-0.451,0.064
			h-0.129v-0.645H98.376z M99.923,21.32l0.321,0.838h-0.644L99.923,21.32L99.923,21.32z M99.278,22.931l0.258-0.645h0.772
			l0.258,0.645h0.193l-0.773-1.997l-0.837,1.997H99.278L99.278,22.931z M101.34,21.191c0.129,0,0.258,0,0.322,0.064
			s0.129,0.129,0.129,0.258s0,0.193-0.064,0.258s-0.193,0.064-0.322,0.064h-0.193v-0.709h0.129V21.191z M101.469,22.029
			c0.129,0,0.258-0.064,0.387-0.129c0.064-0.064,0.129-0.193,0.129-0.322c0-0.193-0.064-0.322-0.129-0.387
			c-0.129-0.064-0.258-0.128-0.451-0.128h-0.322v1.868h0.193v-0.902h0.129l0.645,0.902h0.192L101.469,22.029L101.469,22.029z
			 M102.886,22.931v-1.74h0.516v-0.192h-1.225v0.192h0.516v1.74H102.886L102.886,22.931z M105.076,22.802
			c-0.129-0.064-0.193-0.129-0.258-0.193s-0.129-0.193-0.193-0.258c-0.064-0.129-0.064-0.193-0.064-0.322s0-0.193,0.064-0.322
			s0.129-0.193,0.193-0.258s0.193-0.129,0.258-0.193c0.129-0.064,0.193-0.064,0.322-0.064s0.193,0,0.322,0.064
			s0.193,0.129,0.258,0.193s0.129,0.193,0.193,0.258c0.064,0.129,0.064,0.193,0.064,0.322s0,0.193-0.064,0.322
			s-0.129,0.193-0.193,0.258s-0.193,0.129-0.258,0.193c-0.129,0.064-0.193,0.064-0.322,0.064
			C105.334,22.867,105.205,22.802,105.076,22.802L105.076,22.802z M106.365,21.642c-0.064-0.129-0.129-0.258-0.193-0.322
			s-0.193-0.193-0.322-0.193c-0.129-0.063-0.258-0.063-0.387-0.063s-0.258,0-0.387,0.063c-0.129,0.064-0.258,0.129-0.322,0.193
			c-0.129,0.064-0.193,0.193-0.193,0.322c-0.064,0.129-0.064,0.258-0.064,0.387s0,0.258,0.064,0.387s0.129,0.258,0.193,0.322
			c0.129,0.064,0.193,0.193,0.322,0.193c0.129,0.064,0.258,0.064,0.387,0.064s0.258,0,0.387-0.064s0.258-0.129,0.322-0.193
			s0.193-0.193,0.193-0.322c0.064-0.129,0.064-0.258,0.064-0.387S106.43,21.771,106.365,21.642L106.365,21.642z M106.944,22.931
			v-0.967h0.709v-0.193h-0.709v-0.58h0.773v-0.192h-0.967v1.868h0.193V22.931z M110.682,22.931h0.257l-0.45-1.997l-0.58,1.224v0.064
			c-0.064,0.064-0.064,0.129-0.064,0.193l-0.064-0.193l-0.064-0.064l-0.58-1.224l-0.451,1.997h0.258l0.193-0.967
			c0-0.064,0-0.064,0-0.129v-0.064v-0.064l0.064,0.129c0,0.064,0.064,0.064,0.064,0.129l0.516,1.031l0.516-1.031
			c0-0.064,0.064-0.064,0.064-0.129s0-0.064,0.064-0.129v0.129v0.129L110.682,22.931L110.682,22.931z M111.261,22.931
			c0.064,0.064,0.064,0.064,0.129,0.064s0.064,0,0.129-0.064s0.064-0.064,0.064-0.129s0-0.064-0.064-0.129s-0.064-0.064-0.129-0.064
			s-0.064,0-0.129,0.064s-0.064,0.064-0.064,0.129S111.196,22.867,111.261,22.931L111.261,22.931z M112.614,21.771
			c0,0,0-0.064,0.064-0.129v-0.064v-0.064l0.064,0.129l0.064,0.064l0.193,0.451h-0.516L112.614,21.771L112.614,21.771z
			 M113.58,22.931l-0.901-1.997l-0.902,1.997h0.322l0.193-0.516h0.772l0.193,0.516H113.58L113.58,22.931z M113.838,22.931
			c0.064,0.064,0.064,0.064,0.129,0.064s0.064,0,0.129-0.064s0.064-0.064,0.064-0.129s0-0.064-0.064-0.129s-0.064-0.064-0.129-0.064
			s-0.064,0-0.129,0.064s-0.064,0.064-0.064,0.129S113.773,22.867,113.838,22.931L113.838,22.931z M115.319,22.222h0.451l0,0
			c0,0.129-0.064,0.258-0.129,0.322c-0.129,0.064-0.258,0.129-0.387,0.129c-0.192,0-0.386-0.064-0.515-0.193
			s-0.193-0.322-0.193-0.516s0.064-0.387,0.193-0.516s0.322-0.193,0.515-0.193c0.129,0,0.193,0,0.258,0.064s0.129,0.064,0.193,0.193
			l0.258-0.193c-0.064-0.129-0.193-0.193-0.322-0.257c-0.129-0.064-0.258-0.064-0.387-0.064c-0.128,0-0.257,0-0.386,0.064
			c-0.129,0.063-0.258,0.128-0.322,0.192s-0.193,0.193-0.193,0.322c-0.064,0.129-0.064,0.258-0.064,0.387s0,0.258,0.064,0.387
			s0.129,0.258,0.193,0.322s0.193,0.129,0.322,0.193s0.258,0.064,0.386,0.064c0.258,0,0.516-0.064,0.645-0.193
			s0.258-0.387,0.258-0.645v-0.129V21.9h-0.773v0.322H115.319z"/>
	</g>
	<g>
		<rect x="76.085" y="19.258" fill="#002E5F" width="40.008" height="0.258"/>
	</g>
	<g>
		
			<linearGradient id="SVGID_1_" gradientUnits="userSpaceOnUse" x1="226.0928" y1="271.6694" x2="231.7902" y2="277.3669" gradientTransform="matrix(0.6442 0 0 -0.6442 -75.6009 192.705)">
			<stop  offset="0" style="stop-color:#85CFF4"/>
			<stop  offset="0.0894" style="stop-color:#91D3F5"/>
			<stop  offset="0.3739" style="stop-color:#B1DFF8"/>
			<stop  offset="0.5309" style="stop-color:#BDE3F9"/>
			<stop  offset="0.6746" style="stop-color:#B0DEF8"/>
			<stop  offset="0.9399" style="stop-color:#8ED2F5"/>
			<stop  offset="1" style="stop-color:#85CFF4"/>
		</linearGradient>
		<path fill="url(#SVGID_1_)" d="M76.923,17.197c0,0-4.188-1.804-6.571-6.185c0,0-0.966,1.739-0.966,3.736
			c0.063,2.319,1.224,5.154,4.573,4.124C75.828,18.292,76.923,17.197,76.923,17.197z"/>
		
			<linearGradient id="SVGID_2_" gradientUnits="userSpaceOnUse" x1="220.7051" y1="275.5269" x2="240.3031" y2="295.1249" gradientTransform="matrix(0.6442 0 0 -0.6442 -75.6009 192.705)">
			<stop  offset="0" style="stop-color:#929EA5"/>
			<stop  offset="0.1141" style="stop-color:#9BA6AD"/>
			<stop  offset="0.3003" style="stop-color:#B3BCC1"/>
			<stop  offset="0.5338" style="stop-color:#DBE0E2"/>
			<stop  offset="0.6854" style="stop-color:#F8FBFB"/>
			<stop  offset="0.7883" style="stop-color:#E7ECED"/>
			<stop  offset="0.9921" style="stop-color:#BAC4CA"/>
			<stop  offset="1" style="stop-color:#B8C2C9"/>
		</linearGradient>
		<path fill="url(#SVGID_2_)" d="M72.026,19c0,0-2.062-0.257-2.448-4.188c-0.386-3.865,5.283-11.017,6.7-13.206
			c1.547-2.384-0.515-1.482-1.481-1.225s-6.636,2.19-8.697,7.151C64.296,11.85,67.195,17.97,72.026,19"/>
	</g>
</g>
</svg>
