<?xml version="1.0" encoding="utf-8"?>
<!-- Generator: Adobe Illustrator 16.0.0, SVG Export Plug-In . SVG Version: 6.00 Build 0)  -->
<!DOCTYPE svg PUBLIC "-//W3C//DTD SVG 1.1//EN" "http://www.w3.org/Graphics/SVG/1.1/DTD/svg11.dtd">
<svg version="1.1" id="Layer_1" xmlns="http://www.w3.org/2000/svg" xmlns:xlink="http://www.w3.org/1999/xlink" x="0px" y="0px"
	 width="92.707px" height="10.114px" viewBox="0 0 92.707 10.114" enable-background="new 0 0 92.707 10.114" xml:space="preserve">
<g>
	<path d="M74.475,4.252c0.064,0.193,0.193,0.387,0.193,0.515c0.193,0.709-0.193,1.418-0.902,1.676
		c-0.386,0.193-0.837,0.193-1.224,0.129c-0.064,0-0.129,0-0.129,0.064c-0.193,0.257-0.129,0.515,0.193,0.579
		c0.193,0.064,0.451,0.064,0.709,0.064c0.386,0,0.708,0.064,1.095,0.193c0.645,0.193,0.967,0.838,0.773,1.482
		c-0.129,0.321-0.387,0.579-0.709,0.708c-0.451,0.258-0.902,0.322-1.417,0.322c-0.387,0-0.838,0-1.225-0.193
		s-0.644-0.451-0.644-0.901c0-0.258,0.063-0.451,0.257-0.58s0.387-0.258,0.58-0.387c-0.064,0-0.129-0.064-0.193-0.064
		c-0.258-0.129-0.387-0.451-0.258-0.709c0.129-0.193,0.258-0.322,0.387-0.515c0.064-0.064,0.064-0.064,0.129-0.129
		c-0.064,0-0.064-0.064-0.129-0.064c-0.58-0.258-0.772-0.773-0.708-1.354c0.128-0.772,0.772-1.353,1.61-1.353
		c0.451,0,0.837,0.064,1.288,0.129c0.064,0,0.193,0,0.258,0.064c0.129,0,0.258,0,0.322-0.129l0.064-0.064c0.064,0,0.064,0,0.129,0
		c0,0,0.064,0.064,0.064,0.129c0,0.129-0.064,0.258-0.064,0.387c0,0.064-0.129,0.129-0.193,0.129c-0.129,0-0.193,0-0.322,0
		C74.539,4.252,74.475,4.252,74.475,4.252z M73.187,9.728c0.129,0,0.322,0,0.45-0.064c0.258-0.064,0.516-0.129,0.709-0.387
		c0.258-0.258,0.193-0.644-0.129-0.837c-0.129-0.064-0.193-0.129-0.322-0.129c-0.386-0.064-0.772-0.129-1.159-0.193
		c-0.258-0.064-0.451,0.064-0.58,0.258c0,0,0,0,0,0.064c-0.322,0.387-0.193,0.901,0.258,1.159
		C72.606,9.728,72.864,9.728,73.187,9.728z M73.766,5.411c0-0.387-0.064-0.709-0.321-1.03c-0.129-0.193-0.322-0.322-0.58-0.322
		s-0.451,0.193-0.516,0.516c-0.064,0.257-0.064,0.515,0,0.837s0.129,0.58,0.387,0.773c0.322,0.322,0.773,0.258,0.966-0.193
		C73.766,5.798,73.766,5.604,73.766,5.411z"/>
	<path d="M76.794,7.73c-0.58,0-1.224,0-1.804,0c0-0.129,0-0.193,0-0.322c0.129,0,0.258,0,0.387,0s0.129-0.064,0.129-0.129
		s0-0.064,0-0.129c0-1.353,0-2.641,0-3.994c0-0.193,0-0.387-0.064-0.516c-0.064-0.321-0.258-0.45-0.516-0.45
		c-0.064,0-0.129,0-0.193,0c0-0.064,0-0.064,0-0.129s0-0.129,0-0.193c0.064,0,0.193,0,0.258,0c0.387,0,0.773,0,1.095,0
		c0.064,0,0.129,0,0.193,0.064c1.096,1.288,2.19,2.577,3.286,3.93c0,0,0.064,0.064,0.064,0.129c0-0.064,0-0.064,0-0.129
		c0-0.967,0-1.933,0-2.964c0-0.193,0-0.322-0.064-0.515C79.5,2.19,79.436,2.126,79.242,2.126c-0.129,0-0.258,0-0.387,0
		c0-0.129,0-0.193,0-0.322c0.58,0,1.096,0,1.675,0c0,0.064,0,0.193,0,0.322c-0.129,0-0.193,0-0.321,0c-0.193,0-0.193,0-0.193,0.193
		c0,1.739,0,3.479,0,5.153c0,0.064,0,0.064,0,0.064c0,0.064,0,0.064-0.064,0.129c-0.064,0-0.064-0.064-0.129-0.064
		c-0.451-0.516-0.902-1.03-1.354-1.546c-0.837-1.031-1.739-1.997-2.576-3.028c0,0-0.064-0.064-0.064-0.129c0,0.064,0,0.064,0,0.064
		c0,1.16,0,2.319,0,3.479c0,0.193,0.064,0.386,0.064,0.579c0.063,0.193,0.128,0.193,0.321,0.193c0.129,0,0.322,0,0.451,0
		C76.794,7.537,76.794,7.666,76.794,7.73z"/>
	<path d="M50.251,4.381L50.251,4.381c0.516,0,1.031,0,1.482,0c0.257,0,0.386-0.129,0.386-0.387c0-0.064,0-0.129,0-0.193
		c0.064,0,0.064,0,0.129,0s0.064,0,0.129,0c0,0.516,0,1.03,0,1.61c-0.064,0-0.193,0-0.258,0c0-0.129,0-0.193,0-0.322
		s-0.064-0.193-0.193-0.258c-0.129,0-0.257-0.064-0.321-0.064c-0.387,0-0.838,0-1.225,0h-0.064c0,0,0,0,0,0.064
		c0,0.709,0,1.482,0,2.19v0.064c0.064,0.322,0.129,0.387,0.451,0.387c0.516,0,1.03,0,1.546-0.129
		c0.258-0.064,0.451-0.193,0.645-0.387c0.064-0.064,0.129-0.129,0.193-0.129c0.064-0.064,0.129,0,0.129,0.129
		c0,0.064,0,0.064,0,0.129c-0.064,0.193-0.129,0.387-0.193,0.58c0,0.129-0.064,0.129-0.193,0.129c-1.353,0-2.642,0-3.93,0
		c-0.064,0-0.064,0-0.129,0c0-0.129,0-0.193,0-0.322c0.129,0,0.193,0,0.322,0c0.193,0,0.193-0.064,0.193-0.193
		c0-1.417,0-2.834,0-4.252c0-0.129,0-0.322-0.064-0.451c-0.064-0.193-0.129-0.257-0.322-0.257c-0.129,0-0.193,0-0.322,0
		c0-0.129,0-0.193,0-0.322c1.481,0,2.964,0,4.445,0c-0.064,0.258-0.064,0.515-0.129,0.837c0,0.064-0.064,0.064-0.064,0.064
		c-0.064,0-0.064,0-0.129-0.064l0,0c-0.129-0.322-0.387-0.387-0.645-0.451c-0.515-0.063-1.03-0.063-1.546-0.063
		c-0.129,0-0.193,0.063-0.193,0.128C50.251,3.092,50.251,3.672,50.251,4.381C50.251,4.316,50.251,4.316,50.251,4.381z"/>
	<path d="M85.942,4.123c0-0.129,0-0.193,0-0.258c0.58,0,1.159,0,1.804,0c0,0.064,0,0.193,0,0.258c-0.064,0-0.129,0-0.193,0
		c-0.193,0-0.258,0.064-0.193,0.258c0.193,0.515,0.387,1.03,0.58,1.546c0.064,0.129,0.064,0.258,0.129,0.387
		c0,0.064,0.064,0.129,0.064,0.193c0-0.064,0.064-0.064,0.064-0.064c0.193-0.58,0.451-1.096,0.645-1.676
		c0.063-0.128,0.063-0.257,0.063-0.386s0-0.193-0.192-0.193c-0.129,0-0.193,0-0.322,0c0-0.064,0-0.193,0-0.258
		c0.451,0,0.901,0,1.353,0c0,0.064,0,0.193,0,0.258l0,0c-0.322-0.064-0.387,0.129-0.516,0.387c-0.45,1.03-0.837,2.062-1.288,3.092
		c0,0.064-0.064,0.129-0.064,0.193s-0.064,0.064-0.064,0.064c0-0.064-0.064-0.064-0.064-0.129c-0.129-0.387-0.322-0.773-0.451-1.159
		c-0.193-0.451-0.322-0.902-0.515-1.354c0,0.064-0.064,0.129-0.064,0.129c-0.322,0.709-0.645,1.481-0.902,2.19
		c0,0.064-0.064,0.129-0.064,0.129c-0.064,0.064-0.129,0.064-0.193,0c-0.064-0.193-0.129-0.387-0.193-0.58
		c-0.322-0.901-0.708-1.804-1.03-2.705c0-0.064-0.064-0.129-0.064-0.129c-0.064-0.193-0.193-0.322-0.451-0.258h-0.064
		c0-0.064,0-0.193,0-0.258c0.58,0,1.224,0,1.804,0c0,0.064,0,0.193,0,0.258c-0.064,0-0.129,0-0.193,0
		c-0.129,0-0.193,0.129-0.129,0.258c0.258,0.644,0.451,1.288,0.709,1.933c0,0.064,0.064,0.129,0.064,0.193
		c0-0.064,0.064-0.064,0.064-0.129c0.193-0.451,0.387-0.902,0.58-1.354c0-0.064,0-0.129,0-0.193
		c-0.064-0.128-0.129-0.257-0.129-0.386C86.329,4.252,86.265,4.059,85.942,4.123z"/>
	<path d="M71.383,7.473c0,0.129,0,0.193,0,0.258c-0.645,0-1.289,0-1.934,0c0-0.064,0-0.193,0-0.258c0.129,0,0.193,0,0.322,0
		c0.064,0,0.129-0.064,0.129-0.129c0-0.772,0-1.546,0-2.319c0-0.064,0-0.129-0.064-0.258c-0.129-0.386-0.322-0.515-0.708-0.45
		c-0.322,0.064-0.516,0.193-0.773,0.322L68.29,4.702c0,0.773,0,1.547,0,2.384c0,0.064,0,0.129,0,0.193
		c0.064,0.129,0.129,0.193,0.258,0.193c0.064,0,0.193,0,0.322,0c0,0.129,0,0.193,0,0.258c-0.645,0-1.289,0-1.997,0
		c0-0.064,0-0.193,0-0.258c0.129,0,0.193,0,0.322,0c0.128,0,0.128-0.064,0.128-0.193c0-0.708,0-1.417,0-2.126
		c0-0.258,0-0.451,0-0.708c0-0.258-0.128-0.322-0.386-0.322c-0.064,0-0.129,0-0.258,0c0-0.064,0-0.129,0-0.258
		c0.516-0.064,1.03-0.064,1.546-0.129c0,0.193,0,0.387,0,0.645c0.129-0.064,0.258-0.193,0.322-0.258
		c0.322-0.193,0.709-0.387,1.159-0.387c0.645,0,1.031,0.387,1.096,1.03c0,0.645,0,1.354,0,1.998c0,0.128,0,0.321,0,0.45
		c0,0.193,0.129,0.258,0.322,0.258C71.254,7.473,71.318,7.473,71.383,7.473z"/>
	<path d="M61.977,7.473c0,0.129,0,0.193,0,0.258c-0.645,0-1.289,0-1.997,0c0-0.064,0-0.193,0-0.258c0.129,0,0.193,0,0.322,0
		s0.129-0.064,0.129-0.193c0-0.901,0-1.804,0-2.705c0-0.387-0.064-0.451-0.516-0.451c-0.064,0-0.129,0-0.193,0
		c0-0.064,0-0.193,0-0.258c0.516-0.064,1.03-0.064,1.546-0.129c0,0.193,0,0.387,0,0.645c0.129-0.064,0.258-0.193,0.387-0.258
		c0.387-0.258,0.773-0.387,1.224-0.387c0.516,0.064,0.902,0.387,0.967,0.966c0,0.451,0,0.838,0,1.289c0,0.387,0,0.773,0,1.159
		c0,0.322,0.129,0.387,0.387,0.387c0.064,0,0.129,0,0.193,0c0,0.064,0,0.193,0,0.258c-0.645,0-1.289,0-1.933,0
		c0-0.064,0-0.193,0-0.258c0.064,0,0.193,0,0.258,0c0.128,0,0.128-0.064,0.128-0.129c0-0.708,0-1.417,0-2.126
		c0-0.129,0-0.322-0.063-0.451c-0.064-0.386-0.322-0.515-0.709-0.45c-0.322,0.064-0.58,0.193-0.773,0.321
		c0,0-0.064,0.064-0.064,0.129c0,0.773,0,1.547,0,2.319c0,0.064,0,0.129,0,0.193c0.064,0.129,0.129,0.193,0.258,0.193
		C61.783,7.473,61.848,7.473,61.977,7.473z"/>
	<path d="M59.915,5.024c-0.838,0.258-1.739,0.451-2.577,0.709c0.064,0.516,0.129,1.031,0.516,1.353
		c0.387,0.322,0.772,0.387,1.224,0.258c0.193-0.064,0.387-0.193,0.645-0.322c0.064,0,0.064-0.064,0.129-0.064
		c0.064,0.064,0.129,0.129,0.129,0.193c-0.258,0.193-0.516,0.387-0.773,0.516c-0.516,0.193-0.966,0.258-1.481,0.129
		c-0.58-0.129-1.031-0.516-1.16-1.095c-0.258-0.773-0.193-1.611,0.322-2.255c0.58-0.773,1.675-0.967,2.448-0.387
		C59.528,4.316,59.786,4.639,59.915,5.024z M58.884,4.96L58.884,4.96c0-0.064,0-0.064,0-0.129c-0.129-0.257-0.193-0.515-0.451-0.708
		c-0.257-0.193-0.515-0.193-0.708,0.064c-0.322,0.322-0.322,0.772-0.387,1.224C57.854,5.282,58.368,5.089,58.884,4.96z"/>
	<path d="M84.01,5.024c-0.387,0.129-0.773,0.193-1.16,0.322c-0.45,0.129-0.901,0.258-1.353,0.322c-0.064,0-0.129,0.064-0.064,0.129
		c0.064,0.193,0.064,0.451,0.129,0.645c0.258,0.966,1.095,1.095,1.739,0.837c0.193-0.064,0.451-0.193,0.645-0.322
		c0,0.064,0.064,0.129,0.129,0.193c-0.064,0.064-0.129,0.129-0.193,0.193c-0.58,0.451-1.225,0.645-1.933,0.516
		c-0.709-0.129-1.16-0.516-1.354-1.159c-0.193-0.709-0.129-1.418,0.193-2.062c0.516-0.838,1.611-1.16,2.448-0.645
		C83.559,4.188,83.945,4.702,84.01,5.024z M83.043,4.96c-0.129-0.258-0.258-0.45-0.387-0.644c-0.321-0.387-0.772-0.322-1.03,0.064
		c-0.193,0.321-0.193,0.644-0.193,1.03C81.948,5.282,82.463,5.089,83.043,4.96z"/>
	<path d="M91.418,3.736c0.258,0,0.58,0.064,0.902,0.129c0.064,0,0.064,0.064,0.129,0.129c0,0.193,0,0.322,0.064,0.516
		c0,0.064-0.064,0.129-0.064,0.129c-0.064,0-0.129,0-0.129-0.064l0,0c-0.193-0.451-0.645-0.516-1.096-0.516
		c-0.192,0-0.386,0.064-0.515,0.129c-0.322,0.193-0.322,0.579,0,0.772c0.258,0.129,0.515,0.193,0.708,0.322
		c0.258,0.129,0.516,0.193,0.709,0.322c0.838,0.451,0.645,1.353,0.193,1.739c-0.258,0.258-0.645,0.387-0.967,0.451
		c-0.579,0.129-1.095,0.064-1.675-0.129c-0.064,0-0.129-0.064-0.129-0.129c0-0.193-0.064-0.451-0.064-0.645
		c0-0.064,0-0.129,0.064-0.129c0.064-0.063,0.129,0,0.193,0.064v0.064c0.129,0.387,0.451,0.58,0.773,0.645s0.644,0.064,0.901-0.129
		c0.258-0.129,0.451-0.387,0.387-0.645c0-0.128-0.129-0.257-0.193-0.321c-0.193-0.129-0.451-0.193-0.644-0.322
		c-0.258-0.129-0.516-0.193-0.773-0.258c-0.387-0.193-0.645-0.516-0.58-1.031c0.064-0.45,0.258-0.708,0.645-0.901
		C90.646,3.801,90.968,3.736,91.418,3.736z"/>
	<path d="M55.341,3.865c0.516,0,1.03,0,1.546,0c0,0.064,0,0.193,0,0.258c-0.064,0-0.064,0-0.129,0c-0.193,0-0.258,0.064-0.387,0.193
		c-0.128,0.258-0.257,0.579-0.386,0.837c-0.387,0.838-0.773,1.739-1.16,2.577c0,0.064-0.064,0.064-0.064,0.129
		c-0.064-0.064-0.129-0.129-0.129-0.193c-0.193-0.387-0.387-0.838-0.515-1.224c-0.322-0.645-0.58-1.289-0.902-1.933
		c0-0.064-0.064-0.129-0.129-0.193c-0.129-0.193-0.258-0.322-0.451-0.258H52.57c0-0.064,0-0.193,0-0.258c0.709,0,1.354,0,2.062,0
		c0,0.064,0,0.193,0,0.258c-0.064,0-0.129,0-0.258,0c-0.193,0-0.258,0.129-0.193,0.258c0.258,0.644,0.58,1.288,0.838,1.933
		c0,0.064,0.064,0.064,0.064,0.129l0.064-0.064c0.258-0.58,0.516-1.16,0.773-1.739c0.064-0.064,0.064-0.193,0.064-0.258
		c0-0.129-0.064-0.193-0.193-0.258c-0.129,0-0.258,0-0.387,0C55.341,4.059,55.341,3.93,55.341,3.865z"/>
	<path d="M66.035,3.736c0,0.129,0,0.193,0,0.322c0,0.901,0,1.804,0,2.705c0,0.129,0,0.322,0.064,0.451
		c0.064,0.193,0.129,0.258,0.322,0.258c0.129,0,0.193,0,0.322,0c0,0.129,0,0.193,0,0.258c-0.709,0-1.418,0-2.126,0
		c0-0.064,0-0.193,0-0.258c0.129,0,0.193,0,0.321,0c0.129,0,0.129-0.064,0.129-0.129c0-0.837,0-1.739,0-2.577
		c0-0.128,0-0.257-0.064-0.386c-0.063-0.193-0.128-0.258-0.321-0.258c-0.129,0-0.193,0-0.322,0c0-0.064,0-0.129,0-0.258
		C65.004,3.801,65.52,3.801,66.035,3.736z"/>
	<path d="M55.792,2.77c0-0.064,0-0.064,0-0.129l0,0c0.193,0,0.193,0,0.193-0.257c0-0.516,0-1.031,0-1.547c0-0.064,0-0.064,0-0.129
		l0,0c-0.322,0.709-0.58,1.354-0.902,2.062c0,0,0,0-0.064,0c-0.322-0.644-0.58-1.288-0.902-1.933c0,0.064,0,0.064,0,0.064
		c0,0.516,0,0.967,0,1.482c0,0.257,0.064,0.321,0.322,0.321h0.064c0,0.064,0,0.064,0,0.129c-0.258,0-0.516,0-0.837,0
		c0-0.064,0-0.064,0-0.129h0.064c0.192,0,0.192,0,0.192-0.193c0-0.579,0-1.224,0-1.804c0-0.258-0.064-0.258-0.257-0.258h-0.064
		c0-0.064,0-0.064,0-0.128h0.064c0.192,0,0.45,0,0.644,0c0.064,0,0.064,0.063,0.129,0.063c0.258,0.516,0.516,1.031,0.709,1.547
		c0,0.064,0.064,0.064,0.064,0.129c0-0.064,0.064-0.129,0.064-0.129c0.193-0.516,0.451-1.031,0.645-1.547
		c0-0.063,0.063-0.128,0.128-0.128c0.193,0,0.387,0,0.58,0c0,0.064,0,0.064,0,0.128l0,0c-0.193,0-0.193,0-0.193,0.258
		c0,0.58,0,1.16,0,1.74c0,0.063,0,0.063,0,0.128c0,0.129,0.064,0.193,0.193,0.193c0.064,0,0.064,0,0.129,0c0,0.064,0,0.064,0,0.129
		C56.436,2.77,56.114,2.77,55.792,2.77z"/>
	<path d="M64.167,2.705c0,0.064,0,0.064,0,0.129c-0.258,0-0.58,0-0.838,0c0,0,0-0.064,0-0.129c0.064,0,0.064,0,0.129,0l0.064-0.064
		c0-0.321,0-0.579,0-0.901c0-0.387-0.193-0.516-0.58-0.322c-0.064,0.064-0.129,0.129-0.129,0.193c0,0.258,0,0.516,0,0.709v0.064
		c0,0.257,0,0.257,0.258,0.321c0,0,0,0.064,0,0.129c-0.322,0-0.579,0-0.837,0c0-0.064,0-0.064,0-0.129l0,0
		c0.193,0,0.193,0,0.193-0.193c0-0.644,0-1.288,0-1.933c0-0.064,0-0.129,0-0.129c0-0.257,0-0.257-0.258-0.257
		c0-0.064,0-0.064,0-0.129h0.064C62.428,0.064,62.62,0,62.878,0c0,0.45,0,0.901,0,1.353c0.064-0.064,0.129-0.129,0.193-0.129
		c0.129-0.064,0.193-0.129,0.322-0.129c0.322-0.064,0.58,0.129,0.645,0.451c0,0.322,0,0.58,0,0.901
		C63.909,2.641,63.974,2.641,64.167,2.705z"/>
	<path d="M60.623,2.705c0,0.064,0,0.064,0,0.129c-0.257,0-0.579,0-0.837,0c0-0.064,0-0.064,0-0.129c0.064,0,0.064,0,0.064,0
		c0.064,0,0.129-0.064,0.129-0.129c0-0.257,0-0.579,0-0.837c0-0.387-0.258-0.516-0.58-0.322c-0.064,0.064-0.129,0.129-0.129,0.193
		c0,0.258,0,0.58,0,0.837c0,0.258,0,0.258,0.258,0.258c0,0.064,0,0.064,0,0.129c-0.322,0-0.58,0-0.838,0c0-0.064,0-0.064,0-0.129
		l0,0c0.193,0,0.193,0,0.193-0.193c0-0.321,0-0.644,0-0.966c0-0.258,0-0.258-0.258-0.258c0-0.064,0-0.129,0.064-0.129
		c0.193,0,0.387,0,0.58-0.064c0,0.064,0,0.193,0,0.258c0.064-0.064,0.129-0.064,0.193-0.129c0.193-0.129,0.387-0.193,0.58-0.129
		s0.322,0.193,0.322,0.387s0,0.387,0,0.645c0,0.129,0,0.257,0,0.386S60.366,2.641,60.623,2.705z"/>
	<path d="M58.497,2.576c-0.064,0.064-0.064,0.129-0.129,0.193c0,0-0.063,0.064-0.128,0.064c-0.193,0-0.258-0.064-0.451-0.258
		c-0.064,0.064-0.129,0.129-0.193,0.129c-0.129,0.064-0.193,0.129-0.322,0.129c-0.193,0.064-0.322,0-0.451-0.129
		c-0.064-0.129-0.129-0.321,0-0.45c0.064-0.064,0.193-0.193,0.258-0.258c0.193-0.064,0.387-0.193,0.58-0.258
		c0.064,0,0.064-0.064,0.064-0.129s0-0.064,0-0.129c0-0.322-0.258-0.451-0.516-0.258l-0.064,0.064
		c-0.064,0.064-0.064,0.193-0.129,0.258s-0.129,0.129-0.258,0.064c-0.064-0.064-0.064-0.129-0.064-0.193
		c0.064-0.064,0.129-0.193,0.193-0.193c0.258-0.193,0.58-0.193,0.902-0.129c0.129,0,0.193,0.064,0.258,0.258
		c0,0.258,0,0.451,0,0.709c0,0.064,0,0.129,0,0.193C58.24,2.383,58.24,2.576,58.497,2.576z M57.854,1.868
		c-0.193,0.064-0.387,0.129-0.451,0.258c-0.064,0.064-0.064,0.129-0.064,0.193c0,0.128,0.064,0.321,0.258,0.257
		c0.129,0,0.193-0.064,0.322-0.129V2.383C57.854,2.19,57.854,2.062,57.854,1.868z"/>
	<path d="M65.777,1.61c-0.387,0.129-0.709,0.193-1.095,0.322c0,0.258,0.064,0.515,0.257,0.644c0.258,0.193,0.58,0.064,0.773-0.064
		l0,0c0,0,0,0,0,0.064l0,0c-0.258,0.258-0.645,0.387-1.03,0.258c-0.193-0.064-0.387-0.193-0.451-0.387
		c-0.129-0.386-0.129-0.772,0.129-1.095c0.193-0.258,0.451-0.387,0.772-0.258C65.455,1.095,65.713,1.353,65.777,1.61z M65.326,1.61
		c-0.064-0.129-0.129-0.193-0.193-0.322c-0.129-0.129-0.257-0.129-0.386,0c-0.064,0.129-0.129,0.322-0.129,0.451
		C64.876,1.739,65.068,1.675,65.326,1.61z"/>
	<path d="M68.935,1.933c0,0.708,0.579,0.901,1.095,0.579l0.064,0.064c-0.258,0.322-0.773,0.387-1.095,0.258
		c-0.258-0.129-0.387-0.322-0.451-0.579c-0.064-0.258-0.064-0.516,0.129-0.773c0.193-0.322,0.451-0.451,0.772-0.387
		c0.322,0,0.516,0.258,0.645,0.516c0,0,0,0,0,0.064C69.707,1.739,69.32,1.804,68.935,1.933z M69.643,1.61
		c-0.064-0.129-0.129-0.258-0.193-0.322c-0.129-0.129-0.257-0.129-0.386,0c-0.064,0.129-0.129,0.322-0.129,0.451
		C69.192,1.739,69.385,1.675,69.643,1.61z"/>
	<path d="M66.486,2.898c-0.129,0-0.258-0.064-0.451-0.064c-0.064,0-0.129-0.064-0.129-0.129s0-0.129,0-0.258
		c0,0,0-0.064,0.064-0.064c0,0,0.064,0,0.064,0.064c0.193,0.258,0.387,0.322,0.645,0.258c0.064,0,0.129-0.064,0.129-0.064
		c0.129-0.129,0.129-0.258,0-0.386c-0.064-0.064-0.193-0.064-0.258-0.129c-0.129-0.064-0.258-0.064-0.322-0.129
		c-0.322-0.193-0.322-0.58-0.064-0.773s0.58-0.193,0.837-0.129c0.064,0,0.129,0,0.129,0.064s0,0.193,0,0.258
		c0,0,0,0.064-0.064,0.064c0,0-0.063,0-0.063-0.064c-0.129-0.193-0.322-0.258-0.58-0.193c-0.064,0-0.064,0.064-0.129,0.064
		c-0.129,0.064-0.129,0.258,0,0.322c0.064,0.064,0.193,0.064,0.258,0.129c0.129,0.064,0.258,0.064,0.387,0.129
		c0.321,0.193,0.321,0.579,0.063,0.772C66.938,2.834,66.68,2.834,66.486,2.898z"/>
	<path d="M71.125,2.705c0,0.064,0,0.064,0,0.129h-0.064c-0.258,0-0.58,0-0.902,0c0-0.064,0-0.064,0-0.129
		c0.193-0.064,0.193-0.064,0.193-0.258c0-0.321,0-0.644,0-0.901s0-0.258-0.258-0.322c0-0.064,0-0.129,0.064-0.129
		c0.193,0,0.387,0,0.645-0.064c0,0.064,0,0.193,0,0.322c0.064-0.064,0.193-0.129,0.258-0.193c0.129-0.064,0.258-0.129,0.386-0.064
		c0.064,0,0.129,0.064,0.064,0.129c0,0.064,0,0.129-0.064,0.193c0,0.064-0.063,0.129-0.128,0.064
		c-0.129-0.129-0.387-0.129-0.516,0.064V1.61c0,0.258,0,0.516,0,0.837C70.803,2.641,70.803,2.641,71.125,2.705
		C71.061,2.705,71.125,2.705,71.125,2.705z"/>
	<path d="M62.105,2.512c0,0.064,0.064,0.064,0.064,0.064c-0.258,0.258-0.773,0.387-1.096,0.193
		c-0.322-0.129-0.515-0.515-0.387-0.966c0.129-0.516,0.58-0.838,1.096-0.773c0.129,0,0.258,0.064,0.322,0.193s0.064,0.193,0,0.258
		s-0.193,0-0.258-0.064s-0.064-0.129-0.064-0.129c-0.064-0.129-0.064-0.129-0.193-0.129c-0.193,0-0.258,0.129-0.322,0.258
		c-0.129,0.322-0.129,0.58,0,0.902c0.129,0.321,0.516,0.45,0.838,0.257C62.041,2.576,62.041,2.512,62.105,2.512z"/>
	<path d="M67.646,1.288c-0.064,0-0.129,0-0.193,0l0,0c0.193-0.193,0.387-0.387,0.58-0.58l0,0c0,0.129,0,0.258,0,0.387
		c0.129,0,0.322,0,0.451,0c0,0.193,0,0.193-0.129,0.193c-0.064,0-0.193,0-0.258,0c0,0.129,0,0.193,0,0.322c0,0.258,0,0.516,0,0.773
		c0,0.321,0.129,0.386,0.387,0.321h0.064c0,0,0,0.064,0.064,0.129c-0.193,0.129-0.451,0.193-0.709,0.129
		c-0.129,0-0.193-0.129-0.193-0.193s0-0.129,0-0.258C67.646,1.997,67.646,1.675,67.646,1.288z"/>
</g>
<path fill="#1D1D1B" d="M27.188,2.576c-0.064,0-0.064,0-0.129,0h-0.064c-0.064,0-0.129,0-0.193,0s-0.129,0-0.129,0
	c-0.064,0-0.193,0-0.258,0s-0.064,0-0.064,0c-0.064,0-0.129,0-0.193,0s-0.064,0-0.129,0s-0.129,0-0.129,0h-0.064H25.77h-0.063
	h-0.064c-0.064,0-0.064,0-0.129,0c-0.193,0.064-0.451,0.129-0.645,0.193c-0.129,0.064-0.193,0.064-0.258,0.129
	s-0.129,0.064-0.193,0.129s-0.129,0.064-0.193,0.129c-0.064,0-0.064,0.064-0.129,0.064L24.03,3.285
	c-0.064,0.064-0.129,0.064-0.193,0.129s-0.129,0.064-0.129,0.129c-0.064,0.064-0.064,0.064-0.129,0.129
	c-0.063,0.064-0.063,0.064-0.128,0.129s-0.064,0.064-0.129,0.129c0,0.064-0.064,0.064-0.064,0.129l-0.064,0.064
	C23.129,4.252,23,4.445,22.936,4.639c-0.064,0.192-0.129,0.45-0.193,0.708c0,0.064,0,0.193,0,0.258s0,0.129,0,0.193s0,0.129,0,0.129
	c0,0.064,0,0.129,0,0.129V6.12c0,0.064,0,0.129,0,0.193v0.064c0,0.064,0,0.064,0.064,0.129c0,0.064,0.064,0.129,0.064,0.193
	s0.064,0.128,0.064,0.192C23,7.021,23,7.086,23.064,7.215c0,0.064,0.064,0.129,0.064,0.193s0.064,0.064,0.064,0.129
	c0.064,0.064,0.064,0.129,0.129,0.129c0.064,0.064,0.064,0.129,0.129,0.129c0.063,0.064,0.128,0.129,0.128,0.129l0,0
	c0.064,0.064,0.064,0.064,0.129,0.129c0.064,0,0.064,0.064,0.129,0.064s0.064,0.064,0.129,0.064
	c0.064,0.064,0.064,0.064,0.129,0.129s0.129,0.064,0.193,0.129c0.129,0.064,0.258,0.129,0.387,0.193
	c0.064,0,0.129,0.064,0.193,0.064s0.129,0.064,0.193,0.064c0.129,0,0.193,0.064,0.322,0.064c0.064,0,0.193,0.064,0.322,0.064
	c0.128,0,0.192,0,0.321,0c0.064,0,0.129,0,0.129,0h0.064c0.193,0,0.387,0,0.516,0h0.064c0.064,0,0.129,0,0.193,0
	s0.193,0,0.258-0.064c0.064,0,0.129,0,0.129,0c0.064,0,0.129-0.064,0.258-0.064c0.064,0,0.129,0,0.129-0.064
	c0.063,0,0.128-0.064,0.192-0.064h0.064c0,0,0.064,0,0.129-0.064c0.064,0,0.129-0.064,0.193-0.064s0.064-0.064,0.129-0.064
	s0.064-0.064,0.129-0.064h0.064v-1.16c0,0,0,0-0.064,0L28.54,7.279c-0.064,0.064-0.129,0.064-0.258,0.129
	c-0.064,0.064-0.193,0.064-0.258,0.129c-0.129,0.064-0.258,0.129-0.45,0.193c-0.258,0.064-0.516,0.129-0.709,0.193h-0.064
	c-0.064,0-0.129,0-0.193,0s-0.129,0-0.258,0c-0.064,0-0.064,0-0.129,0s-0.193,0-0.258,0c-0.129,0-0.193,0-0.321-0.064
	c-0.193,0-0.322-0.064-0.516-0.129h-0.064h-0.064c0,0-0.064,0-0.064-0.064c-0.064,0-0.129-0.064-0.193-0.064l-0.064-0.064
	L24.61,7.473c-0.064,0-0.064-0.064-0.129-0.064s-0.064-0.064-0.064-0.064l-0.064-0.064l0,0l0,0l0,0
	c-0.064-0.064-0.129-0.129-0.129-0.129l-0.064-0.064l-0.064-0.064L24.03,6.957c0-0.064-0.064-0.064-0.064-0.129
	s-0.064-0.064-0.064-0.129c0-0.063-0.063-0.128-0.063-0.192s0-0.064-0.064-0.129c0-0.129-0.064-0.258-0.064-0.322s0-0.064,0-0.129
	s0-0.064,0-0.129V5.733c0-0.064,0-0.129,0-0.258c0-0.064,0-0.129,0.064-0.193c0-0.064,0-0.064,0.064-0.129
	c0-0.064,0-0.064,0.063-0.129c0,0,0-0.064,0.064-0.064c0-0.064,0.064-0.064,0.064-0.129l0.064-0.064
	c0.064-0.064,0.064-0.129,0.129-0.193l0.064-0.063l0.064-0.064c0,0,0,0,0.064-0.064c0.193-0.193,0.451-0.387,0.709-0.516
	c0.064,0,0.064-0.064,0.129-0.064s0.064,0,0.129-0.064c0.064,0,0.064,0,0.129-0.064c0.064,0,0.064,0,0.129,0s0.064,0,0.129,0
	s0.064,0,0.129,0c0.063,0,0.063,0,0.128,0s0.193,0,0.258,0h0.064c0.064,0,0.129,0,0.193,0s0.064,0,0.129,0s0.129,0,0.193,0
	s0.129,0,0.193,0s0.193,0.064,0.258,0.064s0.064,0,0.129,0.064c0.064,0,0.129,0.064,0.129,0.064c0.064,0,0.129,0.064,0.129,0.064
	c0.064,0,0.129,0.064,0.193,0.064s0.129,0.064,0.193,0.064c0.063,0,0.128,0.064,0.192,0.064s0.064,0.064,0.129,0.064
	c0.064,0.064,0.129,0.064,0.193,0.064l0.129,0.064V3.092c0,0-0.064,0-0.193-0.064c-0.064,0-0.129-0.064-0.193-0.064
	s-0.064,0-0.129-0.064c-0.063,0-0.063,0-0.128-0.064c-0.064,0-0.064,0-0.129-0.064c-0.064,0-0.064,0-0.129,0l0,0
	c-0.064,0-0.064,0-0.129,0s-0.064,0-0.129-0.064H27.51c-0.064,0-0.064,0-0.129,0C27.252,2.641,27.252,2.641,27.188,2.576
	L27.188,2.576L27.188,2.576z M21.324,1.417h9.277v8.697h-9.277V1.417z"/>
<path fill="#1D1D1B" d="M14.238,6.185v1.739h1.095c0,0,0,0,0.064,0s0.064,0,0.129,0c0.129,0,0.258-0.064,0.451-0.064
	c0.129-0.064,0.258-0.129,0.387-0.193c0.064-0.064,0.064-0.064,0.129-0.129c0.064-0.129,0.129-0.258,0.129-0.387
	c0-0.064,0-0.064,0-0.064s0,0,0-0.064s0-0.129,0-0.193s-0.064-0.192-0.129-0.257c0,0,0-0.064-0.064-0.064
	c0,0-0.064-0.064-0.129-0.064c-0.064-0.064-0.129-0.064-0.193-0.129c-0.129-0.064-0.193-0.064-0.322-0.129c-0.064,0-0.129,0-0.193,0
	s-0.064,0-0.129,0s-0.064,0-0.129,0C14.882,6.185,14.238,6.185,14.238,6.185L14.238,6.185z"/>
<path fill="#1D1D1B" d="M14.238,3.607v1.61h0.515h0.064c0.064,0,0.064,0,0.129,0c0.129,0,0.258,0,0.387-0.064h0.064
	c0.129-0.064,0.258-0.129,0.322-0.193s0.129-0.129,0.129-0.193c0.064-0.064,0.064-0.192,0.064-0.257s0-0.064,0-0.064s0,0,0-0.064
	s0-0.193-0.064-0.322c0-0.064-0.064-0.129-0.129-0.129c-0.064-0.064-0.129-0.129-0.193-0.129c-0.129-0.064-0.322-0.064-0.451-0.129
	c-0.064,0-0.129,0-0.193,0C14.817,3.607,14.238,3.607,14.238,3.607L14.238,3.607z"/>
<path fill="#1D1D1B" d="M13.078,2.641v6.25h2.384c0,0,1.16,0,1.804-0.58c0.516-0.516,0.451-1.096,0.451-1.096
	s0.064-0.644-0.451-1.095c-0.386-0.387-0.901-0.516-0.901-0.516s0.258-0.129,0.387-0.322c0.064-0.064,0.386-0.387,0.386-1.03
	c0-0.645-0.45-1.031-0.45-1.031s-0.516-0.58-1.611-0.58H13.078L13.078,2.641L13.078,2.641z M10.694,1.417h9.277v8.697h-9.277V1.417z
	"/>
<path fill="#1D1D1B" d="M3.544,6.185v1.739h1.095c0,0,0,0,0.064,0s0.064,0,0.129,0c0.129,0,0.258-0.064,0.451-0.064
	C5.412,7.795,5.541,7.73,5.67,7.666c0.064-0.064,0.064-0.064,0.129-0.129C5.863,7.408,5.928,7.279,5.928,7.15
	c0-0.064,0-0.064,0-0.064s0,0,0-0.064s0-0.129,0-0.193S5.863,6.636,5.799,6.571c0,0,0-0.064-0.064-0.064
	c0,0-0.064-0.064-0.129-0.064C5.541,6.378,5.477,6.378,5.412,6.313C5.283,6.249,5.219,6.249,5.09,6.185c-0.064,0-0.129,0-0.193,0
	s-0.064,0-0.129,0s-0.064,0-0.129,0C4.252,6.185,3.544,6.185,3.544,6.185L3.544,6.185z"/>
<path fill="#1D1D1B" d="M3.544,3.607v1.61h0.515h0.064c0.064,0,0.064,0,0.129,0c0.129,0,0.258,0,0.387-0.064h0.064
	C4.832,5.089,4.961,5.024,5.025,4.96s0.129-0.129,0.129-0.193C5.219,4.702,5.219,4.574,5.219,4.51s0-0.064,0-0.064s0,0,0-0.064
	s0-0.193-0.064-0.322c0-0.064-0.064-0.129-0.129-0.129C4.961,3.865,4.896,3.801,4.832,3.801C4.703,3.736,4.51,3.736,4.381,3.672
	c-0.064,0-0.129,0-0.193,0C4.188,3.607,3.544,3.607,3.544,3.607L3.544,3.607z"/>
<path fill="#1D1D1B" d="M2.448,2.641v6.25h2.384c0,0,1.159,0,1.804-0.58c0.516-0.516,0.451-1.096,0.451-1.096
	S7.151,6.571,6.636,6.12C6.249,5.733,5.734,5.604,5.734,5.604S5.991,5.476,6.12,5.282c0.064-0.064,0.387-0.387,0.387-1.03
	c0-0.645-0.451-1.031-0.451-1.031s-0.515-0.58-1.61-0.58H2.448L2.448,2.641L2.448,2.641z M0,1.417h9.277v8.697H0V1.417z"/>
</svg>
