<?xml version="1.0" encoding="utf-8"?>
<!-- Generator: Adobe Illustrator 16.0.0, SVG Export Plug-In . SVG Version: 6.00 Build 0)  -->
<!DOCTYPE svg PUBLIC "-//W3C//DTD SVG 1.1//EN" "http://www.w3.org/Graphics/SVG/1.1/DTD/svg11.dtd">
<svg version="1.1" id="Layer_1" xmlns="http://www.w3.org/2000/svg" xmlns:xlink="http://www.w3.org/1999/xlink" x="0px" y="0px"
	 width="420.333px" height="112.333px" viewBox="91.64 362.279 420.333 112.333"
	 enable-background="new 91.64 362.279 420.333 112.333" xml:space="preserve">
<g>
	<g>
		<g>
			<g>
				<defs>
					<rect id="SVGID_1_" x="92.64" y="405.825" width="104.484" height="29.95"/>
				</defs>
				<clipPath id="SVGID_2_">
					<use xlink:href="#SVGID_1_"  overflow="visible"/>
				</clipPath>
				<path clip-path="url(#SVGID_2_)" d="M185.405,410.042c-0.124,0-0.31-0.062-0.434-0.062h-0.187
					c-0.248-0.062-0.496-0.062-0.744-0.062c-0.186,0-0.372,0-0.496-0.062c-0.31,0-0.62,0-0.868,0c-0.124,0-0.186,0-0.31,0
					c-0.248,0-0.496,0-0.683,0.062c-0.124,0-0.248,0-0.372,0.062c-0.186,0-0.372,0.062-0.558,0.062h-0.124h-0.187l-0.186,0.062
					c-0.124,0-0.186,0.062-0.248,0.062c-0.124,0-0.248,0.062-0.372,0.062c-0.744,0.124-1.426,0.372-2.108,0.62
					c-0.31,0.124-0.682,0.248-0.93,0.434c-0.248,0.124-0.496,0.248-0.744,0.372s-0.435,0.248-0.683,0.372
					c-0.124,0.062-0.248,0.124-0.372,0.248c-0.124,0.062-0.186,0.124-0.31,0.186c-0.187,0.124-0.372,0.31-0.559,0.496
					c-0.186,0.124-0.31,0.31-0.496,0.434c-0.124,0.124-0.248,0.248-0.372,0.372s-0.248,0.31-0.372,0.434s-0.248,0.31-0.372,0.496
					c-0.124,0.124-0.186,0.248-0.248,0.372c-0.062,0.124-0.124,0.186-0.186,0.248c-0.311,0.558-0.62,1.116-0.868,1.736
					c-0.31,0.744-0.496,1.612-0.62,2.48c-0.062,0.248-0.062,0.558-0.062,0.868c0,0.186,0,0.434,0,0.682c0,0.187,0,0.372,0,0.496
					c0,0.187,0,0.372,0.062,0.496v0.124c0,0.187,0.062,0.372,0.124,0.62c0,0.062,0.062,0.124,0.062,0.248
					c0.062,0.124,0.062,0.311,0.124,0.496c0.062,0.187,0.124,0.372,0.186,0.62c0.062,0.248,0.187,0.496,0.248,0.683
					c0.124,0.372,0.311,0.682,0.496,1.054c0.124,0.186,0.186,0.372,0.31,0.558c0.124,0.124,0.187,0.311,0.248,0.435
					c0.124,0.186,0.248,0.372,0.372,0.496c0.124,0.186,0.248,0.31,0.372,0.496c0.187,0.186,0.372,0.372,0.496,0.558l0.124,0.124
					c0.124,0.124,0.311,0.248,0.435,0.435c0.124,0.124,0.248,0.186,0.372,0.31s0.248,0.187,0.372,0.311s0.31,0.248,0.496,0.372
					c0.186,0.124,0.372,0.248,0.62,0.372c0.434,0.248,0.868,0.434,1.364,0.682c0.186,0.062,0.372,0.124,0.62,0.187
					c0.186,0.062,0.372,0.124,0.62,0.186c0.372,0.124,0.744,0.187,1.178,0.248c0.311,0.062,0.683,0.124,0.992,0.124
					c0.372,0.062,0.682,0.062,1.054,0.124c0.187,0,0.372,0,0.559,0c0.062,0,0.186,0,0.248,0c0.682,0,1.302,0,1.86-0.062h0.124
					c0.248,0,0.434-0.062,0.682-0.062c0.311-0.062,0.62-0.124,0.931-0.124c0.186-0.062,0.372-0.062,0.558-0.124
					c0.248-0.062,0.559-0.124,0.807-0.186c0.186-0.062,0.372-0.124,0.558-0.124c0.187-0.062,0.372-0.124,0.559-0.187l0.186-0.062
					c0.124-0.062,0.187-0.062,0.372-0.124c0.187-0.062,0.435-0.187,0.682-0.248c0.124-0.062,0.311-0.124,0.496-0.248
					c0.124-0.062,0.311-0.124,0.496-0.248c0.062-0.062,0.124-0.062,0.187-0.124v-4.031c-0.062,0.062-0.124,0.062-0.124,0.124
					l-0.248,0.187c-0.248,0.186-0.559,0.31-0.807,0.496c-0.31,0.124-0.558,0.31-0.867,0.434c-0.496,0.248-0.992,0.435-1.427,0.62
					c-0.868,0.311-1.674,0.496-2.418,0.683c-0.062,0-0.187,0-0.248,0.062c-0.187,0.062-0.372,0.062-0.559,0.062
					c-0.31,0.062-0.558,0.062-0.806,0.062c-0.124,0-0.311,0-0.435,0c-0.31,0-0.558,0-0.868-0.062c-0.372,0-0.682-0.062-1.054-0.124
					c-0.62-0.124-1.178-0.248-1.736-0.435c-0.062-0.062-0.186-0.062-0.248-0.124c-0.062,0-0.124-0.062-0.186-0.062
					c-0.124-0.062-0.187-0.062-0.311-0.124c-0.186-0.124-0.372-0.187-0.62-0.311c-0.124-0.062-0.186-0.124-0.31-0.186
					c-0.124-0.062-0.187-0.124-0.311-0.187c-0.124-0.062-0.248-0.186-0.372-0.248c-0.124-0.124-0.248-0.186-0.31-0.248l-0.124-0.124
					l-0.062-0.062l-0.062-0.062l-0.062-0.062c-0.186-0.187-0.372-0.372-0.496-0.559c-0.062-0.124-0.186-0.186-0.248-0.31
					c-0.062-0.124-0.124-0.186-0.186-0.311c-0.062-0.123-0.124-0.186-0.187-0.31c-0.062-0.124-0.124-0.31-0.248-0.434
					c-0.062-0.124-0.124-0.248-0.186-0.372c-0.124-0.187-0.124-0.372-0.248-0.62c-0.062-0.124-0.124-0.311-0.124-0.435
					c-0.124-0.434-0.124-0.806-0.187-1.116c0-0.124,0-0.248,0-0.372s0-0.31,0-0.434c0-0.062,0-0.124,0-0.248
					c0-0.248,0-0.496,0.062-0.868c0.062-0.186,0.062-0.434,0.124-0.682c0.062-0.124,0.062-0.31,0.124-0.434
					c0.062-0.124,0.124-0.31,0.124-0.434c0.062-0.124,0.062-0.186,0.124-0.31c0.062-0.124,0.124-0.248,0.186-0.434
					c0.062-0.124,0.124-0.186,0.187-0.31c0.124-0.248,0.31-0.434,0.434-0.682c0.062-0.062,0.124-0.186,0.187-0.248
					c0.062-0.124,0.186-0.186,0.248-0.31c0.062-0.062,0.124-0.124,0.124-0.124c0.744-0.744,1.55-1.302,2.48-1.674
					c0.124-0.062,0.248-0.124,0.372-0.186s0.248-0.124,0.434-0.124c0.187,0,0.311-0.124,0.435-0.124
					c0.124-0.062,0.31-0.062,0.434-0.124s0.311-0.062,0.435-0.124s0.31-0.062,0.434-0.062s0.311-0.062,0.435-0.062
					c0.31,0,0.62-0.062,0.868-0.062c0.124,0,0.186,0,0.31,0c0.186,0,0.434,0,0.62,0c0.124,0,0.248,0,0.372,0.062
					c0.248,0,0.496,0.062,0.744,0.124c0.186,0.062,0.372,0.062,0.62,0.124c0.31,0.062,0.558,0.124,0.806,0.186
					c0.124,0.062,0.311,0.062,0.435,0.124c0.186,0.062,0.372,0.124,0.496,0.124c0.248,0.062,0.372,0.124,0.372,0.124
					c0.186,0.062,0.372,0.124,0.62,0.248s0.496,0.186,0.744,0.31c0.186,0.124,0.372,0.186,0.558,0.248
					c0.124,0.062,0.311,0.124,0.372,0.186c0.248,0.124,0.372,0.186,0.559,0.31l0.434,0.248v-4.031c0,0-0.248-0.124-0.682-0.248
					c-0.187-0.062-0.435-0.124-0.683-0.248c-0.124-0.062-0.31-0.124-0.434-0.124c-0.124-0.062-0.248-0.124-0.372-0.124
					c-0.124-0.062-0.311-0.124-0.496-0.124c-0.124-0.062-0.248-0.062-0.372-0.124l-0.124-0.062
					c-0.124-0.062-0.248-0.062-0.372-0.124s-0.311-0.062-0.435-0.124c-0.124,0-0.186-0.062-0.31-0.062
					c-0.124-0.062-0.311-0.062-0.496-0.124C185.715,410.104,185.591,410.104,185.405,410.042L185.405,410.042z M165.5,405.887
					h31.562v29.764H165.5V405.887L165.5,405.887z"/>
			</g>
		</g>
		<g>
			<g>
				<defs>
					<rect id="SVGID_3_" x="92.64" y="405.825" width="104.484" height="29.95"/>
				</defs>
				<clipPath id="SVGID_4_">
					<use xlink:href="#SVGID_3_"  overflow="visible"/>
				</clipPath>
				<path clip-path="url(#SVGID_4_)" d="M141.193,422.319v5.829h3.782c0,0,0.062,0,0.187,0s0.31,0,0.558-0.062
					c0.435-0.062,0.931-0.124,1.488-0.31c0.496-0.124,0.931-0.372,1.303-0.744c0.124-0.124,0.248-0.311,0.372-0.435
					c0.31-0.434,0.372-0.93,0.372-1.178c0-0.124,0-0.186,0-0.186s0-0.062,0-0.125c0-0.123,0-0.31-0.062-0.558
					c-0.062-0.248-0.186-0.62-0.434-0.93c-0.062-0.062-0.124-0.124-0.124-0.187c-0.124-0.124-0.187-0.186-0.372-0.31
					c-0.187-0.124-0.435-0.311-0.683-0.372c-0.372-0.124-0.744-0.248-1.178-0.372c-0.187-0.062-0.435-0.062-0.683-0.124
					c-0.124,0-0.31,0-0.434-0.062c-0.124,0-0.248,0-0.372,0C143.549,422.319,141.193,422.319,141.193,422.319L141.193,422.319z"/>
			</g>
		</g>
		<g>
			<g>
				<defs>
					<rect id="SVGID_5_" x="92.64" y="405.825" width="104.484" height="29.95"/>
				</defs>
				<clipPath id="SVGID_6_">
					<use xlink:href="#SVGID_5_"  overflow="visible"/>
				</clipPath>
				<path clip-path="url(#SVGID_6_)" d="M141.193,413.39v5.519h1.86c0,0,0.124,0,0.311,0c0.124,0,0.248,0,0.434,0
					c0.372,0,0.93-0.062,1.426-0.248c0.124,0,0.187-0.062,0.311-0.124c0.372-0.124,0.806-0.372,1.116-0.682
					c0.248-0.248,0.372-0.496,0.496-0.744c0.124-0.31,0.186-0.62,0.186-0.868c0-0.186,0-0.31,0-0.31s0-0.124,0-0.248
					c0-0.248-0.062-0.62-0.248-0.992c-0.124-0.186-0.186-0.372-0.372-0.496c-0.186-0.186-0.434-0.372-0.744-0.496
					c-0.496-0.248-1.116-0.31-1.612-0.372c-0.186,0-0.434,0-0.558,0C143.364,413.39,141.193,413.39,141.193,413.39L141.193,413.39z"
					/>
			</g>
		</g>
		<g>
			<g>
				<defs>
					<rect id="SVGID_7_" x="92.64" y="405.825" width="104.484" height="29.95"/>
				</defs>
				<clipPath id="SVGID_8_">
					<use xlink:href="#SVGID_7_"  overflow="visible"/>
				</clipPath>
				<path clip-path="url(#SVGID_8_)" d="M137.41,410.104v21.393h8.061c0,0,3.907,0.124,6.077-2.047
					c1.736-1.736,1.675-3.845,1.675-3.845s0.124-2.107-1.488-3.782c-1.427-1.426-3.163-1.736-3.163-1.736s0.807-0.372,1.427-0.992
					c0.31-0.31,1.302-1.24,1.302-3.473c0-2.294-1.488-3.596-1.488-3.596s-1.674-1.984-5.395-1.984L137.41,410.104L137.41,410.104z
					 M129.101,405.887h31.562v29.764h-31.562V405.887L129.101,405.887z"/>
			</g>
		</g>
		<g>
			<g>
				<defs>
					<rect id="SVGID_9_" x="92.64" y="405.825" width="104.484" height="29.95"/>
				</defs>
				<clipPath id="SVGID_10_">
					<use xlink:href="#SVGID_9_"  overflow="visible"/>
				</clipPath>
				<path clip-path="url(#SVGID_10_)" d="M104.794,422.319v5.829h3.782c0,0,0.062,0,0.186,0s0.311,0,0.559-0.062
					c0.434-0.062,0.93-0.124,1.488-0.31c0.496-0.124,0.93-0.372,1.302-0.744c0.124-0.124,0.248-0.311,0.372-0.435
					c0.311-0.434,0.372-0.93,0.372-1.178c0-0.124,0-0.186,0-0.186s0-0.062,0-0.125c0-0.123,0-0.31-0.062-0.558
					c-0.062-0.248-0.187-0.62-0.435-0.93c-0.062-0.062-0.124-0.124-0.124-0.187c-0.124-0.124-0.186-0.186-0.372-0.31
					c-0.186-0.124-0.434-0.311-0.682-0.372c-0.372-0.124-0.744-0.248-1.179-0.372c-0.186-0.062-0.434-0.062-0.682-0.124
					c-0.124,0-0.311,0-0.435-0.062c-0.124,0-0.248,0-0.372,0C107.151,422.319,104.794,422.319,104.794,422.319L104.794,422.319z"/>
			</g>
		</g>
		<g>
			<g>
				<defs>
					<rect id="SVGID_11_" x="92.64" y="405.825" width="104.484" height="29.95"/>
				</defs>
				<clipPath id="SVGID_12_">
					<use xlink:href="#SVGID_11_"  overflow="visible"/>
				</clipPath>
				<path clip-path="url(#SVGID_12_)" d="M104.794,413.39v5.519h1.86c0,0,0.124,0,0.31,0c0.124,0,0.248,0,0.435,0
					c0.372,0,0.93-0.062,1.426-0.248c0.124,0,0.186-0.062,0.31-0.124c0.372-0.124,0.807-0.372,1.116-0.682
					c0.248-0.248,0.372-0.496,0.496-0.744c0.124-0.31,0.187-0.62,0.187-0.868c0-0.186,0-0.31,0-0.31s0-0.124,0-0.248
					c0-0.248-0.062-0.62-0.248-0.992c-0.124-0.186-0.187-0.372-0.372-0.496c-0.187-0.186-0.435-0.372-0.744-0.496
					c-0.496-0.248-1.116-0.31-1.612-0.372c-0.186,0-0.434,0-0.558,0C106.964,413.39,104.794,413.39,104.794,413.39L104.794,413.39z"
					/>
			</g>
		</g>
		<g>
			<g>
				<defs>
					<rect id="SVGID_13_" x="92.64" y="405.825" width="104.484" height="29.95"/>
				</defs>
				<clipPath id="SVGID_14_">
					<use xlink:href="#SVGID_13_"  overflow="visible"/>
				</clipPath>
				<path clip-path="url(#SVGID_14_)" d="M101.011,410.104v21.393h8.062c0,0,3.906,0.124,6.077-2.047
					c1.736-1.736,1.674-3.845,1.674-3.845s0.124-2.107-1.488-3.782c-1.426-1.426-3.162-1.736-3.162-1.736s0.806-0.372,1.426-0.992
					c0.311-0.31,1.303-1.24,1.303-3.473c0-2.294-1.488-3.596-1.488-3.596s-1.675-1.984-5.395-1.984L101.011,410.104L101.011,410.104
					z M92.702,405.887h31.562v29.764H92.702V405.887L92.702,405.887z"/>
			</g>
		</g>
	</g>
</g>
<g>
	<path fill="#00528C" d="M307.375,410.352c-1.055,0-1.923,0.868-1.923,1.922c0,1.054,0.868,1.922,1.923,1.922
		c1.054,0,1.922-0.868,1.922-1.922C309.297,411.22,308.429,410.352,307.375,410.352"/>
	<path fill="#00528C" d="M321.202,426.04h5.953v-0.991l-1.116-0.559v-7.007c0.435-0.31,0.931-0.434,1.488-0.434
		c0.992,0,1.427,0.434,1.427,1.55v5.891l-1.116,0.559v0.991h5.952v-0.991l-1.178-0.559v-6.697c0-1.984-0.931-2.915-2.729-2.915
		c-1.488,0-2.914,0.496-3.906,1.426l0,0v-1.426h-0.311l-4.526,0.744v0.93l1.24,0.558v7.379l-1.179,0.559V426.04L321.202,426.04z"/>
	<polygon fill="#00528C" points="304.46,415.561 304.46,416.553 305.639,417.111 305.639,424.49 304.46,425.049 304.46,426.04 
		310.413,426.04 310.413,425.049 309.236,424.49 309.236,414.878 308.988,414.878 	"/>
	<path fill="#00528C" d="M299.376,423.994c-0.248,0.187-0.559,0.372-1.116,0.372c-1.427,0-2.108-1.178-2.108-3.845
		c0-3.039,0.868-4.093,1.984-4.093c0.62,0,0.93,0.186,1.24,0.496V423.994L299.376,423.994z M299.376,415.375
		c-0.435-0.31-1.116-0.496-1.736-0.496c-2.667,0-5.209,1.55-5.209,5.891c0,4.155,2.542,5.519,4.217,5.519
		c1.364,0,2.294-0.619,2.729-1.178h0.124v1.116h0.31l4.278-0.496v-0.806l-1.115-0.62v-13.891h-0.311l-4.526,0.744v0.992l1.178,0.558
		v2.666H299.376z"/>
	<path fill="#00528C" d="M284.37,415.561v0.992l1.178,0.558v7.379l-1.116,0.559v0.991h6.263v-0.991l-1.488-0.559v-5.767
		c0.62-0.496,1.427-0.682,2.419-0.682c0.31,0,0.682,0.062,0.93,0.124v-3.163c-0.124-0.062-0.372-0.062-0.558-0.062
		c-1.179,0-2.295,0.806-2.915,2.232l0,0v-2.294h-0.31L284.37,415.561z"/>
	<path fill="#00528C" d="M276.618,416.429c0.248-0.124,0.807-0.124,0.931-0.124c1.426,0,1.798,0.682,1.798,2.108v1.24l-2.046,0.372
		c-2.108,0.372-3.721,1.054-3.721,3.287c0,1.798,1.24,3.038,2.977,3.038c1.364,0,2.666-0.559,3.101-1.55h0.124
		c0.186,1.178,1.178,1.55,2.294,1.55c0.868,0,1.736-0.248,2.047-0.62v-0.62l-1.116-0.558v-6.326c0-2.418-1.736-3.349-4.651-3.349
		c-1.922,0-3.162,0.496-4.154,0.93v2.729h1.674L276.618,416.429z M279.409,423.87c-0.187,0.311-0.62,0.496-0.992,0.496
		c-0.683,0-1.364-0.372-1.364-1.612c0-0.868,0.806-1.674,1.612-1.798l0.744-0.124V423.87L279.409,423.87z"/>
	<path fill="#00528C" d="M313.327,416.429c0.248-0.124,0.807-0.124,0.931-0.124c1.426,0,1.798,0.682,1.798,2.108v1.24l-2.046,0.372
		c-2.108,0.372-3.721,1.054-3.721,3.287c0,1.798,1.24,3.038,2.977,3.038c1.364,0,2.666-0.559,3.101-1.55h0.124
		c0.186,1.178,1.178,1.55,2.294,1.55c0.868,0,1.736-0.248,2.047-0.62v-0.62l-1.116-0.558v-6.326c0-2.418-1.736-3.349-4.651-3.349
		c-1.922,0-3.162,0.496-4.154,0.93v2.729h1.674L313.327,416.429z M316.118,423.87c-0.187,0.311-0.62,0.496-0.992,0.496
		c-0.683,0-1.364-0.372-1.364-1.612c0-0.868,0.806-1.674,1.612-1.798l0.744-0.124V423.87L316.118,423.87z"/>
	<path fill="#00528C" d="M262.481,422.878c0,1.86,0.931,3.473,3.101,3.473c1.427,0,2.729-0.62,3.411-1.488l0,0v1.488h0.31
		l4.402-0.496v-0.806l-1.24-0.62v-9.426h-0.31l-4.526,0.744v0.992l1.178,0.558v6.388c-0.372,0.248-0.682,0.372-1.302,0.372
		c-0.931,0-1.488-0.248-1.488-1.488v-7.69h-0.248l-4.526,0.744v0.992l1.239,0.558V422.878L262.481,422.878z"/>
	<path fill="#00528C" d="M257.893,423.685h-3.907c-0.434,0-0.806-0.311-0.806-0.683c0-0.31,0.186-0.62,0.496-0.806
		c0.558,0.186,1.054,0.186,1.798,0.186c2.791,0,4.713-1.241,4.713-3.659c0-1.054-0.434-1.674-1.116-2.294l1.86,0.558v-2.17
		l-2.914,0.558c-0.683-0.248-1.612-0.558-2.48-0.558c-2.791,0-4.713,1.426-4.713,3.783c0,1.426,0.744,2.48,1.798,3.1l0.062,0.062
		c-0.62,0.435-1.922,1.427-1.922,2.543c0,0.868,0.558,1.674,1.735,1.922l0,0c-1.239,0.248-2.604,0.744-2.604,2.17
		c0,1.427,2.107,2.915,5.519,2.915c4.278,0,6.076-1.984,6.076-4.589C261.489,424.614,260.311,423.685,257.893,423.685
		 M255.474,416.119c0.807,0,1.364,0.558,1.364,2.48c0,1.984-0.558,2.418-1.364,2.418c-0.806,0-1.302-0.434-1.302-2.418
		C254.172,416.553,254.73,416.119,255.474,416.119 M255.474,429.699c-1.984,0-2.666-0.744-2.666-1.551c0-0.496,0.31-1.178,1.24-1.24
		h3.101c0.868,0,1.426,0.62,1.426,1.179C258.574,429.203,257.706,429.699,255.474,429.699"/>
	<path fill="#9ED1DF" d="M250.079,420.956c0-4.589-2.046-6.077-4.837-6.077c-3.224,0-5.332,2.108-5.332,5.705
		c0,3.659,1.922,5.767,5.643,5.767c1.984,0,3.597-1.054,4.093-1.736l0.062-0.868c-0.744,0.248-1.55,0.372-2.914,0.372
		c-1.984,0-3.163-0.992-3.163-3.101L250.079,420.956L250.079,420.956z M245.181,416.119c0.868,0,1.364,0.62,1.364,3.349
		l-3.039,0.186C243.569,416.863,244.189,416.119,245.181,416.119"/>
	<path fill="#9ED1DF" d="M228.128,426.04h5.953v-0.991l-1.116-0.559v-7.007c0.435-0.31,0.931-0.434,1.488-0.434
		c0.992,0,1.488,0.62,1.488,1.55v5.891l-1.116,0.559v0.991h5.953v-0.991l-1.179-0.559v-6.697c0-1.984-1.178-2.915-2.729-2.915
		c-1.488,0-2.914,0.496-3.906,1.426l0,0v-6.077h-0.31l-4.527,0.744v0.93l1.24,0.559v12.03l-1.178,0.559v0.991H228.128z"/>
	<path fill="#9ED1DF" d="M221.617,423.064c0,1.984,0.931,3.286,3.101,3.286c1.116,0,2.356-0.311,3.038-0.807v-1.363
		c-0.31,0.062-0.806,0.186-1.178,0.186c-1.055,0-1.364-0.558-1.364-1.612v-5.705h2.356v-1.86h-2.356v-2.542l-3.597,0.496v2.046
		l-1.674,0.31v1.55h1.674V423.064z"/>
	<polygon fill="none" points="219.323,431.373 334.845,431.373 334.845,410.29 219.509,410.29 	"/>
</g>
<g>
	<path d="M422.649,418.94c0.186,0.496,0.434,0.93,0.558,1.364c0.435,1.798-0.496,3.596-2.294,4.34
		c-0.992,0.435-2.046,0.496-3.162,0.311c-0.187-0.062-0.248,0-0.372,0.124c-0.496,0.682-0.311,1.302,0.496,1.487
		c0.558,0.124,1.178,0.187,1.736,0.248c0.93,0.062,1.859,0.124,2.79,0.435c1.736,0.496,2.542,2.108,1.922,3.845
		c-0.31,0.868-0.93,1.426-1.736,1.86c-1.116,0.62-2.356,0.744-3.596,0.806c-1.055,0-2.108-0.062-3.039-0.496
		c-0.992-0.434-1.55-1.24-1.612-2.356c0-0.62,0.187-1.116,0.683-1.426c0.496-0.372,1.054-0.683,1.55-0.992
		c-0.124-0.062-0.248-0.124-0.434-0.187c-0.744-0.372-0.992-1.116-0.559-1.86c0.248-0.496,0.62-0.867,0.992-1.302
		c0.124-0.124,0.248-0.248,0.435-0.372c-0.124-0.062-0.187-0.124-0.248-0.124c-1.488-0.744-2.047-2.046-1.799-3.534
		c0.311-2.046,1.984-3.473,4.093-3.473c1.116,0,2.17,0.248,3.286,0.434c0.187,0.062,0.435,0.062,0.62,0.062
		c0.372,0.062,0.62-0.062,0.868-0.31c0.062-0.062,0.124-0.124,0.187-0.186c0.124-0.062,0.248-0.062,0.31-0.062
		c0.062,0.062,0.124,0.186,0.124,0.248c-0.062,0.31-0.124,0.62-0.186,0.93c-0.062,0.124-0.248,0.31-0.435,0.31
		c-0.248,0.062-0.558,0-0.806,0C422.834,419.002,422.773,418.94,422.649,418.94z M419.363,433.016
		c0.434-0.062,0.806-0.062,1.178-0.186c0.682-0.124,1.302-0.372,1.736-0.931c0.62-0.744,0.434-1.736-0.372-2.17
		c-0.248-0.187-0.559-0.311-0.868-0.372c-0.992-0.187-1.922-0.311-2.914-0.496c-0.683-0.187-1.055,0.124-1.488,0.62
		c0,0.062-0.062,0.062-0.062,0.124c-0.806,1.054-0.496,2.294,0.62,2.977C417.936,432.83,418.618,432.954,419.363,433.016z
		 M421.036,421.854c0-0.93-0.187-1.86-0.807-2.604c-0.371-0.496-0.867-0.868-1.55-0.806c-0.682,0.062-1.178,0.558-1.364,1.364
		c-0.186,0.682-0.186,1.364-0.062,2.046c0.124,0.744,0.372,1.488,0.992,2.046c0.868,0.807,1.983,0.62,2.479-0.434
		C420.974,422.908,421.036,422.412,421.036,421.854z"/>
	<path d="M428.725,427.869c-1.55,0-3.1,0-4.588,0c0-0.248,0-0.496,0-0.744c0.372,0,0.682,0,1.054,0c0.248,0,0.372-0.124,0.435-0.435
		c0-0.062,0-0.186,0-0.248c0-3.41,0-6.82,0-10.168c0-0.434-0.062-0.93-0.187-1.364c-0.186-0.806-0.62-1.054-1.364-1.116
		c-0.124,0-0.31,0-0.496,0c0-0.124,0-0.248,0-0.31c0-0.124,0-0.248,0-0.434c0.248,0,0.435,0,0.683,0c0.93,0,1.922,0,2.853,0
		c0.248,0,0.372,0.062,0.495,0.248c2.791,3.349,5.644,6.697,8.434,9.983c0.062,0.062,0.124,0.124,0.248,0.248
		c0-0.124,0-0.186,0-0.248c0-2.48,0-5.022,0-7.502c0-0.434-0.062-0.868-0.186-1.302c-0.124-0.496-0.372-0.62-0.868-0.682
		c-0.311,0-0.62,0-0.992,0c0-0.248,0-0.496,0-0.744c1.426,0,2.79,0,4.216,0c0,0.248,0,0.496,0,0.744c-0.31,0-0.558,0-0.868,0
		c-0.434,0-0.434,0.062-0.434,0.434c0,4.403,0,8.805,0,13.27c0,0.062,0,0.186,0,0.248c0,0.124-0.062,0.186-0.124,0.31
		c-0.124-0.062-0.187-0.124-0.311-0.186c-1.115-1.364-2.294-2.667-3.41-4.03c-2.232-2.542-4.402-5.146-6.635-7.689
		c-0.062-0.062-0.124-0.186-0.248-0.248c0,0.124-0.062,0.186-0.062,0.248c0,2.977,0,5.953,0,8.929c0,0.495,0.124,1.054,0.248,1.55
		c0.124,0.434,0.31,0.558,0.743,0.558c0.435,0,0.807,0,1.24,0C428.725,427.373,428.725,427.621,428.725,427.869z"/>
	<path d="M360.702,419.188c0.062,0,0.062,0.062,0.062,0.062c1.24-0.062,2.48-0.062,3.721-0.124c0.682-0.062,0.93-0.31,0.93-1.054
		c0-0.186,0-0.31,0-0.558c0.124,0,0.248,0,0.372,0s0.187,0,0.311,0c0,1.364,0,2.729,0,4.092c-0.248,0-0.435,0-0.683,0
		c0-0.248,0-0.496,0-0.744c0-0.372-0.124-0.559-0.495-0.62c-0.311-0.062-0.559-0.124-0.868-0.124c-1.055,0-2.108,0-3.163,0
		c-0.062,0-0.124,0-0.186,0c0,0.062-0.062,0.062-0.062,0.124c0,1.86,0.062,3.72,0.062,5.642c0,0.062,0,0.124,0,0.186
		c0.124,0.807,0.372,0.992,1.178,0.992c1.303,0,2.604,0,3.906-0.372c0.62-0.186,1.179-0.434,1.551-0.93
		c0.124-0.124,0.248-0.248,0.434-0.372c0.248-0.124,0.435,0,0.372,0.248c0,0.124-0.062,0.248-0.062,0.31
		c-0.124,0.496-0.311,0.992-0.435,1.488c-0.062,0.311-0.248,0.435-0.558,0.435c-3.41,0-6.759,0-10.107,0c-0.124,0-0.248,0-0.372,0
		c0-0.248,0-0.496,0-0.744c0.248,0,0.558,0,0.806,0c0.435,0,0.559-0.124,0.559-0.559c0-3.658,0-7.316,0-10.975
		c0-0.372-0.062-0.806-0.124-1.178c-0.124-0.496-0.372-0.682-0.868-0.682c-0.248,0-0.559,0-0.807,0c0-0.248,0-0.496,0-0.744
		c3.783,0,7.565,0,11.41,0c-0.124,0.682-0.187,1.426-0.311,2.108c0,0.062-0.124,0.186-0.186,0.248c-0.124,0-0.187-0.062-0.311-0.124
		l-0.062-0.062c-0.311-0.744-0.992-0.992-1.674-1.116c-1.303-0.248-2.604-0.186-3.907-0.186c-0.248,0-0.434,0.124-0.434,0.434
		c0,1.612,0,3.225,0,4.837C360.702,419.126,360.702,419.126,360.702,419.188z"/>
	<path d="M452.164,418.63c0-0.248,0-0.496,0-0.682c1.551,0,3.039,0,4.589,0c0,0.248,0,0.434,0,0.682c-0.187,0-0.311,0-0.496,0
		c-0.496,0-0.62,0.186-0.496,0.682c0.496,1.302,0.992,2.604,1.426,3.968c0.124,0.311,0.248,0.62,0.372,0.992
		c0.062,0.124,0.124,0.248,0.248,0.435c0.062-0.124,0.124-0.124,0.124-0.187c0.559-1.426,1.116-2.853,1.675-4.278
		c0.124-0.31,0.186-0.62,0.248-0.93c0.062-0.372-0.062-0.496-0.496-0.558c-0.248,0-0.559,0-0.807,0c0-0.248,0-0.496,0-0.682
		c1.179,0,2.295,0,3.473,0c0,0.248,0,0.434,0,0.682l-0.062,0.062c-0.744-0.062-1.055,0.372-1.303,0.992
		c-1.116,2.666-2.232,5.332-3.349,7.937c-0.062,0.124-0.124,0.31-0.186,0.434s-0.187,0.187-0.248,0.248
		c-0.062-0.062-0.187-0.186-0.187-0.248c-0.371-0.992-0.743-1.922-1.115-2.914c-0.435-1.116-0.868-2.232-1.364-3.41
		c-0.062,0.186-0.124,0.248-0.187,0.372c-0.806,1.86-1.612,3.782-2.356,5.643c-0.062,0.124-0.124,0.248-0.186,0.434
		c-0.187,0.248-0.311,0.248-0.435-0.062c-0.186-0.496-0.372-0.931-0.558-1.427c-0.931-2.294-1.799-4.588-2.667-6.882
		c-0.062-0.124-0.123-0.248-0.186-0.434c-0.186-0.496-0.558-0.806-1.116-0.744c-0.062,0-0.124,0-0.186,0c0-0.248,0-0.434,0-0.682
		c1.55,0,3.1,0,4.65,0c0,0.248,0,0.434,0,0.682c-0.187,0-0.372,0-0.496,0c-0.372,0-0.559,0.248-0.435,0.62
		c0.62,1.674,1.24,3.348,1.86,5.022c0.062,0.124,0.124,0.248,0.248,0.435c0.062-0.124,0.124-0.187,0.124-0.248
		c0.496-1.179,0.931-2.295,1.427-3.472c0.062-0.124,0.062-0.372,0-0.496c-0.124-0.31-0.248-0.62-0.372-0.93
		C453.095,418.94,452.847,418.444,452.164,418.63z"/>
	<path d="M414.835,427.125c0,0.248,0,0.496,0,0.682c-1.674,0-3.286,0-4.96,0c0-0.248,0-0.434,0-0.682c0.248,0,0.496,0,0.744,0
		s0.31-0.124,0.31-0.372c0-1.984-0.062-3.969-0.062-5.953c0-0.186-0.062-0.372-0.124-0.558c-0.248-0.93-0.931-1.364-1.86-1.24
		c-0.744,0.124-1.364,0.434-1.984,0.868c-0.062,0.062-0.124,0.186-0.124,0.248c0,2.045,0,4.03,0.062,6.076
		c0,0.187,0.062,0.311,0.062,0.496c0.062,0.311,0.248,0.435,0.62,0.496c0.248,0,0.496,0,0.744,0c0,0.248,0,0.496,0,0.683
		c-1.675,0-3.349,0-5.085,0c0-0.248,0-0.435,0-0.683c0.31,0,0.558,0,0.868,0c0.31,0,0.434-0.124,0.434-0.434
		c0-1.799,0-3.658-0.062-5.457c0-0.62,0-1.24-0.062-1.86c-0.062-0.744-0.31-0.93-0.992-0.868c-0.186,0-0.372,0-0.62,0
		c0-0.186,0-0.434,0-0.62c1.303-0.124,2.667-0.248,4.031-0.31c0,0.496,0,1.054,0,1.612c0.31-0.248,0.62-0.434,0.868-0.62
		c0.93-0.558,1.798-1.054,2.914-0.992c1.612,0,2.666,0.992,2.729,2.604c0.062,1.736,0.062,3.41,0.062,5.084
		c0,0.371,0,0.743,0.062,1.115c0.062,0.559,0.31,0.744,0.868,0.744C414.463,427.187,414.65,427.125,414.835,427.125z"/>
	<path d="M390.714,427.125c0,0.248,0,0.496,0,0.682c-1.674,0-3.349,0-5.085,0c0-0.186,0-0.434,0-0.682c0.248,0,0.559,0,0.807,0
		c0.31,0,0.434-0.124,0.434-0.435c0-2.294-0.062-4.65-0.062-6.944c0-1.054-0.248-1.24-1.24-1.24c-0.124,0-0.311,0-0.435,0
		c0-0.186,0-0.434,0-0.62c1.303-0.124,2.667-0.248,4.031-0.31c0,0.496,0,1.054,0,1.612c0.31-0.248,0.62-0.434,0.93-0.62
		c0.992-0.62,1.984-1.054,3.162-0.992c1.364,0.124,2.356,1.054,2.419,2.418c0.062,1.116,0.062,2.169,0.062,3.286
		c0,0.992,0,1.984,0.062,2.977c0.062,0.744,0.248,0.93,1.054,0.93c0.124,0,0.248,0,0.435,0c0,0.248,0,0.435,0,0.683
		c-1.675,0-3.287,0-4.961,0c0-0.187,0-0.435,0-0.683c0.248,0,0.496,0,0.744,0s0.372-0.124,0.372-0.372c0-1.798,0-3.596,0-5.394
		c0-0.372-0.062-0.806-0.187-1.178c-0.248-0.93-0.868-1.302-1.798-1.24c-0.744,0.124-1.426,0.434-2.046,0.868
		c-0.062,0.062-0.124,0.186-0.124,0.248c0,1.984,0,3.968,0.062,5.952c0,0.187,0.062,0.311,0.062,0.496
		c0.062,0.372,0.248,0.559,0.62,0.559C390.218,427.187,390.466,427.125,390.714,427.125z"/>
	<path d="M385.505,420.924c-2.232,0.557-4.402,1.178-6.635,1.736c0.124,1.303,0.311,2.604,1.303,3.534
		c0.93,0.868,2.046,0.931,3.162,0.62c0.558-0.186,1.054-0.496,1.55-0.744c0.124-0.062,0.187-0.124,0.248-0.186
		c0.124,0.186,0.248,0.31,0.372,0.496c-0.62,0.558-1.24,0.992-2.046,1.364c-1.24,0.558-2.542,0.682-3.845,0.31
		c-1.488-0.372-2.604-1.302-3.038-2.79c-0.62-2.046-0.496-4.03,0.806-5.828c1.427-2.046,4.341-2.48,6.263-1.054
		C384.575,419.002,385.133,419.871,385.505,420.924z M382.902,420.739c0-0.062,0-0.062,0-0.124c0-0.062-0.062-0.124-0.062-0.187
		c-0.248-0.682-0.558-1.364-1.178-1.798c-0.62-0.496-1.303-0.434-1.86,0.124c-0.807,0.868-0.868,1.922-0.931,3.038
		C380.235,421.481,381.537,421.111,382.902,420.739z"/>
	<path d="M447.142,420.924c-0.992,0.248-1.922,0.496-2.914,0.744c-1.116,0.311-2.295,0.62-3.411,0.931
		c-0.186,0.062-0.248,0.124-0.248,0.31c0.124,0.559,0.187,1.055,0.311,1.612c0.682,2.418,2.729,2.79,4.341,2.232
		c0.558-0.187,1.115-0.559,1.674-0.807c0.062,0.125,0.186,0.248,0.31,0.435c-0.186,0.124-0.31,0.31-0.495,0.434
		c-1.488,1.116-3.163,1.612-5.023,1.303c-1.736-0.311-2.914-1.303-3.41-3.038c-0.559-1.799-0.434-3.597,0.558-5.271
		c1.303-2.232,4.155-2.915,6.264-1.674C446.026,418.692,446.956,419.995,447.142,420.924z M444.661,420.739
		c-0.372-0.62-0.62-1.178-0.992-1.674c-0.806-0.992-1.922-0.93-2.604,0.248c-0.434,0.806-0.558,1.674-0.558,2.604
		C441.933,421.481,443.236,421.111,444.661,420.739z"/>
	<path d="M466.054,417.576c0.744,0,1.551,0.124,2.295,0.372c0.186,0.062,0.248,0.124,0.248,0.31c0.062,0.434,0.062,0.93,0.124,1.364
		c0,0.124-0.124,0.31-0.187,0.31c-0.124,0-0.248-0.062-0.434-0.124l-0.062-0.062c-0.558-1.116-1.612-1.302-2.729-1.302
		c-0.495,0-0.93,0.124-1.302,0.372c-0.744,0.496-0.806,1.488,0,1.984c0.559,0.311,1.24,0.496,1.86,0.806
		c0.62,0.248,1.302,0.496,1.922,0.868c2.108,1.116,1.675,3.41,0.559,4.464c-0.683,0.683-1.551,1.055-2.543,1.24
		c-1.426,0.248-2.852,0.124-4.216-0.31c-0.187-0.062-0.248-0.124-0.311-0.372c-0.062-0.559-0.186-1.116-0.186-1.674
		c0-0.125,0.062-0.311,0.186-0.373c0.187-0.123,0.311,0,0.435,0.187c0.062,0.062,0.062,0.124,0.062,0.186
		c0.372,0.931,1.116,1.427,2.047,1.551c0.806,0.124,1.612,0.062,2.355-0.248c0.744-0.311,1.055-0.931,0.931-1.612
		c-0.062-0.372-0.248-0.62-0.559-0.806c-0.558-0.311-1.115-0.559-1.674-0.744c-0.62-0.248-1.364-0.435-1.922-0.744
		c-0.992-0.559-1.675-1.364-1.551-2.604c0.124-1.116,0.744-1.86,1.675-2.356C464.071,417.7,465,417.576,466.054,417.576z"/>
	<path d="M373.724,417.886c1.302,0,2.604,0,3.969,0c0,0.186,0,0.434,0,0.682c-0.124,0-0.248,0-0.372,0
		c-0.435-0.062-0.744,0.186-0.931,0.558c-0.31,0.744-0.682,1.426-0.992,2.17c-0.991,2.17-1.983,4.402-2.976,6.573
		c-0.062,0.124-0.124,0.186-0.187,0.434c-0.124-0.186-0.248-0.31-0.31-0.496c-0.496-1.054-0.931-2.108-1.364-3.1
		c-0.744-1.675-1.488-3.287-2.232-4.96c-0.062-0.186-0.187-0.31-0.248-0.496c-0.248-0.496-0.62-0.744-1.24-0.682
		c-0.062,0-0.124,0-0.187,0c0-0.248,0-0.434,0-0.682c1.736,0,3.473,0,5.209,0c0,0.248,0,0.434,0,0.682c-0.186,0-0.434,0-0.62,0
		c-0.434,0.062-0.62,0.31-0.434,0.682c0.682,1.674,1.426,3.348,2.108,4.96c0.062,0.062,0.124,0.186,0.186,0.248
		c0.062-0.062,0.124-0.124,0.124-0.187c0.62-1.488,1.303-2.976,1.922-4.464c0.125-0.248,0.125-0.496,0.187-0.744
		c0.062-0.434-0.124-0.558-0.496-0.62c-0.31,0-0.62,0-0.992,0C373.724,418.32,373.724,418.134,373.724,417.886z"/>
	<path d="M401.194,417.576c0,0.248,0,0.496,0,0.744c0,2.294-0.062,4.65-0.062,6.944c0,0.372,0.062,0.744,0.124,1.116
		c0.062,0.496,0.31,0.682,0.868,0.682c0.248,0,0.558,0,0.806,0c0,0.248,0,0.496,0,0.683c-1.798,0-3.597,0-5.395,0
		c0-0.187,0-0.435,0-0.683c0.248,0,0.558,0,0.806,0s0.435-0.124,0.435-0.372c0-2.231,0-4.464,0-6.696c0-0.31-0.062-0.62-0.124-0.93
		c-0.124-0.496-0.311-0.62-0.807-0.62c-0.248,0-0.496,0-0.806,0c0-0.186,0-0.434,0-0.62
		C398.465,417.824,399.829,417.7,401.194,417.576z"/>
	<path d="M374.902,415.158c0-0.124,0-0.186,0-0.31c0.062,0,0.062-0.062,0.062-0.062c0.558-0.062,0.558-0.062,0.558-0.62
		c0-1.364,0-2.666,0-4.03c0-0.124,0-0.186,0-0.31c-0.062,0-0.062,0-0.062,0c-0.744,1.736-1.55,3.472-2.294,5.208
		c-0.062,0-0.062,0-0.124,0c-0.744-1.674-1.488-3.349-2.295-5.022c-0.062,0.062-0.062,0.124-0.062,0.124
		c0,1.302,0,2.542,0.062,3.844c0,0.744,0.062,0.744,0.807,0.744c0.062,0,0.124,0,0.186,0c0,0.124,0,0.186,0,0.31
		c-0.682,0-1.364,0-2.108,0c0-0.124,0-0.186,0-0.31c0.062,0,0.062,0,0.124,0c0.496,0,0.496-0.062,0.496-0.496
		c0-1.55,0-3.038,0-4.588c0-0.62-0.124-0.682-0.744-0.682c-0.062,0-0.062,0-0.124,0c0-0.124,0-0.186,0-0.248
		c0.062,0,0.062-0.062,0.124-0.062c0.559,0,1.055,0,1.612,0c0.124,0,0.248,0.124,0.248,0.248c0.62,1.302,1.24,2.666,1.86,3.968
		c0.062,0.124,0.124,0.186,0.186,0.372c0.062-0.186,0.125-0.248,0.187-0.372c0.558-1.302,1.116-2.666,1.736-3.968
		c0.062-0.186,0.186-0.248,0.372-0.248c0.496,0,0.93,0,1.426,0c0,0.124,0,0.186,0,0.31c-0.062,0-0.062,0.062-0.062,0.062
		c-0.559,0.062-0.559,0.062-0.559,0.62c0,1.488,0,3.038,0.062,4.526c0,0.124,0,0.186,0,0.31c0.062,0.248,0.186,0.434,0.496,0.434
		c0.062,0,0.186,0,0.31,0c0,0.124,0,0.186,0,0.31C376.638,415.158,375.77,415.158,374.902,415.158z"/>
	<path d="M396.419,414.91c0,0.062,0,0.186,0,0.248c-0.744,0-1.427,0-2.171,0c0-0.062,0-0.186,0-0.31c0.124,0,0.187,0,0.311,0
		c0.062-0.062,0.186-0.124,0.186-0.248c0-0.744,0-1.488,0-2.232c0-1.054-0.558-1.364-1.488-0.868
		c-0.248,0.124-0.31,0.248-0.31,0.558c0,0.62,0,1.24,0,1.86c0,0.062,0,0.124,0,0.124c0,0.62,0.062,0.682,0.682,0.806
		c0,0.062,0,0.186,0,0.248c-0.744,0-1.488,0-2.231,0c0-0.124,0-0.186,0-0.248l0.062-0.062c0.496-0.062,0.496,0.062,0.496-0.496
		c0-1.674,0-3.286,0-4.96c0-0.124,0-0.248,0-0.372c-0.062-0.62-0.062-0.62-0.682-0.62c0-0.124,0-0.186,0-0.31
		c0.062,0,0.124-0.062,0.186-0.062c0.496-0.062,1.054-0.062,1.612-0.124c0,1.116,0,2.232,0,3.411c0.186-0.124,0.31-0.248,0.496-0.31
		c0.248-0.124,0.496-0.248,0.806-0.31c0.868-0.248,1.551,0.31,1.551,1.24c0,0.744,0,1.488,0,2.232
		C395.799,414.786,395.799,414.848,396.419,414.91z"/>
	<path d="M387.241,414.91c0,0.124,0,0.186,0,0.31c-0.682,0-1.426,0-2.17,0c0-0.124,0-0.186,0-0.31c0.062,0,0.186,0,0.248,0
		c0.248,0,0.248-0.124,0.248-0.31c0-0.744,0-1.488,0-2.17c0-1.054-0.559-1.364-1.488-0.868c-0.186,0.124-0.311,0.248-0.311,0.496
		c0.062,0.744,0,1.426,0,2.17c0,0.558,0.062,0.62,0.62,0.682c0,0.062,0,0.186,0,0.248c-0.743,0-1.487,0-2.231,0
		c0-0.124,0-0.186,0-0.248l0.062-0.062c0.496-0.062,0.496-0.062,0.496-0.496c0-0.868,0-1.674,0-2.542c0-0.682,0-0.682-0.682-0.682
		c-0.062-0.186-0.062-0.31,0.186-0.31c0.496-0.062,0.992-0.062,1.488-0.124c0,0.186,0,0.434,0,0.682
		c0.187-0.124,0.372-0.248,0.559-0.31c0.434-0.248,0.93-0.434,1.487-0.31c0.496,0.124,0.807,0.434,0.807,0.992
		c0.062,0.558,0,1.054,0.062,1.612c0,0.31,0,0.62,0,0.93C386.621,414.848,386.621,414.848,387.241,414.91z"/>
	<path d="M381.909,414.724c-0.124,0.186-0.248,0.372-0.372,0.496c-0.062,0.062-0.187,0.124-0.248,0.062
		c-0.496,0-0.744-0.186-1.116-0.744c-0.187,0.124-0.311,0.248-0.496,0.372c-0.248,0.124-0.496,0.248-0.744,0.372
		c-0.435,0.124-0.868,0-1.116-0.31s-0.248-0.868,0-1.24c0.186-0.248,0.434-0.434,0.682-0.62c0.496-0.248,0.992-0.434,1.488-0.62
		c0.187-0.062,0.248-0.124,0.187-0.31c0-0.062,0-0.186,0-0.248c0-0.744-0.559-1.116-1.24-0.744
		c-0.062,0.062-0.124,0.124-0.124,0.248c-0.124,0.187-0.124,0.435-0.248,0.62c-0.124,0.186-0.372,0.248-0.559,0.124
		c-0.248-0.124-0.248-0.372-0.124-0.558c0.124-0.248,0.311-0.434,0.496-0.558c0.683-0.434,1.488-0.496,2.232-0.372
		c0.372,0.062,0.559,0.248,0.559,0.62c0.062,0.62,0.062,1.178,0.062,1.798c0,0.186,0,0.31,0,0.496
		C381.165,414.166,381.289,414.6,381.909,414.724z M380.173,412.801c-0.496,0.186-0.931,0.31-1.24,0.682
		c-0.124,0.124-0.187,0.31-0.187,0.496c-0.062,0.434,0.248,0.744,0.62,0.62c0.248-0.062,0.496-0.248,0.744-0.372
		c0.062,0,0.062-0.124,0.062-0.124C380.173,413.669,380.173,413.235,380.173,412.801z"/>
	<path d="M400.449,412.181c-0.93,0.248-1.86,0.496-2.853,0.744c0.062,0.62,0.124,1.302,0.744,1.674
		c0.744,0.434,1.427,0.186,2.047-0.248c0.062,0.062,0.062,0.062,0.062,0.062c0.062,0.062,0.062,0.062,0.062,0.124s0,0.062,0,0.062
		c-0.744,0.682-1.612,0.93-2.604,0.682c-0.559-0.124-0.992-0.496-1.179-0.992c-0.434-0.992-0.31-1.922,0.248-2.79
		c0.496-0.682,1.24-0.93,2.047-0.744C399.705,410.879,400.325,411.5,400.449,412.181z M399.396,412.057
		c-0.187-0.31-0.311-0.558-0.496-0.806c-0.311-0.372-0.744-0.31-0.992,0.062c-0.248,0.372-0.311,0.744-0.311,1.24
		C398.217,412.429,398.776,412.244,399.396,412.057z"/>
	<path d="M408.573,412.925c0.062,1.86,1.427,2.356,2.79,1.426c0.062,0.062,0.124,0.124,0.124,0.186
		c-0.682,0.744-1.922,0.992-2.852,0.62c-0.62-0.248-0.992-0.744-1.116-1.426s-0.062-1.364,0.248-2.046
		c0.434-0.744,1.116-1.116,1.984-1.054s1.364,0.62,1.674,1.364c0,0.062,0,0.062,0,0.124
		C410.495,412.429,409.565,412.677,408.573,412.925z M410.433,412.057c-0.186-0.31-0.311-0.558-0.496-0.806
		c-0.31-0.31-0.744-0.31-0.992,0.062c-0.248,0.372-0.31,0.744-0.31,1.24C409.193,412.429,409.751,412.244,410.433,412.057z"/>
	<path d="M402.247,415.406c-0.372-0.062-0.744-0.124-1.054-0.186c-0.187-0.062-0.248-0.124-0.248-0.31s-0.062-0.372-0.062-0.558
		c0-0.062,0.062-0.124,0.062-0.186c0.062,0.062,0.124,0.062,0.186,0.124c0.435,0.682,0.992,0.868,1.736,0.682
		c0.124-0.062,0.311-0.124,0.435-0.186c0.31-0.248,0.31-0.682,0-0.93c-0.187-0.124-0.496-0.248-0.744-0.372
		c-0.311-0.124-0.62-0.186-0.931-0.372c-0.806-0.434-0.868-1.426-0.124-1.984c0.683-0.496,1.427-0.496,2.171-0.31
		c0.124,0.062,0.372,0.062,0.434,0.186c0.062,0.186,0.062,0.496,0.062,0.682c0,0.062-0.062,0.124-0.062,0.124
		c-0.062-0.062-0.124-0.062-0.186-0.124c-0.372-0.496-0.931-0.682-1.488-0.496c-0.124,0.062-0.248,0.062-0.311,0.186
		c-0.248,0.248-0.248,0.62,0.062,0.806c0.248,0.124,0.496,0.248,0.744,0.311c0.31,0.124,0.62,0.248,0.93,0.434
		c0.807,0.434,0.868,1.426,0.187,2.046C403.426,415.22,402.867,415.344,402.247,415.406z"/>
	<path d="M414.154,414.91c0,0.124,0,0.186,0,0.31c-0.062,0-0.124,0-0.187,0c-0.744,0-1.488,0-2.232,0c0-0.124,0-0.186,0-0.31
		c0.496-0.062,0.496-0.062,0.496-0.62c0-0.806,0-1.55,0-2.356c0-0.744,0-0.744-0.744-0.806c-0.062-0.186-0.062-0.248,0.187-0.31
		c0.496-0.062,1.054-0.062,1.612-0.124c0,0.248,0,0.496,0,0.806c0.248-0.186,0.434-0.372,0.62-0.558
		c0.31-0.248,0.62-0.372,0.992-0.186c0.186,0.062,0.248,0.186,0.186,0.31c-0.062,0.186-0.062,0.372-0.124,0.558
		c-0.062,0.186-0.124,0.248-0.248,0.124c-0.372-0.372-1.054-0.31-1.364,0.186c-0.062,0.062-0.062,0.124-0.062,0.248
		c0,0.682,0,1.364,0,2.108c0,0.62,0.062,0.682,0.682,0.682C414.091,414.91,414.091,414.91,414.154,414.91z"/>
	<path d="M391.086,414.414c0.062,0.062,0.124,0.124,0.124,0.186c-0.62,0.682-1.922,0.93-2.853,0.496
		c-0.806-0.434-1.24-1.364-1.054-2.418c0.248-1.364,1.426-2.232,2.729-1.922c0.31,0.062,0.62,0.186,0.806,0.496
		c0.187,0.248,0.187,0.558,0,0.682c-0.186,0.124-0.496,0.062-0.682-0.186c-0.062-0.124-0.124-0.248-0.187-0.435
		c-0.062-0.31-0.186-0.372-0.496-0.31c-0.434,0.062-0.682,0.31-0.868,0.682c-0.372,0.744-0.434,1.55-0.062,2.294
		c0.434,0.806,1.364,1.054,2.17,0.62C390.901,414.6,390.962,414.538,391.086,414.414z"/>
	<path d="M405.224,411.313c-0.186,0-0.372,0-0.496-0.062c0-0.062,0-0.062-0.062-0.062c0.496-0.496,0.992-0.992,1.488-1.426
		l0.062,0.062c0,0.31,0,0.62,0,0.992c0.372,0,0.744,0,1.116,0c0.062,0.434,0,0.496-0.434,0.496c-0.248,0-0.435,0-0.683,0
		c0,0.248,0,0.496,0,0.744c0,0.682,0,1.302,0,1.922c0,0.744,0.311,0.992,1.055,0.744c0.062,0,0.124-0.062,0.248-0.062
		c0.062,0.062,0.062,0.186,0.124,0.248c-0.559,0.31-1.179,0.434-1.799,0.31c-0.31-0.062-0.496-0.248-0.558-0.558
		c-0.062-0.186-0.062-0.434-0.062-0.62C405.224,413.173,405.224,412.244,405.224,411.313z"/>
</g>
</svg>
