<?xml version="1.0" encoding="utf-8"?>
<!-- Generator: Adobe Illustrator 21.0.2, SVG Export Plug-In . SVG Version: 6.00 Build 0)  -->
<svg version="1.1" id="Layer_1" xmlns="http://www.w3.org/2000/svg" xmlns:xlink="http://www.w3.org/1999/xlink" x="0px" y="0px"
	 viewBox="0 0 26.9 26.9" style="enable-background:new 0 0 26.9 26.9;" xml:space="preserve">
<style type="text/css">
	.st0{fill:#0FD7E8;}
</style>
<path class="st0" d="M8.8,12.3V15h4.6c-0.2,1.2-1.4,3.5-4.6,3.5c-2.8,0-5-2.3-5-5.1s2.2-5.1,5-5.1c1.6,0,2.6,0.7,3.2,1.2l2.2-2.1
	c-1.4-1.3-3.2-2.1-5.4-2.1c-4.5,0-8.1,3.6-8.1,8.1c0,4.5,3.6,8.1,8.1,8.1c4.7,0,7.8-3.3,7.8-7.9c0-0.5-0.1-0.9-0.1-1.3L8.8,12.3
	L8.8,12.3z M26.1,12.3h-2.3V9.9h-2.3v2.3h-2.3v2.3h2.3v2.3h2.3v-2.3h2.3"/>
</svg>
