<?xml version="1.0" encoding="utf-8"?>
<!-- Generator: Adobe Illustrator 21.0.2, SVG Export Plug-In . SVG Version: 6.00 Build 0)  -->
<svg version="1.1"
	 id="Layer_1" xmlns:cc="http://creativecommons.org/ns#" xmlns:dc="http://purl.org/dc/elements/1.1/" xmlns:inkscape="http://www.inkscape.org/namespaces/inkscape" xmlns:rdf="http://www.w3.org/1999/02/22-rdf-syntax-ns#" xmlns:sodipodi="http://sodipodi.sourceforge.net/DTD/sodipodi-0.dtd" xmlns:svg="http://www.w3.org/2000/svg"
	 xmlns="http://www.w3.org/2000/svg" xmlns:xlink="http://www.w3.org/1999/xlink" x="0px" y="0px" viewBox="0 0 88 88"
	 style="enable-background:new 0 0 88 88;" xml:space="preserve">
<style type="text/css">
	.st0{fill:#B4B7B9;}
	.st1{fill:#FFFFFF;stroke:#000000;stroke-miterlimit:10;}
</style>
<g transform="translate(0,-952.36218)">
	<path class="st0" d="M0,996.4c0,24.3,19.7,44,44,44s44-19.7,44-44s-19.7-44-44-44C19.8,952.4,0,972.1,0,996.4z M6,996.4
		c0-21,17-38,38-38s38,17,38,38s-17,38-38,38S6,1017.4,6,996.4z M24.9,996.4l1.9,2l24,26l4.4-4.1l-22.1-24l22.1-24l-4.4-4.1l-24,26
		C26.8,994.4,24.9,996.4,24.9,996.4z"/>
</g>
<circle class="st1" cx="-162" cy="-122.5" r="0"/>
</svg>
