<?xml version="1.0" encoding="utf-8"?>
<!-- Generator: Adobe Illustrator 21.0.2, SVG Export Plug-In . SVG Version: 6.00 Build 0)  -->
<svg version="1.1" id="Layer_1" xmlns="http://www.w3.org/2000/svg" xmlns:xlink="http://www.w3.org/1999/xlink" x="0px" y="0px"
	 viewBox="0 0 26.9 26.9" style="enable-background:new 0 0 26.9 26.9;" xml:space="preserve">
<style type="text/css">
	.st0{fill:#6bcdb5;}
</style>
<path class="st0" d="M24.8,3.5c-1,0.6-2,1-3.1,1.3c-0.9-1-2.2-1.6-3.6-1.6c-2.8,0.1-5,2.4-4.9,5.2c0,0.4,0,0.8,0.1,1.2
	c-4-0.2-7.8-2.2-10.2-5.4C2.6,4.9,2.4,5.8,2.4,6.7c0,1.7,0.8,3.3,2.2,4.3c-0.8,0-1.6-0.3-2.2-0.6v0.1c0,2.4,1.6,4.6,4,5.1
	c-0.4,0.1-0.9,0.2-1.3,0.2c-0.3,0-0.6,0-0.9-0.1c0.6,2.1,2.5,3.5,4.6,3.6c-2,1.7-4.7,2.5-7.3,2.2C3.6,23,6.3,23.8,9,23.8
	c9.1,0,14.1-7.9,14.1-14.8c0-0.2,0-0.5,0-0.7c1-0.7,1.8-1.7,2.5-2.7c-0.9,0.4-1.9,0.7-2.8,0.8C23.7,5.7,24.5,4.7,24.8,3.5"/>
</svg>
