<svg xmlns="http://www.w3.org/2000/svg" viewBox="5120 2930 135.625 42.26"><defs><style>.a{opacity:0.238;}.b{fill:#fff;}</style></defs><g class="a" transform="translate(5022.903 2586.803)"><path class="b" d="M106.277,436.194A36.038,36.038,0,0,1,97.1,442.4v1.041h18.064V442.4c-2.788-1.3-5.836-4.126-7.954-6.207Z" transform="translate(0 -58.431)"/><path class="b" d="M103.8,343.2v1.041c2.936.595,9.069,3.568,9.664,5.129l13.529,36.09h1.189l6.987-13.6L124.35,343.2Z" transform="translate(-4.209 -0.001)"/><path class="b" d="M213.867,379.176,210.3,348.921c-.186-1.524,4.5-4.126,7.248-4.683V343.2H197.215l4.237,36.164c.223,1.784-4.386,3.94-7.359,4.572v1.041h27.17v-1.041C219.107,383.562,214.126,381.072,213.867,379.176Z" transform="translate(-60.943 0)"/><path class="b" d="M273.391,344.239c2.676.632,7.285,2.342,7.285,4.126v31.444c0,1.784-4.646,3.531-7.285,4.126v1.041h26.984v-1.041c-2.676-.632-7.285-2.342-7.285-4.126V348.365c0-1.784,4.646-3.531,7.285-4.126V343.2H273.391Z" transform="translate(-110.767 -0.001)"/><path class="b" d="M373.35,379.808V343.2H353.688v1.041c2.676.632,7.285,2.342,7.285,4.126v31.444c0,1.784-4.646,3.531-7.285,4.126v1.041h26.984v-1.041C377.959,383.339,373.35,381.592,373.35,379.808Z" transform="translate(-161.218 0)"/><path class="b" d="M416.886,343.2v1.041l8.326,1.9c2.379.483,5.575,7.917,7.211,12.823h1.227V343.2H416.886Z" transform="translate(-200.926 -0.001)"/><path class="b" d="M419.674,380.342l-4.088,1.078v.966l4.088,1.078c1.524.372,4.5,6.653,4.572,7.471h1.189V372.8h-1.189C424.172,373.726,421.2,379.97,419.674,380.342Z" transform="translate(-200.109 -18.598)"/></g></svg>