<?xml version="1.0" encoding="utf-8"?>
<!-- Generator: Adobe Illustrator 21.0.2, SVG Export Plug-In . SVG Version: 6.00 Build 0)  -->
<svg version="1.1" xmlns="http://www.w3.org/2000/svg" xmlns:xlink="http://www.w3.org/1999/xlink" x="0px" y="0px"
	 viewBox="0 0 1614.2 1188.1" style="enable-background:new 0 0 1614.2 1188.1;" xml:space="preserve">
<style type="text/css">
	.st0{fill:none;}
	.st1{fill:#FFFFFF;}
</style>
<g id="Layer_1">
	<path class="st0" d=""/>
	<g>
		<path class="st1" d="M731.7,233.7H307.7l-4.5,176.9c23.1-8.6,54.8-13,95-13c54.3,0,104.1,8.7,149.4,26
			c45.3,17.3,84.2,42.5,116.9,75.5c32.7,33,58.1,73,76.2,120.1c18.1,47.1,27.2,99.8,27.2,158.2c0,64.9-10.3,122.8-30.9,173.7
			c-20.6,50.9-49,93.9-85.2,129c-36.2,35.2-79.2,62-129,80.3c-49.8,18.4-103.9,27.6-162.2,27.6c-92.5,0-170-24.3-232.3-73
			C65.9,1066.3,23.1,992.8,0,894.3l236.8-58.4c6,41.1,22.1,74.4,48.3,99.8c26.1,25.4,58.8,38.1,98.1,38.1
			c48.3,0,86.7-16.2,115.4-48.7c28.7-32.5,43-73.6,43-123.4c0-37.9-7.3-69-21.9-93.3c-14.6-24.4-33.7-43.8-57.3-58.4
			c-23.6-14.6-50-24.6-79.2-30c-29.2-5.4-58.3-8.1-87.5-8.1c-37.2,0-74.7,3.8-112.4,11.4c-37.7,7.6-74.2,17.9-109.4,30.8L86,19.5
			h645.7V233.7z"/>
		<path class="st1" d="M820.7,594c0-68.2,5.8-137.4,17.3-207.8c11.6-70.3,32.2-134.2,61.8-191.5c29.7-57.3,70.1-104.1,121.4-140.4
			C1072.6,18.1,1137.9,0,1217.4,0c79.4,0,144.8,18.1,196.1,54.4c51.3,36.3,91.8,83.1,121.4,140.4c29.7,57.4,50.3,121.2,61.8,191.5
			c11.6,70.4,17.3,139.6,17.3,207.8c0,68.2-5.8,137.4-17.3,207.7c-11.6,70.4-32.2,134.2-61.8,191.5
			c-29.7,57.4-70.2,104.2-121.4,140.4c-51.3,36.2-116.7,54.4-196.1,54.4c-79.5,0-144.8-18.1-196.1-54.4
			c-51.3-36.2-91.8-83-121.4-140.4C870.2,936,849.5,872.1,838,801.8C826.4,731.5,820.7,662.2,820.7,594z M1046.9,594
			c0,30.3,1.2,66.5,3.8,108.7c2.5,42.2,9.3,82.8,20.4,121.7c11.1,39,27.9,72,50.5,99c22.6,27.1,54.5,40.6,95.8,40.6
			c40.2,0,71.9-13.5,95-40.6c23.1-27,40.2-60.1,51.3-99c11.1-39,17.8-79.5,20.4-121.7c2.5-42.2,3.8-78.4,3.8-108.7
			c0-30.3-1.3-66.5-3.8-108.7c-2.5-42.2-9.3-82.8-20.4-121.7c-11.1-39-28.2-71.9-51.3-99c-23.1-27-54.8-40.6-95-40.6
			c-41.2,0-73.2,13.5-95.8,40.6c-22.6,27.1-39.5,60.1-50.5,99c-11.1,39-17.9,79.5-20.4,121.7C1048.2,527.5,1046.9,563.8,1046.9,594z
			"/>
	</g>
</g>
<g id="Layer_2">
</g>
</svg>
