<?xml version="1.0" encoding="utf-8"?>
<!-- Generator: Adobe Illustrator 20.1.0, SVG Export Plug-In . SVG Version: 6.00 Build 0)  -->
<svg version="1.1" id="Layer_1" xmlns="http://www.w3.org/2000/svg" xmlns:xlink="http://www.w3.org/1999/xlink" x="0px" y="0px"
	 viewBox="0 0 1700 1193.3" style="enable-background:new 0 0 1700 1193.3;" xml:space="preserve">
<style type="text/css">
	.st0{fill:#312E33;}
	.st1{opacity:0.71;clip-path:url(#SVGID_2_);}
	.st2{fill:#262526;}
</style>
<g>
	<rect class="st0" width="1700" height="1193.3"/>
</g>
<g>
	<defs>
		<rect id="SVGID_1_" y="193.3" width="1700" height="1000"/>
	</defs>
	<clipPath id="SVGID_2_">
		<use xlink:href="#SVGID_1_"  style="overflow:visible;"/>
	</clipPath>
	<g id="KR8fn8.tif" class="st1">
		<g>
			<path class="st2" d="M146.2,1225L88.5,951.9l79.6-29.8l136.2,364.2l-54.1,20.2l-97.7-261.2l58.1,276l-54.1,20.2L17.5,1100
				l96.3,257.5l-49.9,18.7L-72.3,1012l79.6-29.8L146.2,1225z"/>
			<path class="st2" d="M521.8,1205l-57.8,21.6l-34.6-62.4l-70.2,26.3l14.8,69.8l-52.5,19.7l-77.9-386l83.8-31.3L521.8,1205z
				 M348,1138.3l55.2-20.6l-96.5-173.9L348,1138.3z"/>
			<path class="st2" d="M491.3,915.7l98.7,263.8l-51.5,19.3L402.2,834.5l71.8-26.9l140.3,196l-81.5-218l51-19.1L720,1130.8l-58.8,22
				L491.3,915.7z"/>
			<path class="st2" d="M866.9,921.1l18.1,48.4c21.8,58.3,5.1,102.5-51.1,123.5c-56.2,21-97.8-1.4-119.6-59.7l-70.8-189.4
				c-21.8-58.3-5.1-102.5,51.1-123.5c56.2-21,97.8,1.4,119.6,59.7l13.2,35.4l-54.1,20.2l-14.6-39c-9.7-26-24.9-31.6-43.1-24.8
				c-18.2,6.8-26,21-16.2,47l73.5,196.7c9.7,26,24.7,31.1,42.9,24.3s26.2-20.5,16.4-46.5l-19.5-52L866.9,921.1z"/>
			<path class="st2" d="M1000.4,1026l-57.2,21.4L807,683.2l57.2-21.4l58.4,156.1l65-24.3l-58.4-156.1l58.3-21.8l136.2,364.2
				l-58.3,21.8l-58.4-156.1l-65,24.3L1000.4,1026z"/>
			<path class="st2" d="M1134.4,735.7l78.6-29.4l19.5,52l-78.6,29.4l39.9,106.7l98.9-37l19.5,52L1156,967.8l-136.2-364.2l156.1-58.4
				l19.5,52l-98.9,37L1134.4,735.7z"/>
			<path class="st2" d="M1277.3,502.5c55.7-20.8,96.7,1.8,118.5,60l4.3,11.4l-54.1,20.2l-5.6-15.1c-9.7-26-23.8-32-42-25.2
				c-18.2,6.8-24.9,20.6-15.2,46.6c28,74.9,145.1,47.1,184,151.2c21.8,58.3,5.1,102.5-51.1,123.5c-56.2,21-97.8-1.4-119.6-59.7
				l-8.4-22.4l54.1-20.2l9.7,26c9.7,26,24.7,31.1,42.9,24.3s26.2-20.5,16.4-46.5c-28-74.9-145.1-47.1-184.1-151.2
				C1205.5,567.3,1221.6,523.3,1277.3,502.5z"/>
			<path class="st2" d="M1370.4,472.4l176.9-66.2l19.5,52l-59.8,22.4l116.7,312.2l-57.2,21.4l-116.7-312.2l-59.8,22.4L1370.4,472.4z
				"/>
			<path class="st2" d="M1677.6,532.5l78.6-29.4l19.5,52l-78.6,29.4l39.9,106.7l98.9-37l19.5,52l-156.1,58.4l-136.2-364.2
				l156.1-58.4l19.5,52l-98.9,37L1677.6,532.5z"/>
			<path class="st2" d="M2000.9,651.8c-6.6-8.2-10.8-13.1-21.9-42.8l-21.4-57.2c-12.6-33.8-28.8-42-54.8-32.3l-19.8,7.4l55.5,148.3
				l-57.2,21.4L1745,332.3l86.4-32.3c59.3-22.2,95.1-4.1,116.1,52l10.7,28.6c14,37.5,11.2,66.4-9.8,87.9c33.1,1.3,52.8,25.3,67,63.3
				l21,56.2c6.6,17.7,12,30.5,22.8,41.9L2000.9,651.8z M1821.7,363l41.8,111.9l22.4-8.4c21.3-8,30.8-22.2,19.9-51.3l-13.4-35.9
				c-9.7-26-22.9-34.2-43.1-26.6L1821.7,363z"/>
			<path class="st2" d="M156.3,1387c55.7-20.8,96.7,1.8,118.5,60l4.3,11.4l-54.1,20.2l-5.6-15.1c-9.7-26-23.8-32-42-25.2
				c-18.2,6.8-24.9,20.6-15.2,46.6c28,74.9,145.1,47.1,184.1,151.2c21.8,58.3,5.1,102.5-51.1,123.5c-56.2,21-97.8-1.4-119.6-59.7
				l-8.4-22.4l54.1-20.2l9.7,26c9.7,26,24.7,31.1,42.9,24.3c18.2-6.8,26.2-20.5,16.4-46.5c-28-74.9-145.1-47.1-184.1-151.2
				C84.5,1451.8,100.6,1407.8,156.3,1387z"/>
			<path class="st2" d="M249.4,1356.9l176.9-66.2l19.5,52l-59.8,22.4l116.7,312.2l-57.2,21.4l-116.7-312.2l-59.8,22.4L249.4,1356.9z
				"/>
			<path class="st2" d="M697.8,1604.3c-6.6-8.2-10.8-13.1-21.9-42.8l-21.4-57.2c-12.6-33.8-28.8-42-54.8-32.3l-19.8,7.4l55.5,148.3
				l-57.2,21.4l-136.2-364.2l86.4-32.3c59.3-22.2,95.1-4.1,116.1,52.1l10.7,28.6c14,37.5,11.2,66.4-9.8,87.9
				c33.1,1.3,52.8,25.3,67,63.3l21,56.2c6.6,17.7,12,30.5,22.8,41.9L697.8,1604.3z M518.6,1315.5l41.8,111.9l22.4-8.4
				c21.3-8,30.8-22.2,19.9-51.3l-13.4-35.9c-9.7-26-22.9-34.2-43.1-26.6L518.6,1315.5z"/>
			<path class="st2" d="M756.3,1342.2l78.6-29.4l19.5,52l-78.6,29.4l39.9,106.7l98.9-37l19.5,52l-156.1,58.4l-136.2-364.2
				l156.1-58.4l19.5,52l-98.9,37L756.3,1342.2z"/>
			<path class="st2" d="M938.4,1274.1l78.6-29.4l19.5,52l-78.6,29.4l39.9,106.7l98.9-37l19.5,52L960,1506.3l-136.2-364.2l156.1-58.4
				l19.5,52l-98.9,37L938.4,1274.1z"/>
			<path class="st2" d="M989.3,1080.2l176.9-66.2l19.5,52l-59.8,22.4l116.7,312.2l-57.2,21.4l-116.7-312.2l-59.8,22.4L989.3,1080.2z
				"/>
			<path class="st2" d="M1456.3,1008.1l17.7,47.3c21.8,58.3,5.6,100.5-51.7,121.9l-27.1,10.1l51.2,136.8l-57.2,21.4L1253,981.5
				l84.3-31.5C1394.6,928.6,1434.5,949.8,1456.3,1008.1z M1329.7,1012.2l46.1,123.3l27.1-10.1c18.2-6.8,25-18.8,15.3-44.8
				l-20.4-54.6c-9.7-26-22.7-30.6-40.9-23.8L1329.7,1012.2z"/>
			<path class="st2" d="M1470.4,999.9c-21.8-58.3-3.6-103.1,52.6-124.1c56.2-21,99.3,0.8,121.1,59.1l70.8,189.4
				c21.8,58.3,3.5,103-52.6,124.1c-56.2,21-99.3-0.8-121.1-59.1L1470.4,999.9z M1599.8,1171.5c9.7,26,24.9,31.6,43.1,24.8
				c18.2-6.8,26-21,16.2-47l-73.6-196.7c-9.7-26-24.9-31.6-43.1-24.8c-18.2,6.8-26,21-16.2,47L1599.8,1171.5z"/>
			<path class="st2" d="M1753.7,969.2l78.6-29.4l19.5,52l-78.6,29.4l39.9,106.7l98.9-37l19.5,52l-156.1,58.4l-136.2-364.2
				l156.1-58.4l19.5,52l-98.9,37L1753.7,969.2z"/>
			<path class="st2" d="M2039.1,982.3l-57.7-273.2l79.6-29.8l136.2,364.2l-54.1,20.2l-97.7-261.2l58.1,276l-54.1,20.2l-139-241.6
				l96.3,257.5l-49.9,18.7l-136.2-364.2l79.6-29.8L2039.1,982.3z"/>
		</g>
	</g>
</g>
</svg>
