<?xml version="1.0" encoding="utf-8"?>
<!-- Generator: Adobe Illustrator 16.0.0, SVG Export Plug-In . SVG Version: 6.00 Build 0)  -->
<!DOCTYPE svg PUBLIC "-//W3C//DTD SVG 1.1//EN" "http://www.w3.org/Graphics/SVG/1.1/DTD/svg11.dtd">
<svg version="1.1" id="Layer_1" xmlns="http://www.w3.org/2000/svg" xmlns:xlink="http://www.w3.org/1999/xlink" x="0px" y="0px"
	 width="364.888px" height="113.696px" viewBox="97.097 343.198 364.888 113.696"
	 enable-background="new 97.097 343.198 364.888 113.696" xml:space="preserve">
<g>
	<path fill="#FFFFFF" d="M121.796,436.194c-6.7,6.8-17.1,13-24.699,16.699v2.801h48.599v-2.801c-7.5-3.499-15.7-11.1-21.399-16.699
		H121.796z"/>
	<path fill="#FFFFFF" d="M103.796,343.198v2.8c7.9,1.6,24.399,9.6,26,13.799l36.398,97.097h3.2l18.799-36.599l-29.099-77.097
		H103.796z"/>
	<path fill="#FFFFFF" d="M247.292,439.994l-9.601-81.397c-0.5-4.1,12.1-11.1,19.5-12.6v-2.8h-54.698l11.399,97.296
		c0.6,4.8-11.8,10.6-19.799,12.3v2.8h73.097v-2.8C261.391,451.794,247.991,445.095,247.292,439.994z"/>
	<path fill="#FFFFFF" d="M273.391,345.998c7.2,1.7,19.6,6.3,19.6,11.1v84.597c0,4.8-12.5,9.5-19.6,11.1v2.8h72.598v-2.8
		c-7.2-1.7-19.6-6.3-19.6-11.1v-84.597c0-4.8,12.5-9.5,19.6-11.1v-2.8h-72.598V345.998z"/>
	<path fill="#FFFFFF" d="M406.586,441.694v-98.497h-52.898v2.8c7.2,1.7,19.6,6.3,19.6,11.1v84.597c0,4.8-12.5,9.5-19.6,11.1v2.8
		h72.598v-2.8C418.986,451.194,406.586,446.494,406.586,441.694z"/>
	<path fill="#FFFFFF" d="M416.886,343.198v2.8l22.399,5.1c6.399,1.3,14.999,21.299,19.399,34.499h3.3v-42.398H416.886z"/>
	<path fill="#FFFFFF" d="M426.585,393.096l-10.999,2.9v2.6l10.999,2.9c4.101,1,12.1,17.899,12.3,20.1h3.2v-48.799h-3.2
		C438.685,375.296,430.686,392.096,426.585,393.096z"/>
</g>
</svg>
