<?xml version="1.0" encoding="utf-8"?>
<!-- Generator: Adobe Illustrator 23.0.1, SVG Export Plug-In . SVG Version: 6.00 Build 0)  -->
<svg version="1.1" id="Layer_1" xmlns="http://www.w3.org/2000/svg" xmlns:xlink="http://www.w3.org/1999/xlink" x="0px" y="0px"
	 viewBox="0 0 453.54 113.39" style="enable-background:new 0 0 453.54 113.39;" xml:space="preserve">
<style type="text/css">
	.st0{fill:#000;}
</style>
<g>
	<g>
		<path class="st0" d="M30.86,82.44c-4.53,4.57-11.52,8.78-16.69,11.25v1.88h32.84v-1.88c-5.07-2.38-10.63-7.49-14.45-11.25H30.86z"
			/>
		<path class="st0" d="M18.72,19.67v1.86c5.36,1.05,16.5,6.46,17.53,9.29L60.5,95.56l1.9,0L75.7,71.72L56.07,19.67H18.72z"/>
		<path class="st0" d="M115.66,85.05l-6.49-55c-0.32-2.75,8.17-7.46,13.18-8.52v-1.86H85.39l7.69,65.7c0.41,3.21-8,7.13-13.35,8.32
			v1.88h49.36v-1.88C125.17,92.99,116.08,88.49,115.66,85.05"/>
		<path class="st0" d="M133.25,21.55c4.83,1.12,13.26,4.27,13.26,7.51v57.12c0,3.24-8.43,6.39-13.26,7.51v1.88h49.02v-1.88
			c-4.83-1.12-13.26-4.27-13.26-7.51V29.06c0-3.24,8.43-6.39,13.26-7.51v-1.88h-49.02V21.55z"/>
		<path class="st0" d="M223.19,86.18V19.69l-35.76-0.02v1.88c4.83,1.12,13.26,4.27,13.26,7.51v57.12c0,3.24-8.43,6.39-13.26,7.51
			v1.88h49.02v-1.88C231.61,92.57,223.19,89.42,223.19,86.18"/>
		<path class="st0" d="M230.16,19.66v1.88l15.1,3.46c4.33,0.88,10.16,14.36,13.1,23.31h2.2V19.68L230.16,19.66z"/>
		<path class="st0" d="M236.73,53.38l-7.44,1.99v1.78l7.44,1.99c2.78,0.7,8.19,12.05,8.3,13.59h2.19V39.79h-2.19
			C244.92,41.33,239.5,52.69,236.73,53.38"/>
		<path class="st0" d="M369.97,95.58h2.59v-22.3h-2.59V95.58z M363.2,89.54c0,2.59-2.06,4.19-4.28,4.19c-1.88,0-2.83-0.99-2.83-2.34
			c0-1.85,2.03-2.28,3.88-2.68c1.6-0.37,2.74-0.77,3.23-1.51V89.54z M359.81,81.9c1.85,0,3.27,1.08,3.27,2.68
			c0,1.32-1.32,1.6-3.67,2.09c-2.71,0.56-5.91,1.39-5.91,4.71c0,2.92,2.06,4.56,4.93,4.56c2.46,0,4.03-1.36,4.77-2.47h0.06
			c0.09,0.74,0.19,1.23,0.68,2.1h2.09c-0.21-0.86-0.37-1.6-0.37-3.33v-7.11c0-3.85-2.65-5.45-5.85-5.45c-3.32,0-5.88,2.1-6.65,4.83
			l2.4,1.45C355.93,83.75,357.22,81.9,359.81,81.9 M343.27,87.97l-2.68-7.92h-2.77l5.67,15.52h2.59l5.67-15.52h-2.65l-2.68,7.92
			c-0.71,2.06-1.54,4.59-1.54,4.59h-0.06C344.81,92.56,343.98,90.04,343.27,87.97 M333.94,73.9c-1.05,0-1.79,0.74-1.79,1.79
			c0,1.05,0.74,1.79,1.79,1.79c1.05,0,1.79-0.74,1.79-1.79C335.72,74.64,334.98,73.9,333.94,73.9 M332.64,95.58h2.59V80.06h-2.59
			V95.58z M328.67,92.25c-0.25,0.62-0.8,1.48-1.66,1.48c-0.92,0-1.36-0.52-1.36-2v-9.45h4v-2.22h-4v-5.17l-2.53,1.6v3.57h-2.83v2.22
			h2.83v9.67c0,3.14,1.63,4,3.6,4c1.6,0,2.77-0.83,3.33-1.57L328.67,92.25z M313.11,93.86c-2.96,0-4.5-2.06-4.74-4.16l-2.46,1.48
			c0.89,2.9,3.39,4.78,7.33,4.78c2.83,0,5.45-1.73,5.45-4.56c0-2.9-2.25-3.88-4.84-4.71c-2.22-0.71-4.77-0.95-4.77-2.71
			c0-1.48,1.45-2.19,2.93-2.19c2.37,0,3.88,1.69,4.19,3.42l2.4-1.45c-0.99-2.43-3.63-4.07-6.71-4.07c-2.71,0-5.3,1.66-5.3,4.37
			c0,2.96,3.02,3.94,5.36,4.59c2.19,0.61,4.25,1.01,4.25,2.83C316.19,93.08,314.72,93.86,313.11,93.86 M296.88,81.84
			c2.59,0,3.97,2.16,3.97,4.5h-8.41C292.85,83.81,294.36,81.84,296.88,81.84 M303.23,88.43c0,0,0.18-0.74,0.18-1.72
			c0-4.07-2.46-7.02-6.53-7.02c-4.19,0-7.02,3.45-7.02,8.13c0,4.81,2.65,8.13,7.09,8.13c3.2,0,5.51-2.07,6.38-4.28l-2.43-1.45
			c-0.34,1.91-1.72,3.51-3.94,3.51c-2.8,0-4.4-2.34-4.59-5.3H303.23z M274.21,95.58h2.71v-9.61h9.98v-2.46h-9.98v-6.78h10.47v-2.47
			h-13.18V95.58z"/>
		<path class="st0" d="M436.78,68.21h2.59v-22.3h-2.59V68.21z M430,62.17c0,2.59-2.06,4.19-4.28,4.19c-1.88,0-2.83-0.99-2.83-2.34
			c0-1.85,2.03-2.28,3.88-2.68c1.6-0.37,2.74-0.77,3.23-1.51V62.17z M426.62,54.53c1.85,0,3.26,1.08,3.26,2.68
			c0,1.32-1.32,1.6-3.66,2.1c-2.71,0.55-5.91,1.39-5.91,4.71c0,2.93,2.06,4.56,4.93,4.56c2.47,0,4.04-1.35,4.78-2.46h0.06
			c0.09,0.74,0.19,1.23,0.68,2.1h2.1c-0.22-0.86-0.37-1.6-0.37-3.33v-7.11c0-3.85-2.65-5.45-5.85-5.45c-3.33,0-5.88,2.09-6.65,4.83
			l2.4,1.45C422.74,56.38,424.03,54.53,426.62,54.53 M416.45,58.48c0-4.07-2.1-6.16-5.3-6.16c-2.71,0-4.19,1.72-4.81,3.08h-0.06
			l0.19-2.71h-2.59v15.52h2.59v-9.18c0-2.37,1.54-4.38,3.94-4.38c2.22,0,3.45,1.23,3.45,4.31v9.24h2.59V58.48z M388.85,60.45
			c0-3.2,1.48-5.91,4.43-5.91c2.96,0,4.44,2.71,4.44,5.91c0,3.2-1.48,5.91-4.44,5.91C390.33,66.36,388.85,63.65,388.85,60.45
			 M393.29,68.58c4.31,0,7.02-3.45,7.02-8.13c0-4.68-2.71-8.13-7.02-8.13c-4.31,0-7.02,3.45-7.02,8.13
			C386.27,65.13,388.98,68.58,393.29,68.58 M381.4,46.52c-1.05,0-1.79,0.74-1.79,1.79c0,1.05,0.74,1.79,1.79,1.79
			c1.05,0,1.79-0.74,1.79-1.79C383.19,47.27,382.45,46.52,381.4,46.52 M380.11,68.21h2.59V52.69h-2.59V68.21z M376.13,64.88
			c-0.25,0.61-0.8,1.48-1.66,1.48c-0.92,0-1.36-0.52-1.36-2V54.9h4v-2.22h-4v-5.17l-2.53,1.6v3.57h-2.83v2.22h2.83v9.67
			c0,3.14,1.63,4,3.6,4c1.6,0,2.77-0.83,3.33-1.57L376.13,64.88z M363.32,62.17c0,2.59-2.06,4.19-4.28,4.19
			c-1.88,0-2.83-0.99-2.83-2.34c0-1.85,2.03-2.28,3.88-2.68c1.6-0.37,2.74-0.77,3.23-1.51V62.17z M359.93,54.53
			c1.85,0,3.27,1.08,3.27,2.68c0,1.32-1.32,1.6-3.67,2.1c-2.71,0.55-5.91,1.39-5.91,4.71c0,2.93,2.06,4.56,4.93,4.56
			c2.46,0,4.03-1.35,4.77-2.46h0.06c0.09,0.74,0.19,1.23,0.68,2.1h2.1c-0.21-0.86-0.37-1.6-0.37-3.33v-7.11
			c0-3.85-2.65-5.45-5.85-5.45c-3.33,0-5.88,2.09-6.65,4.83l2.4,1.45C356.05,56.38,357.34,54.53,359.93,54.53 M349.77,58.48
			c0-4.07-2.1-6.16-5.3-6.16c-2.71,0-4.19,1.72-4.81,3.08h-0.06l0.18-2.71h-2.59v15.52h2.59v-9.18c0-2.37,1.54-4.38,3.94-4.38
			c2.22,0,3.45,1.23,3.45,4.31v9.24h2.59V58.48z M324.57,68.21h2.59v-8.87c0-2.43,0.86-4.56,2.9-4.56c1.36,0,1.97,1.08,1.97,2.43
			c0,0.99-0.28,2.31-0.28,2.31l2.52-1.51c0,0,0.09-0.71,0.09-1.57c0-2.25-1.42-4-3.54-4c-1.85,0-3.17,1.23-3.79,2.96h-0.06
			l0.19-2.71h-2.59V68.21z M314.59,54.47c2.59,0,3.97,2.16,3.97,4.5h-8.41C310.56,56.44,312.07,54.47,314.59,54.47 M320.94,61.06
			c0,0,0.19-0.74,0.19-1.72c0-4.07-2.46-7.02-6.53-7.02c-4.19,0-7.02,3.45-7.02,8.13c0,4.81,2.65,8.13,7.08,8.13
			c3.2,0,5.51-2.06,6.38-4.28l-2.43-1.45c-0.34,1.91-1.73,3.51-3.94,3.51c-2.8,0-4.4-2.34-4.59-5.3H320.94z M304.58,64.88
			c-0.25,0.61-0.8,1.48-1.66,1.48c-0.92,0-1.36-0.52-1.36-2V54.9h4v-2.22h-4v-5.17l-2.52,1.6v3.57h-2.83v2.22h2.83v9.67
			c0,3.14,1.63,4,3.6,4c1.6,0,2.77-0.83,3.33-1.57L304.58,64.88z M294.23,58.48c0-4.07-2.1-6.16-5.3-6.16
			c-2.71,0-4.19,1.72-4.81,3.08h-0.06l0.18-2.71h-2.59v15.52h2.59v-9.18c0-2.37,1.54-4.38,3.94-4.38c2.22,0,3.45,1.23,3.45,4.31
			v9.24h2.59V58.48z M274.21,68.21h2.77V46.89h-2.77V68.21z"/>
		<path class="st0" d="M422.95,40.84h2.59v-8.87c0-2.43,0.86-4.56,2.9-4.56c1.35,0,1.97,1.08,1.97,2.43c0,0.99-0.28,2.31-0.28,2.31
			l2.53-1.51c0,0,0.09-0.71,0.09-1.57c0-2.25-1.41-4-3.54-4c-1.85,0-3.17,1.23-3.79,2.96h-0.06l0.18-2.71h-2.59V40.84z M412.97,27.1
			c2.59,0,3.97,2.16,3.97,4.5h-8.41C408.94,29.07,410.45,27.1,412.97,27.1 M419.32,33.69c0,0,0.19-0.74,0.19-1.73
			c0-4.06-2.47-7.02-6.53-7.02c-4.19,0-7.02,3.45-7.02,8.13c0,4.81,2.65,8.13,7.09,8.13c3.2,0,5.51-2.06,6.38-4.28l-2.43-1.45
			c-0.34,1.91-1.72,3.51-3.94,3.51c-2.8,0-4.4-2.34-4.59-5.3H419.32z M402.96,37.51c-0.25,0.61-0.8,1.48-1.66,1.48
			c-0.92,0-1.35-0.52-1.35-2v-9.46h4v-2.22h-4v-5.18l-2.53,1.6v3.57h-2.83v2.22h2.83v9.67c0,3.14,1.63,4,3.6,4
			c1.6,0,2.77-0.83,3.33-1.57L402.96,37.51z M387.41,39.11c-2.96,0-4.5-2.06-4.74-4.16l-2.46,1.48c0.89,2.9,3.39,4.77,7.33,4.77
			c2.83,0,5.45-1.72,5.45-4.56c0-2.9-2.25-3.88-4.84-4.71c-2.22-0.71-4.77-0.96-4.77-2.71c0-1.48,1.45-2.19,2.92-2.19
			c2.37,0,3.88,1.69,4.19,3.42l2.4-1.45c-0.99-2.43-3.63-4.07-6.71-4.07c-2.71,0-5.3,1.66-5.3,4.37c0,2.96,3.02,3.94,5.36,4.59
			c2.19,0.62,4.25,1.02,4.25,2.83C390.49,38.34,389.01,39.11,387.41,39.11 M371.17,27.1c2.59,0,3.97,2.16,3.97,4.5h-8.41
			C367.14,29.07,368.65,27.1,371.17,27.1 M377.52,33.69c0,0,0.18-0.74,0.18-1.73c0-4.06-2.46-7.02-6.53-7.02
			c-4.19,0-7.02,3.45-7.02,8.13c0,4.81,2.65,8.13,7.08,8.13c3.2,0,5.51-2.06,6.38-4.28l-2.43-1.45c-0.34,1.91-1.72,3.51-3.94,3.51
			c-2.8,0-4.4-2.34-4.59-5.3H377.52z M360.7,31.11c0-4.07-2.1-6.16-5.3-6.16c-2.71,0-4.19,1.72-4.81,3.08h-0.06
			c0,0,0.19-1.97,0.19-3.82v-5.67h-2.59v22.3h2.59v-9.18c0-2.37,1.54-4.37,3.94-4.37c2.22,0,3.45,1.23,3.45,4.31v9.24h2.59V31.11z
			 M338.52,27.16c2.59,0,3.82,2.22,3.82,4.44l2.47-1.48c-0.37-2.22-2.34-5.18-6.29-5.18c-4.31,0-6.9,3.45-6.9,8.13
			c0,4.68,2.59,8.13,6.9,8.13c3.94,0,5.91-2.96,6.29-5.18l-2.47-1.48c0,2.22-1.23,4.44-3.82,4.44c-2.96,0-4.31-2.71-4.31-5.91
			S335.57,27.16,338.52,27.16 M328.18,31.11c0-4.07-2.1-6.16-5.3-6.16c-2.71,0-4.19,1.72-4.81,3.08h-0.06l0.19-2.71h-2.59v15.52
			h2.59v-9.18c0-2.37,1.54-4.37,3.94-4.37c2.22,0,3.45,1.23,3.45,4.31v9.24h2.59V31.11z M308.83,34.8c0,2.59-2.06,4.19-4.28,4.19
			c-1.88,0-2.83-0.99-2.83-2.34c0-1.85,2.03-2.28,3.88-2.68c1.6-0.37,2.74-0.77,3.23-1.51V34.8z M305.44,27.16
			c1.85,0,3.27,1.08,3.27,2.68c0,1.32-1.32,1.6-3.67,2.1c-2.71,0.55-5.91,1.39-5.91,4.71c0,2.93,2.06,4.56,4.93,4.56
			c2.46,0,4.03-1.36,4.77-2.46h0.06c0.09,0.74,0.19,1.23,0.68,2.09h2.1c-0.21-0.86-0.37-1.6-0.37-3.32V30.4
			c0-3.85-2.65-5.45-5.85-5.45c-3.33,0-5.88,2.1-6.65,4.84l2.4,1.45C301.56,29.01,302.86,27.16,305.44,27.16 M284.59,37.39
			c0,0-0.46-1.85-1.08-3.57l-5.05-14.29h-4.25v21.31h2.65V26.42c0-2.09-0.06-3.94-0.06-3.94h0.06c0,0,0.68,1.97,1.29,3.7l5.17,14.66
			h2.46l5.18-14.66c0.62-1.72,1.29-3.7,1.29-3.7h0.06c0,0-0.06,1.85-0.06,3.94v14.42h2.65V19.52h-4.13l-5.05,14.29
			c-0.61,1.72-1.08,3.57-1.08,3.57H284.59z"/>
	</g>
</g>
</svg>
