<?xml version="1.0" encoding="utf-8"?>
<!-- Generator: Adobe Illustrator 23.0.6, SVG Export Plug-In . SVG Version: 6.00 Build 0)  -->
<svg version="1.1" id="Layer_1" xmlns="http://www.w3.org/2000/svg" xmlns:xlink="http://www.w3.org/1999/xlink" x="0px" y="0px"
	 viewBox="0 0 323.3 844.4" style="enable-background:new 0 0 323.3 844.4;" xml:space="preserve">
<style type="text/css">
	.st0{fill:none;stroke:#6bcdb5;stroke-miterlimit:10;}
</style>
<g>
	<g>
		<g>
			<path class="st0" d="M3.1,843.9v-64.2c0-17,4-30.4,11.9-40.3c7.9-9.9,19.2-14.8,33.9-14.8c10.5,0,19.2,2.8,26.3,8.3
				c7.1,5.5,12.3,12.8,15.7,22l62.9-33.5v34L95,786.2v25.9h58.8v31.8H3.1z M48.8,756.5c-6.1,0-10.8,1.9-14,5.8
				c-3.3,3.8-4.9,9.5-4.9,17.1v32.7h38.8v-32.7c0-7.5-1.8-13.2-5.3-17.1C59.8,758.5,54.9,756.5,48.8,756.5z"/>
			<path class="st0" d="M3.1,707.8V605.2h27.4V676h32.9v-66.9h27V676h35.9v-72.5h27.4v104.3H3.1z"/>
			<path class="st0" d="M156.4,523.5c0,9.6-1.8,18.6-5.3,27c-3.6,8.4-8.7,15.8-15.5,22c-6.8,6.2-15,11.1-24.7,14.7
				c-9.7,3.6-20.7,5.3-32.9,5.3c-12.2,0-23.1-1.8-32.7-5.3c-9.6-3.6-17.7-8.5-24.4-14.7c-6.7-6.2-11.8-13.6-15.2-22
				c-3.5-8.4-5.2-17.4-5.2-27c0-8,1.3-15.5,3.9-22.4c2.6-7,6.1-13.2,10.6-18.6c4.4-5.4,9.5-10,15.1-13.6c5.7-3.6,11.5-6.2,17.6-7.6
				l18.7,29.8c-5.1,0.3-9.9,1.1-14.5,2.5c-4.6,1.4-8.6,3.4-12,6.1c-3.4,2.7-6.1,6-8.2,10c-2,4-3,8.6-3,13.8c0,6.2,1.3,11.7,3.8,16.2
				c2.5,4.6,6,8.4,10.5,11.3c4.4,3,9.7,5.2,15.7,6.6c6,1.5,12.4,2.2,19.3,2.2c6.8,0,13.3-0.7,19.4-2.2c6.1-1.4,11.4-3.7,16-6.6
				c4.6-3,8.2-6.8,10.8-11.3c2.6-4.6,3.9-10,3.9-16.2c0-5.2-1.1-9.8-3.2-13.8c-2.1-4-4.9-7.3-8.5-10c-3.6-2.7-7.7-4.7-12.3-6.1
				c-4.6-1.4-9.5-2.2-14.6-2.5l18.7-29.8c6.1,1.5,12.1,4,17.9,7.6c5.8,3.6,10.9,8.2,15.4,13.6c4.4,5.4,8,11.7,10.8,18.6
				C155,508.1,156.4,515.6,156.4,523.5z"/>
			<path class="st0" d="M3.1,446.5v-64.2c0-17,4-30.4,11.9-40.3c7.9-9.9,19.2-14.8,33.9-14.8c10.5,0,19.2,2.8,26.3,8.3
				c7.1,5.5,12.3,12.8,15.7,22l62.9-33.5v34L95,388.8v25.9h58.8v31.8H3.1z M48.8,359.1c-6.1,0-10.8,1.9-14,5.8
				c-3.3,3.8-4.9,9.5-4.9,17.1v32.7h38.8V382c0-7.5-1.8-13.2-5.3-17.1C59.8,361.1,54.9,359.1,48.8,359.1z"/>
			<path class="st0" d="M156.4,249c0,8.9-1.2,17-3.6,24.5c-2.4,7.5-6.2,13.9-11.4,19.4c-5.2,5.4-11.9,9.7-20,12.7
				c-8.1,3-17.9,4.6-29.4,4.6H3.1v-31.8h90.8c11,0,19.5-2.4,25.4-7.2c5.9-4.8,8.8-12.2,8.8-22.2c0-10-2.9-17.4-8.8-22.2
				c-5.9-4.8-14.3-7.2-25.4-7.2H3.1v-32H92c11.5,0,21.3,1.6,29.4,4.7c8.1,3.1,14.8,7.4,20,12.8c5.2,5.4,9,11.9,11.4,19.4
				C155.2,231.9,156.4,240.1,156.4,249z"/>
			<path class="st0" d="M3.1,164.7v-32.4h150.7v32.4H3.1z"/>
			<path class="st0" d="M3.1,120.7V0.5h28.5v44h122.2v32.2H31.6v44H3.1z"/>
			<path class="st0" d="M285.1,718.7c-2.9-0.6-5.8-1.2-8.7-2c-2.5-0.7-5.2-1.4-8.1-2.2c-2.9-0.7-5.7-1.5-8.5-2.4l-87.8-27.2v-44.6
				h150.7v30.5h-81.9c-3.3,0-6.8,0-10.3-0.1c-3.6-0.1-6.8-0.2-9.7-0.3c-3.3-0.1-6.6-0.3-9.8-0.4v0.7c2.6,0.7,5.2,1.5,7.8,2.2
				c2.3,0.7,4.9,1.5,7.6,2.3c2.8,0.8,5.4,1.6,8.1,2.3l88.2,27.7v29.4l-88.2,27.2c-2.6,0.9-5.3,1.7-8.2,2.5c-2.8,0.8-5.5,1.6-7.9,2.3
				c-2.8,0.7-5.6,1.5-8.5,2.2v0.7c3.2,0,6.6-0.1,10.2-0.2c3-0.1,6.4-0.3,10.1-0.3c3.7-0.1,7.2-0.1,10.6-0.1h81.9v30.1H172.1v-46.2
				l87.8-26.8c2.8-0.7,5.6-1.5,8.5-2.3c2.9-0.8,5.6-1.5,8.1-2.1c2.9-0.6,5.8-1.2,8.7-2V718.7z"/>
			<path class="st0" d="M172.1,616.1V513.5h27.4v70.8h32.9v-66.9h27v66.9h35.9v-72.5h27.4v104.3H172.1z"/>
			<path class="st0" d="M322.8,410.3l-83.8,42c-2.5,1.3-5.4,2.7-8.9,4.1c-3.5,1.5-6.8,2.8-9.8,4.1c-3.6,1.6-7.3,3-10.9,4.4l0.2,0.9
				c0.1,0,1.2-0.1,3.3-0.2c2-0.1,4.6-0.3,7.7-0.4c3.1-0.1,6.5-0.3,10.2-0.4c3.7-0.1,7.3-0.2,10.8-0.2h81.2v30.1H172.1v-42.5
				l83.8-42.2c2.6-1.2,5.6-2.5,9-4.1c3.4-1.6,6.6-3,9.7-4.4c3.6-1.6,7.3-3.1,10.9-4.6v-0.9c-3.5,0.3-7.1,0.6-10.9,0.9
				c-3.2,0.3-6.7,0.5-10.5,0.7c-3.8,0.1-7.4,0.2-10.9,0.2h-81.2v-29.8h150.7V410.3z"/>
			<path class="st0" d="M172.1,356.1V235.9h28.5v44h122.2v32.2H200.6v44H172.1z"/>
		</g>
	</g>
</g>
</svg>
