<?xml version="1.0" encoding="utf-8"?>
<!-- Generator: Adobe Illustrator 21.0.2, SVG Export Plug-In . SVG Version: 6.00 Build 0)  -->
<svg version="1.1"
	 id="Layer_1" xmlns:cc="http://creativecommons.org/ns#" xmlns:dc="http://purl.org/dc/elements/1.1/" xmlns:inkscape="http://www.inkscape.org/namespaces/inkscape" xmlns:rdf="http://www.w3.org/1999/02/22-rdf-syntax-ns#" xmlns:sodipodi="http://sodipodi.sourceforge.net/DTD/sodipodi-0.dtd" xmlns:svg="http://www.w3.org/2000/svg"
	 xmlns="http://www.w3.org/2000/svg" xmlns:xlink="http://www.w3.org/1999/xlink" x="0px" y="0px" viewBox="0 0 88 88"
	 style="enable-background:new 0 0 88 88;" xml:space="preserve">
<style type="text/css">
	.st0{fill:#B4B7B9;}
	.st1{fill:#FFFFFF;stroke:#000000;stroke-miterlimit:10;}
</style>
<g transform="translate(0,-952.36218)">
	<path class="st0" d="M88,996.4c0-24.3-19.7-44-44-44s-44,19.7-44,44s19.7,44,44,44C68.2,1040.4,88,1020.7,88,996.4z M82,996.4
		c0,21-17,38-38,38s-38-17-38-38s17-38,38-38S82,975.4,82,996.4z M63.1,996.4l-1.9-2l-24-26l-4.4,4.1l22.1,24l-22.1,24l4.4,4.1
		l24-26C61.2,998.4,63.1,996.4,63.1,996.4z"/>
</g>
<circle class="st1" cx="-162" cy="-122.5" r="0"/>
</svg>
