<?xml version="1.0" encoding="utf-8"?>
<!-- Generator: Adobe Illustrator 23.0.1, SVG Export Plug-In . SVG Version: 6.00 Build 0)  -->
<svg version="1.1" id="Layer_1" xmlns="http://www.w3.org/2000/svg" xmlns:xlink="http://www.w3.org/1999/xlink" x="0px" y="0px"
	 viewBox="0 0 1184 156" style="enable-background:new 0 0 1184 156;" xml:space="preserve">
<style type="text/css">
	.st0{fill:none;stroke:#6bcdb5;stroke-miterlimit:10;}
	.st1{fill:#6bcdb5;}
</style>
<g>
	<path class="st0" d="M3.02,2.69h120.2v28.53H79.23v122.16H47V31.21H3.02V2.69z"/>
	<path class="st0" d="M226.87,90.88h-60.1v62.5h-32.01V2.69h32.01v59.67h60.1V2.69h32.01v150.69h-32.01V90.88z"/>
	<path class="st0" d="M369.29,118.97h-55.75L302,153.38h-31.79L322.69,2.69h38.76l52.48,150.69h-33.1L369.29,118.97z M322.25,92.62
		h38.33l-13.07-39.63c-2.83-8.49-5.66-19.82-5.66-19.82h-0.65c0,0-2.83,11.32-5.66,19.82L322.25,92.62z"/>
	<path class="st0" d="M509.52,153.38L467.5,69.54c-5.01-10.23-12.63-29.62-12.63-29.62L454,40.14c0,0.44,1.31,18.29,1.31,32.01
		v81.22h-30.05V2.69h42.46l42.25,83.84c5.01,10.23,13.07,29.62,13.07,29.62h0.87c0,0-1.74-18.29-1.74-32.23V2.69h29.83v150.69
		H509.52z"/>
	<path class="st0" d="M576.16,2.69h31.79v46.17c0,13.72-0.87,28.74-0.87,28.74h0.65c0,0,7.62-13.5,17.86-27.22l36.15-47.69h37.24
		l-47.47,60.1l52.92,90.59h-35.71L630.6,88.27l-22.65,29.18v35.93h-31.79V2.69z"/>
	<path class="st1" d="M787.6,97.63L736.65,2.69h34.84l23.95,47.47c5.23,10.02,8.49,19.82,8.49,19.82h0.65c0,0,3.48-9.8,8.49-19.82
		l24.17-47.47H871l-51.17,94.51v56.18H787.6V97.63z"/>
	<path class="st1" d="M865.56,77.6c0-48.78,30.92-77.52,69.9-77.52c38.98,0,69.9,28.74,69.9,77.52c0,48.78-30.92,78.39-69.9,78.39
		C896.48,155.99,865.56,126.37,865.56,77.6z M935.46,28.38c-25.48,0-37.24,21.78-37.24,49.21s11.76,50.08,37.24,50.08
		c25.26,0,37.24-22.65,37.24-50.08S960.72,28.38,935.46,28.38z"/>
	<path class="st1" d="M1022.78,91.53V2.69h31.79v90.8c0,21.99,9.58,34.19,29.4,34.19c19.82,0,29.4-12.19,29.4-34.19V2.69h32.01
		v88.84c0,45.73-26.13,64.46-61.41,64.46C1048.69,155.99,1022.78,137.26,1022.78,91.53z"/>
</g>
</svg>
